SplineFontDB: 3.0
FontName: KAN-KaveriNormal
FullName: KAN Kaveri Normal
FamilyName: KAN Kaveri
Weight: Book
Copyright: Copyright (c) 2009-2015, NLCI (http://www.nlci.in/fonts/)
Version: 1.0 Wed May 17 15:30:32 1995
ItalicAngle: 0
UnderlinePosition: -290
UnderlineWidth: 20
Ascent: 1544
Descent: 387
InvalidEm: 0
LayerCount: 2
Layer: 0 0 "Back" 1
Layer: 1 0 "Fore" 0
XUID: [1021 915 2070801671 66543]
FSType: 0
OS2Version: 0
OS2_WeightWidthSlopeOnly: 0
OS2_UseTypoMetrics: 1
CreationTime: 1250825681
ModificationTime: 1523582739
PfmFamily: 81
TTFWeight: 400
TTFWidth: 5
LineGap: 0
VLineGap: 0
Panose: 5 0 0 0 0 0 0 0 0 0
OS2TypoAscent: -138
OS2TypoAOffset: 1
OS2TypoDescent: -305
OS2TypoDOffset: 1
OS2TypoLinegap: 0
OS2WinAscent: -447
OS2WinAOffset: 1
OS2WinDescent: -274
OS2WinDOffset: 1
HheadAscent: -447
HheadAOffset: 1
HheadDescent: 274
HheadDOffset: 1
OS2SubXSize: 1352
OS2SubYSize: 1255
OS2SubXOff: 0
OS2SubYOff: 276
OS2SupXSize: 1352
OS2SupYSize: 1255
OS2SupXOff: 0
OS2SupYOff: 875
OS2StrikeYSize: 96
OS2StrikeYPos: 500
OS2Vendor: 'Alts'
OS2UnicodeRanges: 00000000.00000000.00000000.00000000
Lookup: 262 0 0 "blwm" { "blwm-2sub"  } []
MarkAttachClasses: 1
DEI: 91125
TtTable: prep
NPUSHB
 1
 1
SCANTYPE
PUSHW_1
 511
SCANCTRL
EndTTInstrs
ShortTable: maxp 16
  1
  0
  319
  161
  5
  150
  6
  2
  8
  64
  10
  0
  3
  557
  4
  2
EndShort
LangName: 1033 "" "" "Normal" "NLCI:KAN Kaveri Normal" "" "1.0 Wed May 17 15:30:32 1995"
Encoding: Original
Compacted: 1
UnicodeInterp: none
NameList: Adobe Glyph List
DisplaySize: -48
AntiAlias: 1
FitToEm: 1
WinInfo: 0 37 14
BeginPrivate: 0
EndPrivate
AnchorClass2: "Sub" "blwm-2sub" "Nukta"""  "s"""  "V""" 
BeginChars: 572 313

StartChar: .notdef
Encoding: 0 -1 0
Width: 965
Flags: HW
LayerCount: 2
Fore
SplineSet
60 0 m 1
 60 1321 l 1
 905 1321 l 1
 905 0 l 1
 60 0 l 1
845 60 m 1
 845 1261 l 1
 120 1261 l 1
 120 60 l 1
 845 60 l 1
EndSplineSet
EndChar

StartChar: exclam
Encoding: 4 33 4
Width: 346
VWidth: 965
Flags: HW
LayerCount: 2
Fore
SplineSet
235.5 637 m 0
 235.5 635 234.916992188 626.916992188 233.75 612.75 c 0
 232.583007812 598.583007812 231.166992188 580.75 229.5 559.25 c 0
 227.833007812 537.75 225.916992188 513.583007812 223.75 486.75 c 0
 221.583007812 459.916992188 219.333007812 432.666992188 217 405 c 0
 211.333007812 340 205.166992188 266.833007812 198.5 185.5 c 0
 148.5 185.5 l 0
 141.5 266.833007812 135.166992188 340 129.5 405 c 0
 127.166992188 432.666992188 124.833007812 459.916992188 122.5 486.75 c 0
 120.166992188 513.583007812 118.166992188 537.75 116.5 559.25 c 0
 114.833007812 580.75 113.416992188 598.583007812 112.25 612.75 c 0
 111.083007812 626.916992188 110.5 635 110.5 637 c 0
 110.5 657.666992188 115.5 673.916992188 125.5 685.75 c 0
 135.5 697.583007812 151.333007812 703.5 173 703.5 c 0
 194.666992188 703.5 210.5 697.583007812 220.5 685.75 c 0
 230.5 673.916992188 235.5 657.666992188 235.5 637 c 0
236.5 51 m 0
 236.5 42.6669921875 234.833007812 34.6669921875 231.5 27 c 0
 228.166992188 19.3330078125 223.583007812 12.5830078125 217.75 6.75 c 0
 211.916992188 0.9169921875 205.166992188 -3.75 197.5 -7.25 c 0
 189.833007812 -10.75 181.666992188 -12.5 173 -12.5 c 0
 164.333007812 -12.5 156.166992188 -10.75 148.5 -7.25 c 0
 140.833007812 -3.75 134.166992188 0.9169921875 128.5 6.75 c 0
 122.833007812 12.5830078125 118.416992188 19.3330078125 115.25 27 c 0
 112.083007812 34.6669921875 110.5 42.6669921875 110.5 51 c 0
 110.5 59.6669921875 112.083007812 67.8330078125 115.25 75.5 c 0
 118.416992188 83.1669921875 122.833007812 89.8330078125 128.5 95.5 c 0
 134.166992188 101.166992188 140.833007812 105.583007812 148.5 108.75 c 0
 156.166992188 111.916992188 164.333007812 113.5 173 113.5 c 0
 181.666992188 113.5 189.833007812 111.916992188 197.5 108.75 c 0
 205.166992188 105.583007812 211.916992188 101.166992188 217.75 95.5 c 0
 223.583007812 89.8330078125 228.166992188 83.1669921875 231.5 75.5 c 0
 234.833007812 67.8330078125 236.5 59.6669921875 236.5 51 c 0
EndSplineSet
EndChar

StartChar: quotedbl
Encoding: 5 34 5
Width: 341
VWidth: 965
Flags: HW
LayerCount: 2
Fore
SplineSet
261 431 m 0
 244.5 431 l 0
 210 681 l 0
 210 697 213.666992188 709.333007812 221 718 c 0
 228.333007812 726.666992188 239 731 253 731 c 0
 267.333007812 731 278.25 726.666992188 285.75 718 c 0
 293.25 709.333007812 297 697 297 681 c 0
 261 431 l 0
96.5 431 m 0
 80 431 l 0
 44 681 l 0
 44 697 47.8330078125 709.333007812 55.5 718 c 0
 63.1669921875 726.666992188 74 731 88 731 c 0
 102.333007812 731 113.083007812 726.666992188 120.25 718 c 0
 127.416992188 709.333007812 131 697 131 681 c 0
 96.5 431 l 0
EndSplineSet
EndChar

StartChar: numbersign
Encoding: 6 35 6
Width: 761
VWidth: 965
Flags: HW
LayerCount: 2
Fore
SplineSet
536.5 431 m 0
 488.5 284.5 l 0
 653.5 284.5 l 0
 653.5 233.5 l 0
 470 233.5 l 0
 384 -23.5 l 0
 333 -7 l 0
 412.5 233.5 l 0
 264 233.5 l 0
 177 -23.5 l 0
 127 -6 l 0
 209 233.5 l 0
 63.5 233.5 l 0
 63.5 284.5 l 0
 225.5 284.5 l 0
 275.5 431 l 0
 109.5 431 l 0
 109.5 483.5 l 0
 293 483.5 l 0
 375 725 l 0
 427 708.5 l 0
 348 483.5 l 0
 497.5 483.5 l 0
 578.5 725 l 0
 633 708.5 l 0
 555 483.5 l 0
 698.5 483.5 l 0
 698.5 431 l 0
 536.5 431 l 0
332 431 m 0
 281.5 284.5 l 0
 430 284.5 l 0
 480.5 431 l 0
 332 431 l 0
EndSplineSet
EndChar

StartChar: dollar
Encoding: 7 36 7
Width: 576
VWidth: 965
Flags: HW
LayerCount: 2
Fore
SplineSet
517 194.5 m 0
 517 173.5 513.5 154.166992188 506.5 136.5 c 0
 499.5 118.833007812 490.416992188 102.916992188 479.25 88.75 c 0
 468.083007812 74.5830078125 455.25 62.1669921875 440.75 51.5 c 0
 426.25 40.8330078125 411.416992188 31.75 396.25 24.25 c 0
 381.083007812 16.75 366.333007812 11 352 7 c 0
 337.666992188 3 324.833007812 0.6669921875 313.5 0 c 0
 313.5 -105.5 l 0
 266 -105.5 l 0
 266 0 l 0
 253.333007812 0.6669921875 238.666992188 1.5 222 2.5 c 0
 205.333007812 3.5 187.916992188 4.9169921875 169.75 6.75 c 0
 151.583007812 8.5830078125 133 11.0830078125 114 14.25 c 0
 95 17.4169921875 76.8330078125 21.5 59.5 26.5 c 0
 59.5 200.5 l 0
 110.5 200.5 l 0
 129 86 l 0
 133.666992188 80.3330078125 140.75 75.25 150.25 70.75 c 0
 159.75 66.25 170.75 62.5 183.25 59.5 c 0
 195.75 56.5 209.166992188 54.1669921875 223.5 52.5 c 0
 237.833007812 50.8330078125 252 50 266 50 c 0
 266 309 l 0
 243.666992188 314 221.25 321.083007812 198.75 330.25 c 0
 176.25 339.416992188 155.916992188 351.333007812 137.75 366 c 0
 119.583007812 380.666992188 104.75 398.583007812 93.25 419.75 c 0
 81.75 440.916992188 76 466.166992188 76 495.5 c 0
 76 516.166992188 78.8330078125 534.916992188 84.5 551.75 c 0
 90.1669921875 568.583007812 97.8330078125 583.583007812 107.5 596.75 c 0
 117.166992188 609.916992188 128.416992188 621.5 141.25 631.5 c 0
 154.083007812 641.5 167.583007812 650 181.75 657 c 0
 195.916992188 664 210.416992188 669.75 225.25 674.25 c 0
 240.083007812 678.75 254.166992188 682 267.5 684 c 0
 267.5 761 l 0
 314.5 761 l 0
 314.5 687 l 0
 336.5 687 357.916992188 685.75 378.75 683.25 c 0
 399.583007812 680.75 418.166992188 678 434.5 675 c 0
 453.5 671.333007812 471.5 667.5 488.5 663.5 c 0
 488.5 502 l 0
 435 502 l 0
 420 610.5 l 0
 404 628.166992188 368.833007812 637 314.5 637 c 0
 314.5 393 l 0
 329.166992188 388.666992188 344.416992188 384 360.25 379 c 0
 376.083007812 374 391.5 368 406.5 361 c 0
 421.5 354 435.666992188 345.833007812 449 336.5 c 0
 462.333007812 327.166992188 474.083007812 315.833007812 484.25 302.5 c 0
 494.416992188 289.166992188 502.416992188 273.666992188 508.25 256 c 0
 514.083007812 238.333007812 517 217.833007812 517 194.5 c 0
267.5 633 m 0
 253.833007812 630 241.166992188 625.416992188 229.5 619.25 c 0
 217.833007812 613.083007812 207.666992188 605.166992188 199 595.5 c 0
 190.333007812 585.833007812 183.5 574.416992188 178.5 561.25 c 0
 173.5 548.083007812 171 533 171 516 c 0
 171 499.333007812 174.083007812 485 180.25 473 c 0
 186.416992188 461 194.166992188 450.75 203.5 442.25 c 0
 212.833007812 433.75 223.166992188 426.666992188 234.5 421 c 0
 245.833007812 415.333007812 256.833007812 410.5 267.5 406.5 c 0
 267.5 633 l 0
424 175 m 0
 424 193.666992188 421 209.666992188 415 223 c 0
 409 236.333007812 400.833007812 247.75 390.5 257.25 c 0
 380.166992188 266.75 368.333007812 274.583007812 355 280.75 c 0
 341.666992188 286.916992188 327.833007812 292.333007812 313.5 297 c 0
 313.5 54.5 l 0
 327.833007812 56.8330078125 341.666992188 61 355 67 c 0
 368.333007812 73 380.166992188 80.9169921875 390.5 90.75 c 0
 400.833007812 100.583007812 409 112.5 415 126.5 c 0
 421 140.5 424 156.666992188 424 175 c 0
EndSplineSet
EndChar

StartChar: percent
Encoding: 8 37 8
Width: 880
VWidth: 965
Flags: HW
LayerCount: 2
Fore
SplineSet
848 198.5 m 0
 848 168.166992188 844.75 139.916992188 838.25 113.75 c 0
 831.75 87.5830078125 822 64.8330078125 809 45.5 c 0
 796 26.1669921875 779.666992188 11 760 0 c 0
 740.333007812 -11 717.333007812 -16.5 691 -16.5 c 0
 664.666992188 -16.5 641.666992188 -11 622 0 c 0
 602.333007812 11 585.916992188 26.1669921875 572.75 45.5 c 0
 559.583007812 64.8330078125 549.75 87.5830078125 543.25 113.75 c 0
 536.75 139.916992188 533.5 168.166992188 533.5 198.5 c 0
 533.5 228.833007812 536.75 257.166992188 543.25 283.5 c 0
 549.75 309.833007812 559.583007812 332.583007812 572.75 351.75 c 0
 585.916992188 370.916992188 602.333007812 386 622 397 c 0
 641.666992188 408 664.666992188 413.5 691 413.5 c 0
 717.333007812 413.5 740.333007812 408 760 397 c 0
 779.666992188 386 796 370.916992188 809 351.75 c 0
 822 332.583007812 831.75 309.833007812 838.25 283.5 c 0
 844.75 257.166992188 848 228.833007812 848 198.5 c 0
256 0 m 0
 191.5 0 l 0
 626.5 687 l 0
 690 687 l 0
 256 0 l 0
347 488.5 m 0
 347 457.833007812 343.833007812 429.416992188 337.5 403.25 c 0
 331.166992188 377.083007812 321.5 354.416992188 308.5 335.25 c 0
 295.5 316.083007812 279.166992188 301 259.5 290 c 0
 239.833007812 279 216.833007812 273.5 190.5 273.5 c 0
 164.166992188 273.5 141.166992188 279 121.5 290 c 0
 101.833007812 301 85.4169921875 316.083007812 72.25 335.25 c 0
 59.0830078125 354.416992188 49.25 377.083007812 42.75 403.25 c 0
 36.25 429.416992188 33 457.833007812 33 488.5 c 0
 33 518.833007812 36.25 547.166992188 42.75 573.5 c 0
 49.25 599.833007812 59.0830078125 622.583007812 72.25 641.75 c 0
 85.4169921875 660.916992188 101.833007812 676 121.5 687 c 0
 141.166992188 698 164.166992188 703.5 190.5 703.5 c 0
 216.833007812 703.5 239.833007812 698 259.5 687 c 0
 279.166992188 676 295.5 660.916992188 308.5 641.75 c 0
 321.5 622.583007812 331.166992188 599.833007812 337.5 573.5 c 0
 343.833007812 547.166992188 347 518.833007812 347 488.5 c 0
769 198.5 m 0
 769 225.5 767.5 249.833007812 764.5 271.5 c 0
 761.5 293.166992188 756.916992188 311.666992188 750.75 327 c 0
 744.583007812 342.333007812 736.583007812 354.166992188 726.75 362.5 c 0
 716.916992188 370.833007812 705 375 691 375 c 0
 677.333007812 375 665.416992188 370.833007812 655.25 362.5 c 0
 645.083007812 354.166992188 636.666992188 342.333007812 630 327 c 0
 623.333007812 311.666992188 618.416992188 293.166992188 615.25 271.5 c 0
 612.083007812 249.833007812 610.5 225.5 610.5 198.5 c 0
 610.5 171.5 612.083007812 147.166992188 615.25 125.5 c 0
 618.416992188 103.833007812 623.333007812 85.25 630 69.75 c 0
 636.666992188 54.25 645.083007812 42.3330078125 655.25 34 c 0
 665.416992188 25.6669921875 677.333007812 21.5 691 21.5 c 0
 705 21.5 716.916992188 25.6669921875 726.75 34 c 0
 736.583007812 42.3330078125 744.583007812 54.25 750.75 69.75 c 0
 756.916992188 85.25 761.5 103.833007812 764.5 125.5 c 0
 767.5 147.166992188 769 171.5 769 198.5 c 0
268.5 488.5 m 0
 268.5 515.5 267 539.833007812 264 561.5 c 0
 261 583.166992188 256.416992188 601.583007812 250.25 616.75 c 0
 244.083007812 631.916992188 236.083007812 643.666992188 226.25 652 c 0
 216.416992188 660.333007812 204.5 664.5 190.5 664.5 c 0
 176.5 664.5 164.416992188 660.333007812 154.25 652 c 0
 144.083007812 643.666992188 135.666992188 631.916992188 129 616.75 c 0
 122.333007812 601.583007812 117.416992188 583.166992188 114.25 561.5 c 0
 111.083007812 539.833007812 109.5 515.5 109.5 488.5 c 0
 109.5 461.5 111.083007812 437.166992188 114.25 415.5 c 0
 117.416992188 393.833007812 122.333007812 375.416992188 129 360.25 c 0
 135.666992188 345.083007812 144.083007812 333.333007812 154.25 325 c 0
 164.416992188 316.666992188 176.5 312.5 190.5 312.5 c 0
 204.5 312.5 216.416992188 316.666992188 226.25 325 c 0
 236.083007812 333.333007812 244.083007812 345.083007812 250.25 360.25 c 0
 256.416992188 375.416992188 261 393.833007812 264 415.5 c 0
 267 437.166992188 268.5 461.5 268.5 488.5 c 0
EndSplineSet
EndChar

StartChar: ampersand
Encoding: 9 38 9
Width: 716
VWidth: 965
Flags: HW
LayerCount: 2
Fore
SplineSet
507 0 m 0
 507 24.5 l 0
 461 76 l 0
 447.666992188 65.3330078125 433.833007812 54.75 419.5 44.25 c 0
 405.166992188 33.75 389.666992188 24.3330078125 373 16 c 0
 356.333007812 7.6669921875 338.166992188 0.8330078125 318.5 -4.5 c 0
 298.833007812 -9.8330078125 277 -12.5 253 -12.5 c 0
 223.666992188 -12.5 196.083007812 -7.4169921875 170.25 2.75 c 0
 144.416992188 12.9169921875 121.833007812 27 102.5 45 c 0
 83.1669921875 63 67.9169921875 84.4169921875 56.75 109.25 c 0
 45.5830078125 134.083007812 40 161.166992188 40 190.5 c 0
 40 212.833007812 43.3330078125 233.25 50 251.75 c 0
 56.6669921875 270.25 66.0830078125 286.916992188 78.25 301.75 c 0
 90.4169921875 316.583007812 104.916992188 329.666992188 121.75 341 c 0
 138.583007812 352.333007812 157 362.166992188 177 370.5 c 0
 171.333007812 376.166992188 163.666992188 383.916992188 154 393.75 c 0
 144.333007812 403.583007812 134.833007812 415.166992188 125.5 428.5 c 0
 116.166992188 441.833007812 108.083007812 456.833007812 101.25 473.5 c 0
 94.4169921875 490.166992188 91 508.166992188 91 527.5 c 0
 91 553.166992188 95.9169921875 576.583007812 105.75 597.75 c 0
 115.583007812 618.916992188 129.25 637.166992188 146.75 652.5 c 0
 164.25 667.833007812 184.833007812 679.666992188 208.5 688 c 0
 232.166992188 696.333007812 257.833007812 700.5 285.5 700.5 c 0
 311.5 700.5 335.5 696.583007812 357.5 688.75 c 0
 379.5 680.916992188 398.5 670.166992188 414.5 656.5 c 0
 430.5 642.833007812 443.083007812 626.583007812 452.25 607.75 c 0
 461.416992188 588.916992188 466 568.333007812 466 546 c 0
 466 521 461.666992188 499.166992188 453 480.5 c 0
 444.333007812 461.833007812 432.916992188 445.5 418.75 431.5 c 0
 404.583007812 417.5 388.5 405.25 370.5 394.75 c 0
 352.5 384.25 334.166992188 374.833007812 315.5 366.5 c 0
 487.5 181 l 0
 492.833007812 188 498.583007812 196.333007812 504.75 206 c 0
 510.916992188 215.666992188 516.75 225.833007812 522.25 236.5 c 0
 527.75 247.166992188 532.583007812 258.083007812 536.75 269.25 c 0
 540.916992188 280.416992188 543.666992188 291 545 301 c 0
 545.333007812 304 543.583007812 307.833007812 539.75 312.5 c 0
 535.916992188 317.166992188 531.833007812 319.833007812 527.5 320.5 c 0
 472 328.5 l 0
 472 371.5 l 0
 682 371.5 l 0
 682 328.5 l 0
 608.5 317.5 l 0
 603.5 300.166992188 597.583007812 283.333007812 590.75 267 c 0
 583.916992188 250.666992188 576.583007812 235.083007812 568.75 220.25 c 0
 560.916992188 205.416992188 552.833007812 191.666992188 544.5 179 c 0
 536.166992188 166.333007812 528.333007812 154.833007812 521 144.5 c 0
 604 49 l 0
 695.5 44 l 0
 695.5 0 l 0
 507 0 l 0
371.5 539.5 m 0
 371.5 554.166992188 369.583007812 568.166992188 365.75 581.5 c 0
 361.916992188 594.833007812 356 606.583007812 348 616.75 c 0
 340 626.916992188 330 635 318 641 c 0
 306 647 291.833007812 650 275.5 650 c 0
 261.5 650 248.833007812 647.5 237.5 642.5 c 0
 226.166992188 637.5 216.5 630.666992188 208.5 622 c 0
 200.5 613.333007812 194.333007812 603.166992188 190 591.5 c 0
 185.666992188 579.833007812 183.5 567.333007812 183.5 554 c 0
 183.5 537 186.75 521.083007812 193.25 506.25 c 0
 199.75 491.416992188 207.75 477.75 217.25 465.25 c 0
 226.75 452.75 237 441.25 248 430.75 c 0
 259 420.25 269.166992188 410.5 278.5 401.5 c 0
 293.5 408.833007812 306.75 416.916992188 318.25 425.75 c 0
 329.75 434.583007812 339.416992188 444.583007812 347.25 455.75 c 0
 355.083007812 466.916992188 361.083007812 479.416992188 365.25 493.25 c 0
 369.416992188 507.083007812 371.5 522.5 371.5 539.5 c 0
217 341 m 0
 206.666992188 334 197.083007812 326.25 188.25 317.75 c 0
 179.416992188 309.25 171.666992188 299.916992188 165 289.75 c 0
 158.333007812 279.583007812 153.083007812 268.25 149.25 255.75 c 0
 145.416992188 243.25 143.5 229.333007812 143.5 214 c 0
 143.5 191 147.333007812 169.75 155 150.25 c 0
 162.666992188 130.75 173.166992188 113.916992188 186.5 99.75 c 0
 199.833007812 85.5830078125 215.583007812 74.5 233.75 66.5 c 0
 251.916992188 58.5 271.333007812 54.5 292 54.5 c 0
 307.666992188 54.5 321.916992188 56.0830078125 334.75 59.25 c 0
 347.583007812 62.4169921875 359.416992188 66.6669921875 370.25 72 c 0
 381.083007812 77.3330078125 391.25 83.4169921875 400.75 90.25 c 0
 410.25 97.0830078125 419.333007812 104.166992188 428 111.5 c 0
 217 341 l 0
EndSplineSet
EndChar

StartChar: quotesingle
Encoding: 10 39 10
Width: 175
VWidth: 965
Flags: HW
LayerCount: 2
Fore
SplineSet
96.5 431 m 0
 80 431 l 0
 44 681 l 0
 44 697 47.6669921875 709.333007812 55 718 c 0
 62.3330078125 726.666992188 73 731 87 731 c 0
 101.333007812 731 112.25 726.666992188 119.75 718 c 0
 127.25 709.333007812 131 697 131 681 c 0
 96.5 431 l 0
EndSplineSet
EndChar

StartChar: parenleft
Encoding: 11 40 11
Width: 385
VWidth: 965
Flags: HW
LayerCount: 2
Fore
SplineSet
351 -145.5 m 0
 315.333007812 -141.5 283.416992188 -133.083007812 255.25 -120.25 c 0
 227.083007812 -107.416992188 202.25 -90.8330078125 180.75 -70.5 c 0
 159.25 -50.1669921875 140.833007812 -26.75 125.5 -0.25 c 0
 110.166992188 26.25 97.75 55.1669921875 88.25 86.5 c 0
 78.75 117.833007812 71.75 151.083007812 67.25 186.25 c 0
 62.75 221.416992188 60.5 257.666992188 60.5 295 c 0
 60.5 350.666992188 65.5830078125 403.75 75.75 454.25 c 0
 85.9169921875 504.75 102.5 549.75 125.5 589.25 c 0
 148.5 628.75 178.416992188 661.25 215.25 686.75 c 0
 252.083007812 712.25 297.333007812 728 351 734 c 0
 351 689 l 0
 315 683 284.583007812 669.75 259.75 649.25 c 0
 234.916992188 628.75 214.75 601.75 199.25 568.25 c 0
 183.75 534.75 172.583007812 495 165.75 449 c 0
 158.916992188 403 155.5 351.666992188 155.5 295 c 0
 155.5 238 158.916992188 186.5 165.75 140.5 c 0
 172.583007812 94.5 183.75 54.5830078125 199.25 20.75 c 0
 214.75 -13.0830078125 234.916992188 -40.25 259.75 -60.75 c 0
 284.583007812 -81.25 315 -94.5 351 -100.5 c 0
 351 -145.5 l 0
EndSplineSet
EndChar

StartChar: parenright
Encoding: 12 41 12
Width: 385
VWidth: 965
Flags: HW
LayerCount: 2
Fore
SplineSet
325.5 295 m 0
 325.5 257.666992188 323.25 221.416992188 318.75 186.25 c 0
 314.25 151.083007812 307.25 117.833007812 297.75 86.5 c 0
 288.25 55.1669921875 275.833007812 26.25 260.5 -0.25 c 0
 245.166992188 -26.75 226.75 -50.1669921875 205.25 -70.5 c 0
 183.75 -90.8330078125 158.916992188 -107.416992188 130.75 -120.25 c 0
 102.583007812 -133.083007812 70.6669921875 -141.5 35 -145.5 c 0
 35 -100.5 l 0
 71 -94.5 101.416992188 -81.25 126.25 -60.75 c 0
 151.083007812 -40.25 171.083007812 -13.0830078125 186.25 20.75 c 0
 201.416992188 54.5830078125 212.416992188 94.5 219.25 140.5 c 0
 226.083007812 186.5 229.5 238 229.5 295 c 0
 229.5 351.666992188 226.083007812 403 219.25 449 c 0
 212.416992188 495 201.416992188 534.75 186.25 568.25 c 0
 171.083007812 601.75 151.083007812 628.75 126.25 649.25 c 0
 101.416992188 669.75 71 683 35 689 c 0
 35 734 l 0
 88.3330078125 728 133.5 712.25 170.5 686.75 c 0
 207.5 661.25 237.5 628.75 260.5 589.25 c 0
 283.5 549.75 300.083007812 504.75 310.25 454.25 c 0
 320.416992188 403.75 325.5 350.666992188 325.5 295 c 0
EndSplineSet
EndChar

StartChar: asterisk
Encoding: 13 42 13
Width: 512
VWidth: 965
Flags: HW
LayerCount: 2
Fore
SplineSet
411.5 525.5 m 0
 279.5 518 l 0
 274.5 532.5 l 0
 385 605 l 0
 457.5 583.5 l 0
 411.5 525.5 l 0
263 542.5 m 0
 249 542.5 l 0
 214 670.5 l 0
 256 733 l 0
 299 670.5 l 0
 263 542.5 l 0
309 371.5 m 0
 262 494.5 l 0
 274.5 504 l 0
 378 421 l 0
 380 345 l 0
 309 371.5 l 0
233.5 518 m 0
 100.5 525.5 l 0
 54.5 583.5 l 0
 127 605 l 0
 237.5 532.5 l 0
 233.5 518 l 0
203 371.5 m 0
 132 345 l 0
 134 421 l 0
 237.5 504 l 0
 250 494.5 l 0
 203 371.5 l 0
EndSplineSet
EndChar

StartChar: plus
Encoding: 14 43 14
Width: 1024
VWidth: 965
Flags: HW
LayerCount: 2
Fore
SplineSet
543.5 275.5 m 0
 543.5 0 l 0
 480.5 0 l 0
 480.5 275.5 l 0
 205 275.5 l 0
 205 339 l 0
 480.5 339 l 0
 480.5 614.5 l 0
 543.5 614.5 l 0
 543.5 339 l 0
 819 339 l 0
 819 275.5 l 0
 543.5 275.5 l 0
EndSplineSet
EndChar

StartChar: comma
Encoding: 15 44 15
Width: 286
VWidth: 965
Flags: HW
LayerCount: 2
Fore
SplineSet
211 10 m 0
 211 -15.6669921875 206.083007812 -39.25 196.25 -60.75 c 0
 186.416992188 -82.25 173.25 -101.083007812 156.75 -117.25 c 0
 140.25 -133.416992188 121.333007812 -146.416992188 100 -156.25 c 0
 78.6669921875 -166.083007812 56.3330078125 -172 33 -174 c 0
 33 -137 l 0
 51 -133 67.0830078125 -127.583007812 81.25 -120.75 c 0
 95.4169921875 -113.916992188 107.25 -104.916992188 116.75 -93.75 c 0
 126.25 -82.5830078125 133.5 -68.8330078125 138.5 -52.5 c 0
 143.5 -36.1669921875 145.833007812 -16.3330078125 145.5 7 c 0
 81 7 l 0
 80.3330078125 7.6669921875 79 9.25 77 11.75 c 0
 75 14.25 72.9169921875 17.5 70.75 21.5 c 0
 68.5830078125 25.5 66.6669921875 30.25 65 35.75 c 0
 63.3330078125 41.25 62.5 47.5 62.5 54.5 c 0
 62.5 63.5 64.0830078125 72.1669921875 67.25 80.5 c 0
 70.4169921875 88.8330078125 74.8330078125 96.3330078125 80.5 103 c 0
 86.1669921875 109.666992188 92.8330078125 115 100.5 119 c 0
 108.166992188 123 116.666992188 125 126 125 c 0
 140.666992188 125 153.333007812 122.083007812 164 116.25 c 0
 174.666992188 110.416992188 183.5 102.416992188 190.5 92.25 c 0
 197.5 82.0830078125 202.666992188 69.9169921875 206 55.75 c 0
 209.333007812 41.5830078125 211 26.3330078125 211 10 c 0
EndSplineSet
EndChar

StartChar: hyphen
Encoding: 16 45 16
Width: 327
VWidth: 965
Flags: HW
LayerCount: 2
Fore
SplineSet
45 208 m 0
 45 284.5 l 0
 282.5 284.5 l 0
 282.5 208 l 0
 45 208 l 0
EndSplineSet
EndChar

StartChar: period
Encoding: 17 46 17
Width: 286
VWidth: 965
Flags: HW
LayerCount: 2
Fore
SplineSet
200.5 56.5 m 0
 200.5 46.8330078125 198.666992188 37.8330078125 195 29.5 c 0
 191.333007812 21.1669921875 186.333007812 13.9169921875 180 7.75 c 0
 173.666992188 1.5830078125 166.25 -3.3330078125 157.75 -7 c 0
 149.25 -10.6669921875 140.333007812 -12.5 131 -12.5 c 0
 121.333007812 -12.5 112.416992188 -10.6669921875 104.25 -7 c 0
 96.0830078125 -3.3330078125 88.8330078125 1.5830078125 82.5 7.75 c 0
 76.1669921875 13.9169921875 71.25 21.1669921875 67.75 29.5 c 0
 64.25 37.8330078125 62.5 46.8330078125 62.5 56.5 c 0
 62.5 65.8330078125 64.25 74.6669921875 67.75 83 c 0
 71.25 91.3330078125 76.1669921875 98.5830078125 82.5 104.75 c 0
 88.8330078125 110.916992188 96.0830078125 115.833007812 104.25 119.5 c 0
 112.416992188 123.166992188 121.333007812 125 131 125 c 0
 140.333007812 125 149.25 123.166992188 157.75 119.5 c 0
 166.25 115.833007812 173.666992188 110.916992188 180 104.75 c 0
 186.333007812 98.5830078125 191.333007812 91.3330078125 195 83 c 0
 198.666992188 74.6669921875 200.5 65.8330078125 200.5 56.5 c 0
EndSplineSet
EndChar

StartChar: slash
Encoding: 18 47 18
Width: 502
VWidth: 965
Flags: HW
LayerCount: 2
Fore
SplineSet
65.5 -95 m 0
 0 -95 l 0
 436 687 l 0
 502 687 l 0
 65.5 -95 l 0
EndSplineSet
EndChar

StartChar: zero
Encoding: 19 48 19
Width: 1457
VWidth: 965
Flags: HW
LayerCount: 2
Fore
SplineSet
1246 289 m 0
 1246 1030 l 0
 1246 1058.66699219 1235.83300781 1083.16699219 1215.5 1103.5 c 0
 1195.16699219 1123.83300781 1171 1134 1143 1134 c 0
 948 1134 l 0
 915.333007812 1134 887 1123.33300781 863 1102 c 0
 839 1080.66699219 827 1056.66699219 827 1030 c 0
 827 282 l 0
 827 255.333007812 839.5 232.666992188 864.5 214 c 0
 889.5 195.333007812 917.333007812 186 948 186 c 0
 1143 186 l 0
 1169 186 1192.66699219 196.166992188 1214 216.5 c 0
 1235.33300781 236.833007812 1246 261 1246 289 c 0
1457 226 m 0
 1457 187.333007812 1445.66699219 150.333007812 1423 115 c 0
 1400.33300781 79.6669921875 1369.66699219 51.8330078125 1331 31.5 c 0
 1292.33300781 11.1669921875 1252 1 1210 1 c 0
 867 1 l 0
 798.333007812 1 739.166992188 27.3330078125 689.5 80 c 0
 639.833007812 132.666992188 615 194.666992188 615 266 c 0
 615 1097 l 0
 615 1157.66699219 642.5 1209.83300781 697.5 1253.5 c 0
 752.5 1297.16699219 817.666992188 1319 893 1319 c 0
 1192 1319 l 0
 1267.33300781 1319 1330.33300781 1293 1381 1241 c 0
 1431.66699219 1189 1457 1124.33300781 1457 1047 c 0
 1457 226 l 0
EndSplineSet
EndChar

StartChar: one
Encoding: 20 49 20
Width: 1457
VWidth: 965
Flags: HW
LayerCount: 2
Fore
SplineSet
1457 0 m 0
 772 0 l 0
 772 184 l 0
 1008 184 l 0
 1008 1046 l 0
 1008 1072.66699219 1003 1093.83300781 993 1109.5 c 0
 983 1125.16699219 971.666992188 1133 959 1133 c 0
 773 1133 l 0
 773 1317 l 0
 999 1317 l 0
 1059 1317 1110.66699219 1295.33300781 1154 1252 c 0
 1197.33300781 1208.66699219 1219 1156.33300781 1219 1095 c 0
 1219 183 l 0
 1457 183 l 0
 1457 0 l 0
EndSplineSet
EndChar

StartChar: two
Encoding: 21 50 21
Width: 1457
VWidth: 965
Flags: HW
LayerCount: 2
Fore
SplineSet
1457 0 m 0
 588 0 l 0
 588 475 l 0
 588 543 616.333007812 599.5 673 644.5 c 0
 729.666992188 689.5 797 712 875 712 c 0
 1166 712 l 0
 1189.33300781 712 1208.16699219 723.833007812 1222.5 747.5 c 0
 1236.83300781 771.166992188 1244 799.666992188 1244 833 c 0
 1244 1068 l 0
 1244 1085.33300781 1238.16699219 1100.16699219 1226.5 1112.5 c 0
 1214.83300781 1124.83300781 1200.33300781 1131 1183 1131 c 0
 891 1131 l 0
 866.333007812 1131 844.5 1124.83300781 825.5 1112.5 c 0
 806.5 1100.16699219 797 1085.33300781 797 1068 c 0
 797 895 l 0
 589 895 l 0
 589 1132 l 0
 589 1186 611.5 1230.16699219 656.5 1264.5 c 0
 701.5 1298.83300781 757.333007812 1316 824 1316 c 0
 1218 1316 l 0
 1284 1316 1340 1294.33300781 1386 1251 c 0
 1432 1207.66699219 1455 1155.33300781 1455 1094 c 0
 1455 817 l 0
 1455 765 1443.83300781 716 1421.5 670 c 0
 1399.16699219 624 1369 588.5 1331 563.5 c 0
 1293 538.5 1252.33300781 526 1209 526 c 0
 892 526 l 0
 867.333007812 526 845.5 522.333007812 826.5 515 c 0
 807.5 507.666992188 798 500 798 492 c 0
 798 184 l 0
 1458 184 l 0
 1457 0 l 0
EndSplineSet
EndChar

StartChar: three
Encoding: 22 51 22
Width: 1457
VWidth: 965
Flags: HW
LayerCount: 2
Fore
SplineSet
1457 211 m 0
 1457 153.666992188 1435.16699219 104.333007812 1391.5 63 c 0
 1347.83300781 21.6669921875 1296.33300781 1 1237 1 c 0
 843 1 l 0
 774.333007812 1 715.166992188 18.8330078125 665.5 54.5 c 0
 615.833007812 90.1669921875 591 133.333007812 591 184 c 0
 591 370 l 0
 799 370 l 0
 799 265 l 0
 799 243 808.666992188 224.166992188 828 208.5 c 0
 847.333007812 192.833007812 869 185 893 185 c 0
 1143 185 l 0
 1171 185 1195.16699219 194 1215.5 212 c 0
 1235.83300781 230 1246 253 1246 281 c 0
 1246 502 l 0
 1246 531.333007812 1235.5 556.166992188 1214.5 576.5 c 0
 1193.5 596.833007812 1169.66699219 607 1143 607 c 0
 1064 607 l 0
 1064 790 l 0
 1131 790 l 0
 1163.66699219 790 1191 797 1213 811 c 0
 1235 823 1246 838.666992188 1246 858 c 0
 1246 1044 l 0
 1246 1070 1238.66699219 1091.16699219 1224 1107.5 c 0
 1209.33300781 1123.83300781 1191 1132 1169 1132 c 0
 894 1132 l 0
 869.333007812 1132 847.5 1124.33300781 828.5 1109 c 0
 809.5 1093.66699219 800 1075.33300781 800 1054 c 0
 800 975 l 0
 592 975 l 0
 592 1161 l 0
 592 1205.66699219 615 1242.83300781 661 1272.5 c 0
 707 1302.16699219 762.666992188 1317 828 1317 c 0
 1239 1317 l 0
 1299.66699219 1317 1351.66699219 1295.33300781 1395 1252 c 0
 1438.33300781 1208.66699219 1460 1156.33300781 1460 1095 c 0
 1460 895 l 0
 1460 856.333007812 1446.33300781 820.333007812 1419 787 c 0
 1391.66699219 753.666992188 1352.33300781 726 1301 704 c 0
 1351 686.666992188 1390 659.166992188 1418 621.5 c 0
 1446 583.833007812 1460 541.333007812 1460 494 c 0
 1457 211 l 0
EndSplineSet
EndChar

StartChar: four
Encoding: 23 52 23
Width: 1457
VWidth: 965
Flags: HW
LayerCount: 2
Fore
SplineSet
1457 316 m 0
 1274 316 l 0
 1274 0 l 0
 1063 0 l 0
 1063 316 l 0
 709 316 l 0
 657 316 610 331.666992188 568 363 c 0
 529.333007812 396.333007812 510 433.333007812 510 474 c 0
 510 522 523.333007812 582.666992188 550 656 c 0
 772 1316 l 0
 982 1316 l 0
 744 646 l 0
 728.666992188 587.333007812 721 547 721 525 c 0
 721 508.333007812 725 500 733 500 c 0
 1063 500 l 0
 1063 1317 l 0
 1274 1317 l 0
 1274 500 l 0
 1457 500 l 0
 1457 316 l 0
EndSplineSet
EndChar

StartChar: five
Encoding: 24 53 24
Width: 1457
VWidth: 965
Flags: HW
LayerCount: 2
Fore
SplineSet
1457 211 m 0
 1457 152.333007812 1438.16699219 102.5 1400.5 61.5 c 0
 1362.83300781 20.5 1317 0 1263 0 c 0
 720 0 l 0
 668.666992188 0 624.833007812 17.1669921875 588.5 51.5 c 0
 552.166992188 85.8330078125 534 126.333007812 534 173 c 0
 534 394 l 0
 744 394 l 0
 744 255 l 0
 744 236.333007812 752.333007812 220 769 206 c 0
 785.666992188 192 804 185 824 185 c 0
 1190 185 l 0
 1206.66699219 185 1219.83300781 194 1229.5 212 c 0
 1239.16699219 230 1244 253 1244 281 c 0
 1244 582 l 0
 1244 615.333007812 1214.66699219 632 1156 632 c 0
 532 632 l 0
 532 1319 l 0
 1429 1319 l 0
 1429 1135 l 0
 742 1135 l 0
 742 821 l 0
 1217 821 l 0
 1281 821 1336.5 799.333007812 1383.5 756 c 0
 1430.5 712.666992188 1454 660.333007812 1454 599 c 0
 1457 211 l 0
EndSplineSet
EndChar

StartChar: six
Encoding: 25 54 25
Width: 1457
VWidth: 965
Flags: HW
LayerCount: 2
Fore
SplineSet
1248 283 m 0
 1248 544 l 0
 1248 572 1236.66699219 593.833007812 1214 609.5 c 0
 1191.33300781 625.166992188 1164.33300781 633 1133 633 c 0
 775 633 l 0
 775 307 l 0
 775 274.333007812 787.333007812 246 812 222 c 0
 836.666992188 198 864.333007812 186 895 186 c 0
 1133 186 l 0
 1164.33300781 186 1191.33300781 194.833007812 1214 212.5 c 0
 1236.66699219 230.166992188 1248 253.666992188 1248 283 c 0
1457 237 m 0
 1457 171 1433.5 115 1386.5 69 c 0
 1339.5 23 1284 0 1220 0 c 0
 826 0 l 0
 754.666992188 0 693 20.6669921875 641 62 c 0
 589 103.333007812 563 152.666992188 563 210 c 0
 563 1096 l 0
 563 1156.66699219 589.333007812 1208.83300781 642 1252.5 c 0
 694.666992188 1296.16699219 756.333007812 1318 827 1318 c 0
 1408 1318 l 0
 1408 1134 l 0
 869 1134 l 0
 843 1134 820.666992188 1125.66699219 802 1109 c 0
 783.333007812 1092.33300781 774 1071.66699219 774 1047 c 0
 774 821 l 0
 1193 821 l 0
 1267.66699219 821 1330.66699219 798 1382 752 c 0
 1433.33300781 706 1459 650 1459 584 c 0
 1457 237 l 0
EndSplineSet
EndChar

StartChar: seven
Encoding: 26 55 26
Width: 1457
VWidth: 965
Flags: HW
LayerCount: 2
Fore
SplineSet
1457 1080 m 0
 998 0 l 0
 787 0 l 0
 1246 1080 l 0
 1246 1096.66699219 1241.16699219 1109.83300781 1231.5 1119.5 c 0
 1221.83300781 1129.16699219 1208.66699219 1134 1192 1134 c 0
 761 1134 l 0
 761 1003 l 0
 550 1003 l 0
 550 1319 l 0
 1237 1319 l 0
 1297.66699219 1319 1349.66699219 1296 1393 1250 c 0
 1436.33300781 1204 1457.66699219 1147.33300781 1457 1080 c 0
EndSplineSet
EndChar

StartChar: eight
Encoding: 27 56 27
Width: 1457
VWidth: 965
Flags: HW
LayerCount: 2
Fore
SplineSet
1249 278 m 0
 1249 303 l 0
 1249 352.333007812 1228.66699219 391 1188 419 c 0
 1040 539 l 0
 853 419 l 0
 819 386.333007812 802 360 802 340 c 0
 802 263 l 0
 802 241 812.666992188 222.166992188 834 206.5 c 0
 855.333007812 190.833007812 879.666992188 183 907 183 c 0
 1146 183 l 0
 1174 183 1198.16699219 192 1218.5 210 c 0
 1238.83300781 228 1249 250.666992188 1249 278 c 0
1247 1054 m 0
 1247 1076 1241.66699219 1094.66699219 1231 1110 c 0
 1217 1124 1202.33300781 1131 1187 1131 c 0
 880 1131 l 0
 860.666992188 1131 842.666992188 1127.33300781 826 1120 c 0
 809.333007812 1112.66699219 801 1104 801 1094 c 0
 801 1050.66699219 810.333007812 1019.66699219 829 1001 c 0
 1029 833 l 0
 1213 974 l 0
 1237 986.666992188 1248.33300781 1013.33300781 1247 1054 c 0
1457 173 m 0
 1457 125.666992188 1435.33300781 85 1392 51 c 0
 1348.66699219 17 1296.66699219 0 1236 0 c 0
 842 0 l 0
 773.333007812 0 714.166992188 17.8330078125 664.5 53.5 c 0
 614.833007812 89.1669921875 590 132.333007812 590 183 c 0
 590 420 l 0
 590 444 615.666992188 478.666992188 667 524 c 0
 893 700 l 0
 695 866 l 0
 625 929.333007812 590 978.666992188 590 1014 c 0
 590 1158 l 0
 590 1202.66699219 613 1239.83300781 659 1269.5 c 0
 705 1299.16699219 760.666992188 1314 826 1314 c 0
 1237 1314 l 0
 1297.66699219 1314 1349.66699219 1298.66699219 1393 1268 c 0
 1436.33300781 1237.33300781 1458 1200.66699219 1458 1158 c 0
 1458 960 l 0
 1458 917.333007812 1432 878 1380 842 c 0
 1144 673 l 0
 1316 567 l 0
 1410.66699219 491.666992188 1458 430.666992188 1458 384 c 0
 1457 173 l 0
EndSplineSet
EndChar

StartChar: nine
Encoding: 28 57 28
Width: 1457
VWidth: 965
Flags: HW
LayerCount: 2
Fore
SplineSet
1242 682 m 0
 1242 1043 l 0
 1242 1067.66699219 1230.83300781 1088.33300781 1208.5 1105 c 0
 1186.16699219 1121.66699219 1158.66699219 1130 1126 1130 c 0
 873 1130 l 0
 844.333007812 1130 819.833007812 1121.83300781 799.5 1105.5 c 0
 779.166992188 1089.16699219 769 1068 769 1042 c 0
 769 776 l 0
 769 750 781.333007812 727.666992188 806 709 c 0
 830.666992188 690.333007812 858.333007812 681 889 681 c 0
 1242 682 l 0
1457 254 m 0
 1457 185.333007812 1428.66699219 125.833007812 1372 75.5 c 0
 1315.33300781 25.1669921875 1247.33300781 0 1168 0 c 0
 614 0 l 0
 614 184 l 0
 1088 184 l 0
 1130.66699219 184 1168.33300781 194 1201 214 c 0
 1230.33300781 234 1245 258 1245 286 c 0
 1245 500 l 0
 824 500 l 0
 752.666992188 500 691 520.833007812 639 562.5 c 0
 587 604.166992188 561 653.333007812 561 710 c 0
 561 1120 l 0
 561 1156 573.333007812 1188.66699219 598 1218 c 0
 610 1232.66699219 624.166992188 1245.5 640.5 1256.5 c 0
 656.833007812 1267.5 676.666992188 1277.66699219 700 1287 c 0
 745.333007812 1304.33300781 792 1313 840 1313 c 0
 1189 1313 l 0
 1234.33300781 1313 1279.33300781 1302 1324 1280 c 0
 1343.33300781 1270 1360.66699219 1258.33300781 1376 1245 c 0
 1391.33300781 1231.66699219 1405.33300781 1215.33300781 1418 1196 c 0
 1441.33300781 1160.66699219 1453 1120.66699219 1453 1076 c 0
 1457 254 l 0
EndSplineSet
EndChar

StartChar: colon
Encoding: 29 58 29
Width: 286
VWidth: 965
Flags: HW
LayerCount: 2
Fore
SplineSet
200.5 437 m 0
 200.5 427.666992188 198.666992188 418.833007812 195 410.5 c 0
 191.333007812 402.166992188 186.333007812 394.916992188 180 388.75 c 0
 173.666992188 382.583007812 166.25 377.666992188 157.75 374 c 0
 149.25 370.333007812 140.333007812 368.5 131 368.5 c 0
 121.333007812 368.5 112.416992188 370.333007812 104.25 374 c 0
 96.0830078125 377.666992188 88.8330078125 382.583007812 82.5 388.75 c 0
 76.1669921875 394.916992188 71.25 402.166992188 67.75 410.5 c 0
 64.25 418.833007812 62.5 427.666992188 62.5 437 c 0
 62.5 446.333007812 64.25 455.25 67.75 463.75 c 0
 71.25 472.25 76.1669921875 479.583007812 82.5 485.75 c 0
 88.8330078125 491.916992188 96.0830078125 496.833007812 104.25 500.5 c 0
 112.416992188 504.166992188 121.333007812 506 131 506 c 0
 140.333007812 506 149.25 504.166992188 157.75 500.5 c 0
 166.25 496.833007812 173.666992188 491.916992188 180 485.75 c 0
 186.333007812 479.583007812 191.333007812 472.25 195 463.75 c 0
 198.666992188 455.25 200.5 446.333007812 200.5 437 c 0
200.5 56.5 m 0
 200.5 46.8330078125 198.666992188 37.8330078125 195 29.5 c 0
 191.333007812 21.1669921875 186.333007812 13.9169921875 180 7.75 c 0
 173.666992188 1.5830078125 166.25 -3.3330078125 157.75 -7 c 0
 149.25 -10.6669921875 140.333007812 -12.5 131 -12.5 c 0
 121.333007812 -12.5 112.416992188 -10.6669921875 104.25 -7 c 0
 96.0830078125 -3.3330078125 88.8330078125 1.5830078125 82.5 7.75 c 0
 76.1669921875 13.9169921875 71.25 21.1669921875 67.75 29.5 c 0
 64.25 37.8330078125 62.5 46.8330078125 62.5 56.5 c 0
 62.5 65.8330078125 64.25 74.6669921875 67.75 83 c 0
 71.25 91.3330078125 76.1669921875 98.5830078125 82.5 104.75 c 0
 88.8330078125 110.916992188 96.0830078125 115.833007812 104.25 119.5 c 0
 112.416992188 123.166992188 121.333007812 125 131 125 c 0
 140.333007812 125 149.25 123.166992188 157.75 119.5 c 0
 166.25 115.833007812 173.666992188 110.916992188 180 104.75 c 0
 186.333007812 98.5830078125 191.333007812 91.3330078125 195 83 c 0
 198.666992188 74.6669921875 200.5 65.8330078125 200.5 56.5 c 0
EndSplineSet
EndChar

StartChar: semicolon
Encoding: 30 59 30
Width: 286
VWidth: 965
Flags: HW
LayerCount: 2
Fore
SplineSet
199.5 437 m 0
 199.5 427.666992188 197.75 418.833007812 194.25 410.5 c 0
 190.75 402.166992188 185.833007812 394.916992188 179.5 388.75 c 0
 173.166992188 382.583007812 165.833007812 377.666992188 157.5 374 c 0
 149.166992188 370.333007812 140.333007812 368.5 131 368.5 c 0
 121.333007812 368.5 112.416992188 370.333007812 104.25 374 c 0
 96.0830078125 377.666992188 88.8330078125 382.583007812 82.5 388.75 c 0
 76.1669921875 394.916992188 71.25 402.166992188 67.75 410.5 c 0
 64.25 418.833007812 62.5 427.666992188 62.5 437 c 0
 62.5 446.333007812 64.3330078125 455.25 68 463.75 c 0
 71.6669921875 472.25 76.6669921875 479.583007812 83 485.75 c 0
 89.3330078125 491.916992188 96.6669921875 496.833007812 105 500.5 c 0
 113.333007812 504.166992188 122.333007812 506 132 506 c 0
 141.333007812 506 150.166992188 504.166992188 158.5 500.5 c 0
 166.833007812 496.833007812 174 491.916992188 180 485.75 c 0
 186 479.583007812 190.75 472.25 194.25 463.75 c 0
 197.75 455.25 199.5 446.333007812 199.5 437 c 0
211 10 m 0
 211 -15.6669921875 206.083007812 -39.25 196.25 -60.75 c 0
 186.416992188 -82.25 173.25 -101.083007812 156.75 -117.25 c 0
 140.25 -133.416992188 121.333007812 -146.416992188 100 -156.25 c 0
 78.6669921875 -166.083007812 56.3330078125 -172 33 -174 c 0
 33 -137 l 0
 51 -133 67.0830078125 -127.583007812 81.25 -120.75 c 0
 95.4169921875 -113.916992188 107.25 -104.916992188 116.75 -93.75 c 0
 126.25 -82.5830078125 133.5 -68.8330078125 138.5 -52.5 c 0
 143.5 -36.1669921875 145.833007812 -16.3330078125 145.5 7 c 0
 81 7 l 0
 80.3330078125 7.6669921875 79 9.25 77 11.75 c 0
 75 14.25 72.9169921875 17.5 70.75 21.5 c 0
 68.5830078125 25.5 66.6669921875 30.25 65 35.75 c 0
 63.3330078125 41.25 62.5 47.5 62.5 54.5 c 0
 62.5 63.5 64.0830078125 72.1669921875 67.25 80.5 c 0
 70.4169921875 88.8330078125 74.8330078125 96.3330078125 80.5 103 c 0
 86.1669921875 109.666992188 92.8330078125 115 100.5 119 c 0
 108.166992188 123 116.666992188 125 126 125 c 0
 140.666992188 125 153.333007812 122.083007812 164 116.25 c 0
 174.666992188 110.416992188 183.5 102.416992188 190.5 92.25 c 0
 197.5 82.0830078125 202.666992188 69.9169921875 206 55.75 c 0
 209.333007812 41.5830078125 211 26.3330078125 211 10 c 0
EndSplineSet
EndChar

StartChar: less
Encoding: 31 60 31
Width: 1024
VWidth: 965
Flags: HW
LayerCount: 2
Fore
SplineSet
205 275.5 m 0
 205 339 l 0
 819 574.5 l 0
 819 511 l 0
 270.5 307 l 0
 819 103.5 l 0
 819 40 l 0
 205 275.5 l 0
EndSplineSet
EndChar

StartChar: equal
Encoding: 32 61 32
Width: 1024
VWidth: 965
Flags: HW
LayerCount: 2
Fore
SplineSet
205 368.5 m 0
 205 432 l 0
 819 432 l 0
 819 368.5 l 0
 205 368.5 l 0
205 182.5 m 0
 205 246 l 0
 819 246 l 0
 819 182.5 l 0
 205 182.5 l 0
EndSplineSet
EndChar

StartChar: greater
Encoding: 33 62 33
Width: 1024
VWidth: 965
Flags: HW
LayerCount: 2
Fore
SplineSet
205 40 m 0
 205 103.5 l 0
 753.5 307 l 0
 205 511 l 0
 205 574.5 l 0
 819 339 l 0
 819 275.5 l 0
 205 40 l 0
EndSplineSet
EndChar

StartChar: question
Encoding: 34 63 34
Width: 497
VWidth: 965
Flags: HW
LayerCount: 2
Fore
SplineSet
268.5 50 m 0
 268.5 41.3330078125 266.833007812 33.25 263.5 25.75 c 0
 260.166992188 18.25 255.583007812 11.6669921875 249.75 6 c 0
 243.916992188 0.3330078125 237.166992188 -4.1669921875 229.5 -7.5 c 0
 221.833007812 -10.8330078125 213.666992188 -12.5 205 -12.5 c 0
 196.333007812 -12.5 188.166992188 -10.8330078125 180.5 -7.5 c 0
 172.833007812 -4.1669921875 166.166992188 0.4169921875 160.5 6.25 c 0
 154.833007812 12.0830078125 150.416992188 18.8330078125 147.25 26.5 c 0
 144.083007812 34.1669921875 142.5 42.3330078125 142.5 51 c 0
 142.5 59.6669921875 144.083007812 67.8330078125 147.25 75.5 c 0
 150.416992188 83.1669921875 154.833007812 89.8330078125 160.5 95.5 c 0
 166.166992188 101.166992188 172.833007812 105.583007812 180.5 108.75 c 0
 188.166992188 111.916992188 196.333007812 113.5 205 113.5 c 0
 214 113.5 222.333007812 111.833007812 230 108.5 c 0
 237.666992188 105.166992188 244.333007812 100.583007812 250 94.75 c 0
 255.666992188 88.9169921875 260.166992188 82.1669921875 263.5 74.5 c 0
 266.833007812 66.8330078125 268.5 58.6669921875 268.5 50 c 0
427 520 m 0
 427 498.333007812 424 478.583007812 418 460.75 c 0
 412 442.916992188 404 426.75 394 412.25 c 0
 384 397.75 372.416992188 384.75 359.25 373.25 c 0
 346.083007812 361.75 332.333007812 351.416992188 318 342.25 c 0
 303.666992188 333.083007812 289.083007812 324.833007812 274.25 317.5 c 0
 259.416992188 310.166992188 245.5 303.666992188 232.5 298 c 0
 232.5 184.5 l 0
 175 184.5 l 0
 175 333 l 0
 191 338.333007812 207.75 345.916992188 225.25 355.75 c 0
 242.75 365.583007812 258.75 377.833007812 273.25 392.5 c 0
 287.75 407.166992188 299.75 424.416992188 309.25 444.25 c 0
 318.75 464.083007812 323.5 486.666992188 323.5 512 c 0
 323.5 559.666992188 310.833007812 595.166992188 285.5 618.5 c 0
 260.166992188 641.833007812 224 653.5 177 653.5 c 0
 135 549 l 0
 132 548.666992188 129.333007812 548.5 127 548.5 c 0
 125 548.166992188 123.166992188 548 121.5 548 c 0
 118 548 l 0
 108.666992188 548 99.9169921875 549 91.75 551 c 0
 83.5830078125 553 76.5 556.25 70.5 560.75 c 0
 64.5 565.25 59.75 571 56.25 578 c 0
 52.75 585 51 593.333007812 51 603 c 0
 51 615 54.25 627 60.75 639 c 0
 67.25 651 77.25 661.75 90.75 671.25 c 0
 104.25 680.75 121.166992188 688.5 141.5 694.5 c 0
 161.833007812 700.5 186 703.5 214 703.5 c 0
 244.333007812 703.5 272.5 699.166992188 298.5 690.5 c 0
 324.5 681.833007812 347 669.583007812 366 653.75 c 0
 385 637.916992188 399.916992188 618.666992188 410.75 596 c 0
 421.583007812 573.333007812 427 548 427 520 c 0
EndSplineSet
EndChar

StartChar: at
Encoding: 35 64 35
Width: 958
VWidth: 965
Flags: HW
LayerCount: 2
Fore
SplineSet
884.5 382 m 0
 884.5 347.333007812 880.75 315.25 873.25 285.75 c 0
 865.75 256.25 855.583007812 229.5 842.75 205.5 c 0
 829.916992188 181.5 815.083007812 160.25 798.25 141.75 c 0
 781.416992188 123.25 763.75 107.75 745.25 95.25 c 0
 726.75 82.75 708 73.3330078125 689 67 c 0
 670 60.6669921875 652 57.5 635 57.5 c 0
 606.666992188 57.5 586.25 64.5830078125 573.75 78.75 c 0
 561.25 92.9169921875 555 114.166992188 555 142.5 c 0
 528.333007812 115.5 502.916992188 94.75 478.75 80.25 c 0
 454.583007812 65.75 430.5 58.5 406.5 58.5 c 0
 387.833007812 58.5 370.666992188 62.4169921875 355 70.25 c 0
 339.333007812 78.0830078125 325.833007812 89.25 314.5 103.75 c 0
 303.166992188 118.25 294.333007812 135.75 288 156.25 c 0
 281.666992188 176.75 278.5 199.833007812 278.5 225.5 c 0
 278.5 264.5 285.75 301 300.25 335 c 0
 314.75 369 333.916992188 398.5 357.75 423.5 c 0
 381.583007812 448.5 408.75 468.166992188 439.25 482.5 c 0
 469.75 496.833007812 501.166992188 504 533.5 504 c 0
 540.833007812 504 548.833007812 503.333007812 557.5 502 c 0
 566.166992188 500.666992188 574.916992188 498.75 583.75 496.25 c 0
 592.583007812 493.75 601.25 490.75 609.75 487.25 c 0
 618.25 483.75 626.333007812 480 634 476 c 0
 652.5 499.5 l 0
 709.5 499.5 l 0
 708.833007812 497.5 707.333007812 491.583007812 705 481.75 c 0
 702.666992188 471.916992188 699.833007812 459.75 696.5 445.25 c 0
 693.166992188 430.75 689.416992188 414.416992188 685.25 396.25 c 0
 681.083007812 378.083007812 677 359.833007812 673 341.5 c 0
 663 298.166992188 652 249.5 640 195.5 c 0
 637 183.833007812 635.5 173.083007812 635.5 163.25 c 0
 635.5 153.416992188 637 145 640 138 c 0
 643 131 647.666992188 125.5 654 121.5 c 0
 660.333007812 117.5 668.333007812 115.5 678 115.5 c 0
 693 115.5 709.666992188 121.666992188 728 134 c 0
 746.333007812 146.333007812 763.333007812 164 779 187 c 0
 794.666992188 210 807.833007812 237.916992188 818.5 270.75 c 0
 829.166992188 303.583007812 834.5 340.333007812 834.5 381 c 0
 834.5 429 826.333007812 470.666992188 810 506 c 0
 793.666992188 541.333007812 772.083007812 570.583007812 745.25 593.75 c 0
 718.416992188 616.916992188 687.833007812 634.166992188 653.5 645.5 c 0
 619.166992188 656.833007812 584 662.5 548 662.5 c 0
 509 662.5 472.083007812 657.916992188 437.25 648.75 c 0
 402.416992188 639.583007812 370.25 626.583007812 340.75 609.75 c 0
 311.25 592.916992188 284.583007812 572.5 260.75 548.5 c 0
 236.916992188 524.5 216.75 497.666992188 200.25 468 c 0
 183.75 438.333007812 171 406.25 162 371.75 c 0
 153 337.25 148.5 301 148.5 263 c 0
 148.5 211 156.583007812 162.5 172.75 117.5 c 0
 188.916992188 72.5 212.333007812 33.5 243 0.5 c 0
 273.666992188 -32.5 311.166992188 -58.4169921875 355.5 -77.25 c 0
 399.833007812 -96.0830078125 450.333007812 -105.5 507 -105.5 c 0
 537 -105.5 565 -103.166992188 591 -98.5 c 0
 617 -93.8330078125 641.166992188 -87.8330078125 663.5 -80.5 c 0
 685.833007812 -73.1669921875 706.416992188 -65 725.25 -56 c 0
 744.083007812 -47 761.333007812 -38.1669921875 777 -29.5 c 0
 791.5 -66.5 l 0
 768.5 -78.8330078125 745 -90.4169921875 721 -101.25 c 0
 697 -112.083007812 672.25 -121.583007812 646.75 -129.75 c 0
 621.25 -137.916992188 594.916992188 -144.416992188 567.75 -149.25 c 0
 540.583007812 -154.083007812 512.166992188 -156.5 482.5 -156.5 c 0
 445.833007812 -156.5 410.333007812 -152.333007812 376 -144 c 0
 341.666992188 -135.666992188 309.416992188 -123.583007812 279.25 -107.75 c 0
 249.083007812 -91.9169921875 221.5 -72.4169921875 196.5 -49.25 c 0
 171.5 -26.0830078125 150 0.3330078125 132 30 c 0
 114 59.6669921875 100 92.5 90 128.5 c 0
 80 164.5 75 203.166992188 75 244.5 c 0
 75 295.166992188 81.0830078125 341.75 93.25 384.25 c 0
 105.416992188 426.75 122.166992188 465.166992188 143.5 499.5 c 0
 164.833007812 533.833007812 190.083007812 564 219.25 590 c 0
 248.416992188 616 280 637.666992188 314 655 c 0
 348 672.333007812 383.75 685.416992188 421.25 694.25 c 0
 458.75 703.083007812 496.5 707.5 534.5 707.5 c 0
 585.166992188 707.5 631.916992188 700.416992188 674.75 686.25 c 0
 717.583007812 672.083007812 754.5 651.25 785.5 623.75 c 0
 816.5 596.25 840.75 562.25 858.25 521.75 c 0
 875.75 481.25 884.5 434.666992188 884.5 382 c 0
598 402.5 m 0
 599 406.833007812 598.166992188 412.333007812 595.5 419 c 0
 592.833007812 425.666992188 588.75 432.083007812 583.25 438.25 c 0
 577.75 444.416992188 571.083007812 449.75 563.25 454.25 c 0
 555.416992188 458.75 546.833007812 461 537.5 461 c 0
 512.166992188 461 489.333007812 455.083007812 469 443.25 c 0
 448.666992188 431.416992188 431.333007812 415.25 417 394.75 c 0
 402.666992188 374.25 391.666992188 350.25 384 322.75 c 0
 376.333007812 295.25 372.5 265.833007812 372.5 234.5 c 0
 372.5 197.5 379.416992188 169.833007812 393.25 151.5 c 0
 407.083007812 133.166992188 426.833007812 124 452.5 124 c 0
 463.833007812 124 474.666992188 126.25 485 130.75 c 0
 495.333007812 135.25 504.916992188 140.833007812 513.75 147.5 c 0
 522.583007812 154.166992188 530.666992188 161.333007812 538 169 c 0
 545.333007812 176.666992188 551.666992188 183.833007812 557 190.5 c 0
 598 402.5 l 0
EndSplineSet
EndChar

StartChar: A
Encoding: 36 65 36
Width: 690
VWidth: 965
Flags: HW
LayerCount: 2
Fore
SplineSet
441.5 0 m 0
 441.5 44 l 0
 500.5 49 l 0
 503.833007812 49 506.666992188 51.25 509 55.75 c 0
 511.333007812 60.25 512 63.8330078125 511 66.5 c 0
 440.5 254 l 0
 204 254 l 0
 136 69.5 l 0
 135.333007812 67.5 135.333007812 65.3330078125 136 63 c 0
 136.666992188 60.6669921875 137.833007812 58.4169921875 139.5 56.25 c 0
 141.166992188 54.0830078125 143 52.3330078125 145 51 c 0
 147 49.6669921875 148.833007812 49 150.5 49 c 0
 211 44 l 0
 211 0 l 0
 5 0 l 0
 5 44 l 0
 64.5 56.5 l 0
 303 703.5 l 0
 380 703.5 l 0
 617.5 71.5 l 0
 619.833007812 64.5 622.083007812 59.8330078125 624.25 57.5 c 0
 626.416992188 55.1669921875 631.333007812 53.3330078125 639 52 c 0
 685 44 l 0
 685 0 l 0
 441.5 0 l 0
321.5 571.5 m 0
 222 303 l 0
 422 303 l 0
 321.5 571.5 l 0
EndSplineSet
EndChar

StartChar: B
Encoding: 37 66 37
Width: 619
VWidth: 965
Flags: HW
LayerCount: 2
Fore
SplineSet
427 515 m 0
 427 555.333007812 414 586.25 388 607.75 c 0
 362 629.25 322.5 640 269.5 640 c 0
 264.166992188 640 258.416992188 639.833007812 252.25 639.5 c 0
 246.083007812 639.166992188 240.25 638.833007812 234.75 638.5 c 0
 229.25 638.166992188 224.333007812 637.833007812 220 637.5 c 0
 215.666992188 637.166992188 212.666992188 637 211 637 c 0
 211 378 l 0
 215.666992188 377.666992188 220.333007812 377.5 225 377.5 c 0
 229 377.166992188 233 377 237 377 c 0
 248 377 l 0
 281.333007812 377 309.416992188 380.083007812 332.25 386.25 c 0
 355.083007812 392.416992188 373.5 401.333007812 387.5 413 c 0
 401.5 424.666992188 411.583007812 439.083007812 417.75 456.25 c 0
 423.916992188 473.416992188 427 493 427 515 c 0
468 194.5 m 0
 468 241.166992188 454.166992188 275.333007812 426.5 297 c 0
 398.833007812 318.666992188 357.666992188 329.5 303 329.5 c 0
 294.666992188 329.5 285.416992188 329.166992188 275.25 328.5 c 0
 265.083007812 327.833007812 255.5 327.166992188 246.5 326.5 c 0
 237.5 325.833007812 229.666992188 325.166992188 223 324.5 c 0
 216.333007812 323.833007812 212.333007812 323.5 211 323.5 c 0
 211 53 l 0
 219.333007812 52.3330078125 227.5 51.8330078125 235.5 51.5 c 0
 242.166992188 50.8330078125 249.083007812 50.4169921875 256.25 50.25 c 0
 263.416992188 50.0830078125 269.5 50 274.5 50 c 0
 310.5 50 340.75 53 365.25 59 c 0
 389.75 65 409.666992188 74 425 86 c 0
 440.333007812 98 451.333007812 113 458 131 c 0
 464.666992188 149 468 170.166992188 468 194.5 c 0
579.5 203 m 0
 579.5 175.333007812 575.583007812 151.083007812 567.75 130.25 c 0
 559.916992188 109.416992188 549.333007812 91.5 536 76.5 c 0
 522.666992188 61.5 507.25 49.0830078125 489.75 39.25 c 0
 472.25 29.4169921875 453.916992188 21.5830078125 434.75 15.75 c 0
 415.583007812 9.9169921875 396.083007812 5.8330078125 376.25 3.5 c 0
 356.416992188 1.1669921875 337.5 0 319.5 0 c 0
 33 0 l 0
 33 44 l 0
 87 48 l 0
 94.3330078125 48.6669921875 99.75 51.3330078125 103.25 56 c 0
 106.75 60.6669921875 108.5 65.5 108.5 70.5 c 0
 108.5 616.5 l 0
 108.5 621.5 106.75 626.333007812 103.25 631 c 0
 99.75 635.666992188 94.3330078125 638.333007812 87 639 c 0
 33 643 l 0
 33 687 l 0
 307 687 l 0
 347.666992188 687 382.583007812 683.25 411.75 675.75 c 0
 440.916992188 668.25 464.833007812 657.333007812 483.5 643 c 0
 502.166992188 628.666992188 515.833007812 611.333007812 524.5 591 c 0
 533.166992188 570.666992188 537.5 547.666992188 537.5 522 c 0
 537.5 496.333007812 532.666992188 474.5 523 456.5 c 0
 513.333007812 438.5 501.166992188 423.333007812 486.5 411 c 0
 471.833007812 398.666992188 455.833007812 388.833007812 438.5 381.5 c 0
 421.166992188 374.166992188 405 368.5 390 364.5 c 0
 413 364.5 435.75 361.75 458.25 356.25 c 0
 480.75 350.75 501 341.666992188 519 329 c 0
 537 316.333007812 551.583007812 299.666992188 562.75 279 c 0
 573.916992188 258.333007812 579.5 233 579.5 203 c 0
EndSplineSet
EndChar

StartChar: C
Encoding: 38 67 38
Width: 642
VWidth: 965
Flags: HW
LayerCount: 2
Fore
SplineSet
602 23.5 m 0
 600.666992188 22.8330078125 594.166992188 20.4169921875 582.5 16.25 c 0
 570.833007812 12.0830078125 555.666992188 7.5830078125 537 2.75 c 0
 518.333007812 -2.0830078125 496.916992188 -6.5 472.75 -10.5 c 0
 448.583007812 -14.5 423.5 -16.5 397.5 -16.5 c 0
 359.166992188 -16.5 323.75 -11.9169921875 291.25 -2.75 c 0
 258.75 6.4169921875 229.25 19.1669921875 202.75 35.5 c 0
 176.25 51.8330078125 152.916992188 71.3330078125 132.75 94 c 0
 112.583007812 116.666992188 95.5830078125 141.333007812 81.75 168 c 0
 67.9169921875 194.666992188 57.5 223 50.5 253 c 0
 43.5 283 40 313.666992188 40 345 c 0
 40 398 48.6669921875 446.5 66 490.5 c 0
 83.3330078125 534.5 107.666992188 572.25 139 603.75 c 0
 170.333007812 635.25 208 659.75 252 677.25 c 0
 296 694.75 344.833007812 703.5 398.5 703.5 c 0
 415.166992188 703.5 431.25 702.583007812 446.75 700.75 c 0
 462.25 698.916992188 478 696.333007812 494 693 c 0
 510 689.666992188 526.833007812 685.5 544.5 680.5 c 0
 562.166992188 675.5 581.333007812 669.833007812 602 663.5 c 0
 602 503 l 0
 540.5 503 l 0
 525.5 596 l 0
 524.833007812 600.666992188 522.5 605.333007812 518.5 610 c 0
 514.5 614.666992188 511 617.833007812 508 619.5 c 0
 504 621.166992188 498.75 623.5 492.25 626.5 c 0
 485.75 629.5 478 632.416992188 469 635.25 c 0
 460 638.083007812 450 640.583007812 439 642.75 c 0
 428 644.916992188 416.166992188 646 403.5 646 c 0
 368.5 646 336 639.5 306 626.5 c 0
 276 613.5 250 594.333007812 228 569 c 0
 206 543.666992188 188.75 512.25 176.25 474.75 c 0
 163.75 437.25 157.5 394 157.5 345 c 0
 157.5 297.333007812 163.416992188 254.666992188 175.25 217 c 0
 187.083007812 179.333007812 204.166992188 147.333007812 226.5 121 c 0
 248.833007812 94.6669921875 276 74.5830078125 308 60.75 c 0
 340 46.9169921875 376.333007812 40 417 40 c 0
 429 40 439.916992188 40.8330078125 449.75 42.5 c 0
 459.583007812 44.1669921875 468.166992188 46.0830078125 475.5 48.25 c 0
 482.833007812 50.4169921875 488.5 52.4169921875 492.5 54.25 c 0
 496.5 56.0830078125 498.833007812 57.1669921875 499.5 57.5 c 0
 504.833007812 59.5 509.166992188 62.3330078125 512.5 66 c 0
 515.833007812 69.6669921875 518 73.6669921875 519 78 c 0
 542.5 189.5 l 0
 602 189.5 l 0
 602 23.5 l 0
EndSplineSet
EndChar

StartChar: D
Encoding: 39 68 39
Width: 712
VWidth: 965
Flags: HW
LayerCount: 2
Fore
SplineSet
673 345 m 0
 673 315 670.166992188 285.75 664.5 257.25 c 0
 658.833007812 228.75 650 201.666992188 638 176 c 0
 626 150.333007812 610.583007812 126.75 591.75 105.25 c 0
 572.916992188 83.75 550.333007812 65.1669921875 524 49.5 c 0
 497.666992188 33.8330078125 467.416992188 21.6669921875 433.25 13 c 0
 399.083007812 4.3330078125 360.5 0 317.5 0 c 0
 33 0 l 0
 33 44 l 0
 87 48 l 0
 94.3330078125 48.6669921875 99.9169921875 51.3330078125 103.75 56 c 0
 107.583007812 60.6669921875 109.5 65.5 109.5 70.5 c 0
 109.5 616.5 l 0
 109.5 621.5 107.583007812 626.333007812 103.75 631 c 0
 99.9169921875 635.666992188 94.3330078125 638.333007812 87 639 c 0
 33 643 l 0
 33 687 l 0
 297 687 l 0
 350.666992188 687 400.5 680.25 446.5 666.75 c 0
 492.5 653.25 532.25 632.5 565.75 604.5 c 0
 599.25 576.5 625.5 541 644.5 498 c 0
 663.5 455 673 404 673 345 c 0
557 343 m 0
 557 396.666992188 550.75 442.25 538.25 479.75 c 0
 525.75 517.25 507.916992188 547.75 484.75 571.25 c 0
 461.583007812 594.75 433.583007812 611.75 400.75 622.25 c 0
 367.916992188 632.75 331.333007812 638 291 638 c 0
 213 638 l 0
 213 49 l 0
 296 50 l 0
 335.333007812 50.3330078125 371.083007812 55.9169921875 403.25 66.75 c 0
 435.416992188 77.5830078125 462.833007812 94.6669921875 485.5 118 c 0
 508.166992188 141.333007812 525.75 171.5 538.25 208.5 c 0
 550.75 245.5 557 290.333007812 557 343 c 0
EndSplineSet
EndChar

StartChar: E
Encoding: 40 69 40
Width: 597
VWidth: 965
Flags: HW
LayerCount: 2
Fore
SplineSet
33 0 m 0
 33 44 l 0
 86 48 l 0
 93.3330078125 48.6669921875 98.9169921875 51.3330078125 102.75 56 c 0
 106.583007812 60.6669921875 108.5 65.5 108.5 70.5 c 0
 108.5 616.5 l 0
 108.5 621.5 106.583007812 626.333007812 102.75 631 c 0
 98.9169921875 635.666992188 93.3330078125 638.333007812 86 639 c 0
 33 643 l 0
 33 687 l 0
 530.5 687 l 0
 530.5 534.5 l 0
 469 534.5 l 0
 453.5 618.5 l 0
 452.833007812 623.5 450.75 628 447.25 632 c 0
 443.75 636 439.666992188 638 435 638 c 0
 213 638 l 0
 213 383 l 0
 366.5 383 l 0
 371.166992188 383 375.416992188 385 379.25 389 c 0
 383.083007812 393 385 396.833007812 385 400.5 c 0
 395.5 471 l 0
 447.5 471 l 0
 447.5 242.5 l 0
 395.5 242.5 l 0
 385 313.5 l 0
 385 317.166992188 383 321.166992188 379 325.5 c 0
 375 329.833007812 370.833007812 332 366.5 332 c 0
 213 332 l 0
 213 50 l 0
 472 50 l 0
 476.333007812 50 480.333007812 52.3330078125 484 57 c 0
 487.666992188 61.6669921875 489.833007812 65.8330078125 490.5 69.5 c 0
 509 171 l 0
 564 171 l 0
 564 0 l 0
 33 0 l 0
EndSplineSet
EndChar

StartChar: F
Encoding: 41 70 41
Width: 554
VWidth: 965
Flags: HW
LayerCount: 2
Fore
SplineSet
463 524.5 m 0
 448.5 618.5 l 0
 447.5 623.5 445.5 627.833007812 442.5 631.5 c 0
 439.5 635.166992188 435.666992188 637 431 637 c 0
 213 637 l 0
 213 370.5 l 0
 369.5 370.5 l 0
 374.166992188 370.5 378.25 372.666992188 381.75 377 c 0
 385.25 381.333007812 387.333007812 385.333007812 388 389 c 0
 397.5 461 l 0
 448.5 461 l 0
 448.5 230.5 l 0
 397.5 230.5 l 0
 388 302 l 0
 387.333007812 305.666992188 385.166992188 309.666992188 381.5 314 c 0
 377.833007812 318.333007812 373.833007812 320.5 369.5 320.5 c 0
 213 320.5 l 0
 213 70.5 l 0
 213 65.5 214.75 60.6669921875 218.25 56 c 0
 221.75 51.3330078125 227.166992188 48.6669921875 234.5 48 c 0
 303 44 l 0
 303 0 l 0
 34 0 l 0
 34 44 l 0
 88 48 l 0
 95.3330078125 48.6669921875 100.75 51.3330078125 104.25 56 c 0
 107.75 60.6669921875 109.5 65.5 109.5 70.5 c 0
 109.5 616.5 l 0
 109.5 621.5 107.75 626.333007812 104.25 631 c 0
 100.75 635.666992188 95.3330078125 638.333007812 88 639 c 0
 25.5 643 l 0
 25.5 687 l 0
 523.5 687 l 0
 523.5 524.5 l 0
 463 524.5 l 0
EndSplineSet
EndChar

StartChar: G
Encoding: 42 71 42
Width: 711
VWidth: 965
Flags: HW
LayerCount: 2
Fore
SplineSet
634 282.5 m 0
 626.666992188 281.833007812 621.25 279.416992188 617.75 275.25 c 0
 614.25 271.083007812 612.5 266.333007812 612.5 261 c 0
 612.5 24.5 l 0
 591.833007812 16.8330078125 569.833007812 10 546.5 4 c 0
 526.5 -1.3330078125 503.583007812 -6.0830078125 477.75 -10.25 c 0
 451.916992188 -14.4169921875 425.166992188 -16.5 397.5 -16.5 c 0
 359.5 -16.5 324.25 -12 291.75 -3 c 0
 259.25 6 229.75 18.6669921875 203.25 35 c 0
 176.75 51.3330078125 153.333007812 70.75 133 93.25 c 0
 112.666992188 115.75 95.5830078125 140.333007812 81.75 167 c 0
 67.9169921875 193.666992188 57.5 222.083007812 50.5 252.25 c 0
 43.5 282.416992188 40 313.333007812 40 345 c 0
 40 398.666992188 48.5 447.583007812 65.5 491.75 c 0
 82.5 535.916992188 107 573.666992188 139 605 c 0
 171 636.333007812 209.916992188 660.583007812 255.75 677.75 c 0
 301.583007812 694.916992188 353.166992188 703.5 410.5 703.5 c 0
 429.833007812 703.5 448.25 702.416992188 465.75 700.25 c 0
 483.25 698.083007812 500.166992188 695.333007812 516.5 692 c 0
 532.833007812 688.666992188 548.833007812 684.916992188 564.5 680.75 c 0
 580.166992188 676.583007812 595.833007812 672.5 611.5 668.5 c 0
 611.5 503 l 0
 550 503 l 0
 533.5 595 l 0
 532.5 601 530 606.083007812 526 610.25 c 0
 522 614.416992188 517.666992188 617.5 513 619.5 c 0
 508 621.5 501.916992188 624 494.75 627 c 0
 487.583007812 630 479.5 632.916992188 470.5 635.75 c 0
 461.5 638.583007812 451.583007812 641 440.75 643 c 0
 429.916992188 645 418.5 646 406.5 646 c 0
 369.5 646 335.666992188 639.5 305 626.5 c 0
 274.333007812 613.5 248 594.5 226 569.5 c 0
 204 544.5 186.916992188 513.583007812 174.75 476.75 c 0
 162.583007812 439.916992188 156.5 397.666992188 156.5 350 c 0
 156.5 301 162.666992188 257.333007812 175 219 c 0
 187.333007812 180.666992188 204.916992188 148.333007812 227.75 122 c 0
 250.583007812 95.6669921875 278.166992188 75.5830078125 310.5 61.75 c 0
 342.833007812 47.9169921875 379 41 419 41 c 0
 430.333007812 41 441.166992188 41.8330078125 451.5 43.5 c 0
 461.833007812 45.1669921875 471 46.9169921875 479 48.75 c 0
 487 50.5830078125 493.666992188 52.3330078125 499 54 c 0
 504.333007812 55.6669921875 507.666992188 56.5 509 56.5 c 0
 509 261 l 0
 509 266.333007812 507.25 271.083007812 503.75 275.25 c 0
 500.25 279.416992188 494.833007812 281.833007812 487.5 282.5 c 0
 419 287.5 l 0
 419 332 l 0
 686 332 l 0
 686 287.5 l 0
 634 282.5 l 0
EndSplineSet
EndChar

StartChar: H
Encoding: 43 72 43
Width: 761
VWidth: 965
Flags: HW
LayerCount: 2
Fore
SplineSet
469 0 m 0
 469 44 l 0
 527.5 48 l 0
 534.5 48.6669921875 539.833007812 51.3330078125 543.5 56 c 0
 547.166992188 60.6669921875 549 65.5 549 70.5 c 0
 549 335 l 0
 212 335 l 0
 212 70.5 l 0
 212 65.5 213.75 60.6669921875 217.25 56 c 0
 220.75 51.3330078125 226.166992188 48.6669921875 233.5 48 c 0
 292 44 l 0
 292 0 l 0
 33 0 l 0
 33 44 l 0
 86 48 l 0
 93.3330078125 48.6669921875 98.9169921875 51.3330078125 102.75 56 c 0
 106.583007812 60.6669921875 108.5 65.5 108.5 70.5 c 0
 108.5 616.5 l 0
 108.5 621.5 106.583007812 626.166992188 102.75 630.5 c 0
 98.9169921875 634.833007812 93.3330078125 637.333007812 86 638 c 0
 33 642 l 0
 33 687 l 0
 292 687 l 0
 292 642 l 0
 233.5 638 l 0
 226.166992188 637.333007812 220.75 634.833007812 217.25 630.5 c 0
 213.75 626.166992188 212 621.5 212 616.5 c 0
 212 386 l 0
 549 386 l 0
 549 616.5 l 0
 549 621.5 547.166992188 626.166992188 543.5 630.5 c 0
 539.833007812 634.833007812 534.5 637.333007812 527.5 638 c 0
 469 642 l 0
 469 687 l 0
 728 687 l 0
 728 642 l 0
 675 638 l 0
 667.666992188 637.333007812 662.083007812 634.833007812 658.25 630.5 c 0
 654.416992188 626.166992188 652.5 621.5 652.5 616.5 c 0
 652.5 70.5 l 0
 652.5 65.5 654.416992188 60.6669921875 658.25 56 c 0
 662.083007812 51.3330078125 667.666992188 48.6669921875 675 48 c 0
 728 44 l 0
 728 0 l 0
 469 0 l 0
EndSplineSet
EndChar

StartChar: I
Encoding: 44 73 44
Width: 338
VWidth: 965
Flags: HW
LayerCount: 2
Fore
SplineSet
34 0 m 0
 34 44 l 0
 95 48 l 0
 102.333007812 48.6669921875 107.75 51.3330078125 111.25 56 c 0
 114.75 60.6669921875 116.5 65.5 116.5 70.5 c 0
 116.5 616.5 l 0
 116.5 621.5 114.75 626.166992188 111.25 630.5 c 0
 107.75 634.833007812 102.333007812 637.333007812 95 638 c 0
 34 642 l 0
 34 687 l 0
 304 687 l 0
 304 642 l 0
 241.5 638 l 0
 234.5 637.333007812 229.166992188 634.833007812 225.5 630.5 c 0
 221.833007812 626.166992188 220 621.5 220 616.5 c 0
 220 70.5 l 0
 220 65.5 221.833007812 60.6669921875 225.5 56 c 0
 229.166992188 51.3330078125 234.5 48.6669921875 241.5 48 c 0
 304 44 l 0
 304 0 l 0
 34 0 l 0
EndSplineSet
EndChar

StartChar: J
Encoding: 45 74 45
Width: 496
VWidth: 965
Flags: HW
LayerCount: 2
Fore
SplineSet
410.5 639 m 0
 403.5 638.333007812 398.166992188 635.666992188 394.5 631 c 0
 390.833007812 626.333007812 389 621.5 389 616.5 c 0
 389 259 l 0
 389 216.333007812 385 178 377 144 c 0
 369 110 356.166992188 81.1669921875 338.5 57.5 c 0
 320.833007812 33.8330078125 297.666992188 15.5830078125 269 2.75 c 0
 240.333007812 -10.0830078125 205.333007812 -16.5 164 -16.5 c 0
 147.333007812 -16.5 131 -15.0830078125 115 -12.25 c 0
 99 -9.4169921875 84.6669921875 -6.25 72 -2.75 c 0
 59.3330078125 0.75 48.75 4 40.25 7 c 0
 31.75 10 26.8330078125 11.8330078125 25.5 12.5 c 0
 25.5 187.5 l 0
 87 187.5 l 0
 109.5 62.5 l 0
 110.5 57.5 112.583007812 53.25 115.75 49.75 c 0
 118.916992188 46.25 122.666992188 43.5 127 41.5 c 0
 131.333007812 39.5 136.083007812 38.0830078125 141.25 37.25 c 0
 146.416992188 36.4169921875 151.5 36 156.5 36 c 0
 179.833007812 36 199.666992188 40.5 216 49.5 c 0
 232.333007812 58.5 245.666992188 72 256 90 c 0
 266.333007812 108 273.833007812 130.5 278.5 157.5 c 0
 283.166992188 184.5 285.5 216 285.5 252 c 0
 285.5 616.5 l 0
 285.5 621.5 283.75 626.333007812 280.25 631 c 0
 276.75 635.666992188 271.333007812 638.333007812 264 639 c 0
 199.5 643 l 0
 199.5 687 l 0
 470 687 l 0
 470 643 l 0
 410.5 639 l 0
EndSplineSet
EndChar

StartChar: K
Encoding: 46 75 46
Width: 653
VWidth: 965
Flags: HW
LayerCount: 2
Fore
SplineSet
474 0 m 0
 474 31.5 l 0
 283.5 305 l 0
 212 305 l 0
 212 70.5 l 0
 212 65.5 213.916992188 60.6669921875 217.75 56 c 0
 221.583007812 51.3330078125 227.166992188 48.6669921875 234.5 48 c 0
 293 44 l 0
 293 0 l 0
 33 0 l 0
 33 44 l 0
 87 48 l 0
 94.3330078125 48.6669921875 99.75 51.3330078125 103.25 56 c 0
 106.75 60.6669921875 108.5 65.5 108.5 70.5 c 0
 108.5 616.5 l 0
 108.5 621.5 106.75 626.333007812 103.25 631 c 0
 99.75 635.666992188 94.3330078125 638.333007812 87 639 c 0
 33 643 l 0
 33 687 l 0
 293 687 l 0
 293 643 l 0
 234.5 639 l 0
 227.166992188 638.333007812 221.583007812 635.666992188 217.75 631 c 0
 213.916992188 626.333007812 212 621.5 212 616.5 c 0
 212 348 l 0
 249 348 l 0
 472 620.5 l 0
 474.333007812 623.5 474.416992188 627 472.25 631 c 0
 470.083007812 635 467.333007812 637.333007812 464 638 c 0
 411.5 643 l 0
 411.5 687 l 0
 628.5 687 l 0
 628.5 643 l 0
 616.5 642 605.666992188 640.833007812 596 639.5 c 0
 587.666992188 638.5 579.833007812 637.583007812 572.5 636.75 c 0
 565.166992188 635.916992188 560.666992188 635.333007812 559 635 c 0
 350 385 l 0
 579.5 49 l 0
 653.5 44 l 0
 653.5 0 l 0
 474 0 l 0
EndSplineSet
EndChar

StartChar: L
Encoding: 47 76 47
Width: 543
VWidth: 965
Flags: HW
LayerCount: 2
Fore
SplineSet
27.5 0 m 0
 27.5 44 l 0
 87 48 l 0
 94.3330078125 48.6669921875 99.75 51.3330078125 103.25 56 c 0
 106.75 60.6669921875 108.5 65.5 108.5 70.5 c 0
 108.5 616.5 l 0
 108.5 621.5 106.75 626.333007812 103.25 631 c 0
 99.75 635.666992188 94.3330078125 638.333007812 87 639 c 0
 27.5 643 l 0
 27.5 687 l 0
 289 687 l 0
 289 643 l 0
 234.5 639 l 0
 227.166992188 638.333007812 221.583007812 635.666992188 217.75 631 c 0
 213.916992188 626.333007812 212 621.5 212 616.5 c 0
 212 50 l 0
 427 50 l 0
 431.666992188 50 436.416992188 51.75 441.25 55.25 c 0
 446.083007812 58.75 448.833007812 62.8330078125 449.5 67.5 c 0
 466 190.5 l 0
 525.5 190.5 l 0
 525.5 0 l 0
 27.5 0 l 0
EndSplineSet
EndChar

StartChar: M
Encoding: 48 77 48
Width: 897
VWidth: 965
Flags: HW
LayerCount: 2
Fore
SplineSet
607 0 m 0
 607 44 l 0
 661.5 48 l 0
 668.833007812 48.6669921875 674.416992188 51.3330078125 678.25 56 c 0
 682.083007812 60.6669921875 684 65.5 684 70.5 c 0
 684 635 l 0
 448.5 0 l 0
 397.5 0 l 0
 170 625.5 l 0
 170 70.5 l 0
 170 65.5 171.916992188 60.6669921875 175.75 56 c 0
 179.583007812 51.3330078125 185.166992188 48.6669921875 192.5 48 c 0
 251 44 l 0
 251 0 l 0
 29.5 0 l 0
 29.5 44 l 0
 88 48 l 0
 95.3330078125 48.6669921875 100.75 51.3330078125 104.25 56 c 0
 107.75 60.6669921875 109.5 65.5 109.5 70.5 c 0
 109.5 616.5 l 0
 109.5 621.5 107.75 626.333007812 104.25 631 c 0
 100.75 635.666992188 95.3330078125 638.333007812 88 639 c 0
 29.5 643 l 0
 29.5 687 l 0
 259 687 l 0
 259 659.5 l 0
 444.5 156.5 l 0
 630 656.5 l 0
 630 687 l 0
 865.5 687 l 0
 865.5 643 l 0
 810 639 l 0
 802.666992188 638.333007812 797.083007812 635.666992188 793.25 631 c 0
 789.416992188 626.333007812 787.5 621.5 787.5 616.5 c 0
 787.5 70.5 l 0
 787.5 65.5 789.416992188 60.6669921875 793.25 56 c 0
 797.083007812 51.3330078125 802.666992188 48.6669921875 810 48 c 0
 865.5 44 l 0
 865.5 0 l 0
 607 0 l 0
EndSplineSet
EndChar

StartChar: N
Encoding: 49 78 49
Width: 738
VWidth: 965
Flags: HW
LayerCount: 2
Fore
SplineSet
651.5 639 m 0
 644.166992188 638.333007812 638.75 635.666992188 635.25 631 c 0
 631.75 626.333007812 630 621.5 630 616.5 c 0
 630 0 l 0
 550 0 l 0
 169 573.5 l 0
 169 70.5 l 0
 169 65.5 170.75 60.6669921875 174.25 56 c 0
 177.75 51.3330078125 183.166992188 48.6669921875 190.5 48 c 0
 249 44 l 0
 249 0 l 0
 27.5 0 l 0
 27.5 44 l 0
 86 48 l 0
 93.3330078125 48.6669921875 98.9169921875 51.3330078125 102.75 56 c 0
 106.583007812 60.6669921875 108.5 65.5 108.5 70.5 c 0
 108.5 616.5 l 0
 108.5 621.5 106.583007812 626.333007812 102.75 631 c 0
 98.9169921875 635.666992188 93.3330078125 638.333007812 86 639 c 0
 25.5 643 l 0
 25.5 687 l 0
 228.5 687 l 0
 228.5 661.5 l 0
 569.5 146.5 l 0
 569.5 616.5 l 0
 569.5 621.5 567.666992188 626.333007812 564 631 c 0
 560.333007812 635.666992188 555 638.333007812 548 639 c 0
 489.5 643 l 0
 489.5 687 l 0
 708.5 687 l 0
 708.5 643 l 0
 651.5 639 l 0
EndSplineSet
EndChar

StartChar: O
Encoding: 50 79 50
Width: 748
VWidth: 965
Flags: HW
LayerCount: 2
Fore
SplineSet
708.5 343 m 0
 708.5 293.333007812 700.5 246.666992188 684.5 203 c 0
 668.5 159.333007812 645.916992188 121.25 616.75 88.75 c 0
 587.583007812 56.25 552.5 30.5830078125 511.5 11.75 c 0
 470.5 -7.0830078125 425 -16.5 375 -16.5 c 0
 324.666992188 -16.5 278.916992188 -7.4169921875 237.75 10.75 c 0
 196.583007812 28.9169921875 161.333007812 54.1669921875 132 86.5 c 0
 102.666992188 118.833007812 80 156.916992188 64 200.75 c 0
 48 244.583007812 40 292.333007812 40 344 c 0
 40 394 47.8330078125 440.833007812 63.5 484.5 c 0
 79.1669921875 528.166992188 101.5 566.25 130.5 598.75 c 0
 159.5 631.25 194.583007812 656.833007812 235.75 675.5 c 0
 276.916992188 694.166992188 323 703.5 374 703.5 c 0
 424.666992188 703.5 470.583007812 694 511.75 675 c 0
 552.916992188 656 588.083007812 630.166992188 617.25 597.5 c 0
 646.416992188 564.833007812 668.916992188 526.666992188 684.75 483 c 0
 700.583007812 439.333007812 708.5 392.666992188 708.5 343 c 0
590 342 m 0
 590 383.666992188 585.5 422.916992188 576.5 459.75 c 0
 567.5 496.583007812 554 528.75 536 556.25 c 0
 518 583.75 495.583007812 605.416992188 468.75 621.25 c 0
 441.916992188 637.083007812 410.666992188 645 375 645 c 0
 338 645 305.833007812 637 278.5 621 c 0
 251.166992188 605 228.5 583.25 210.5 555.75 c 0
 192.5 528.25 179.166992188 496.25 170.5 459.75 c 0
 161.833007812 423.25 157.5 384.666992188 157.5 344 c 0
 157.5 303 161.916992188 264.083007812 170.75 227.25 c 0
 179.583007812 190.416992188 192.916992188 158.166992188 210.75 130.5 c 0
 228.583007812 102.833007812 250.916992188 80.8330078125 277.75 64.5 c 0
 304.583007812 48.1669921875 336.166992188 40 372.5 40 c 0
 409.5 40 441.583007812 48.1669921875 468.75 64.5 c 0
 495.916992188 80.8330078125 518.5 102.75 536.5 130.25 c 0
 554.5 157.75 567.916992188 189.75 576.75 226.25 c 0
 585.583007812 262.75 590 301.333007812 590 342 c 0
EndSplineSet
EndChar

StartChar: P
Encoding: 51 80 51
Width: 593
VWidth: 965
Flags: HW
LayerCount: 2
Fore
SplineSet
553 480.5 m 0
 553 442.833007812 546 409.916992188 532 381.75 c 0
 518 353.583007812 498.916992188 330.25 474.75 311.75 c 0
 450.583007812 293.25 422.25 279.416992188 389.75 270.25 c 0
 357.25 261.083007812 322.5 256.666992188 285.5 257 c 0
 278.833007812 257 271.583007812 257.166992188 263.75 257.5 c 0
 255.916992188 257.833007812 248.416992188 258.25 241.25 258.75 c 0
 234.083007812 259.25 227.916992188 259.666992188 222.75 260 c 0
 217.583007812 260.333007812 214.333007812 260.666992188 213 261 c 0
 213 70.5 l 0
 213 65.5 214.75 60.6669921875 218.25 56 c 0
 221.75 51.3330078125 227.166992188 48.6669921875 234.5 48 c 0
 302 44 l 0
 302 0 l 0
 33 0 l 0
 33 44 l 0
 87 48 l 0
 94.3330078125 48.6669921875 99.9169921875 51.3330078125 103.75 56 c 0
 107.583007812 60.6669921875 109.5 65.5 109.5 70.5 c 0
 109.5 616.5 l 0
 109.5 621.5 107.583007812 626.333007812 103.75 631 c 0
 99.9169921875 635.666992188 94.3330078125 638.333007812 87 639 c 0
 25.5 643 l 0
 25.5 687 l 0
 270.5 687 l 0
 318.833007812 687 360.75 683.333007812 396.25 676 c 0
 431.75 668.666992188 461.083007812 656.833007812 484.25 640.5 c 0
 507.416992188 624.166992188 524.666992188 602.916992188 536 576.75 c 0
 547.333007812 550.583007812 553 518.5 553 480.5 c 0
446.5 479 m 0
 446.5 504 443.166992188 526.25 436.5 545.75 c 0
 429.833007812 565.25 419.25 581.75 404.75 595.25 c 0
 390.25 608.75 371.5 619.083007812 348.5 626.25 c 0
 325.5 633.416992188 297.666992188 637 265 637 c 0
 260.333007812 637 255 636.916992188 249 636.75 c 0
 243 636.583007812 237.333007812 636.5 232 636.5 c 0
 226 636.166992188 219.666992188 636 213 636 c 0
 213 313.5 l 0
 213.666992188 313.5 216.166992188 313.25 220.5 312.75 c 0
 224.833007812 312.25 229.833007812 311.583007812 235.5 310.75 c 0
 241.166992188 309.916992188 247.166992188 309.25 253.5 308.75 c 0
 259.833007812 308.25 265.5 308 270.5 308 c 0
 297.5 307.666992188 321.833007812 310.833007812 343.5 317.5 c 0
 365.166992188 324.166992188 383.583007812 334.5 398.75 348.5 c 0
 413.916992188 362.5 425.666992188 380.333007812 434 402 c 0
 442.333007812 423.666992188 446.5 449.333007812 446.5 479 c 0
EndSplineSet
EndChar

StartChar: Q
Encoding: 52 81 52
Width: 756
VWidth: 965
Flags: HW
LayerCount: 2
Fore
SplineSet
717 343 m 0
 717 297 710.583007812 254 697.75 214 c 0
 684.916992188 174 666.333007812 138.5 642 107.5 c 0
 617.666992188 76.5 588 50.75 553 30.25 c 0
 518 9.75 478.333007812 -4.1669921875 434 -11.5 c 0
 434.666992188 -49.8330078125 446.583007812 -80 469.75 -102 c 0
 492.916992188 -124 528.166992188 -135 575.5 -135 c 0
 587.833007812 -135 599.5 -134.5 610.5 -133.5 c 0
 621.5 -132.5 631.333007812 -131.416992188 640 -130.25 c 0
 648.666992188 -129.083007812 655.916992188 -127.916992188 661.75 -126.75 c 0
 667.583007812 -125.583007812 671.666992188 -124.666992188 674 -124 c 0
 674 -168 l 0
 670.333007812 -168.666992188 663.75 -170 654.25 -172 c 0
 644.75 -174 633.166992188 -176 619.5 -178 c 0
 605.833007812 -180 590.666992188 -181.75 574 -183.25 c 0
 557.333007812 -184.75 540 -185.5 522 -185.5 c 0
 486 -185.5 455.5 -181.5 430.5 -173.5 c 0
 405.5 -165.5 385.083007812 -154 369.25 -139 c 0
 353.416992188 -124 342 -105.916992188 335 -84.75 c 0
 328 -63.5830078125 324.5 -39.8330078125 324.5 -13.5 c 0
 283.5 -7.5 245.666992188 5 211 24 c 0
 176.333007812 43 146.333007812 67.75 121 98.25 c 0
 95.6669921875 128.75 75.8330078125 164.666992188 61.5 206 c 0
 47.1669921875 247.333007812 40 293 40 343 c 0
 40 376.333007812 43.5830078125 408.416992188 50.75 439.25 c 0
 57.9169921875 470.083007812 68.25 498.833007812 81.75 525.5 c 0
 95.25 552.166992188 111.833007812 576.416992188 131.5 598.25 c 0
 151.166992188 620.083007812 173.5 638.833007812 198.5 654.5 c 0
 223.5 670.166992188 251 682.25 281 690.75 c 0
 311 699.25 343 703.5 377 703.5 c 0
 429 703.5 475.916992188 694.166992188 517.75 675.5 c 0
 559.583007812 656.833007812 595.25 631.333007812 624.75 599 c 0
 654.25 566.666992188 677 528.5 693 484.5 c 0
 709 440.5 717 393.333007812 717 343 c 0
596 343 m 0
 596 383.333007812 591.666992188 421.75 583 458.25 c 0
 574.333007812 494.75 561.083007812 526.916992188 543.25 554.75 c 0
 525.416992188 582.583007812 502.833007812 604.75 475.5 621.25 c 0
 448.166992188 637.75 415.666992188 646 378 646 c 0
 340.666992188 646 308.25 638 280.75 622 c 0
 253.25 606 230.5 584.25 212.5 556.75 c 0
 194.5 529.25 181.166992188 497.25 172.5 460.75 c 0
 163.833007812 424.25 159.5 385.666992188 159.5 345 c 0
 159.5 305 164 266.583007812 173 229.75 c 0
 182 192.916992188 195.583007812 160.416992188 213.75 132.25 c 0
 231.916992188 104.083007812 254.666992188 81.6669921875 282 65 c 0
 309.333007812 48.3330078125 341.333007812 40 378 40 c 0
 415 40 447.166992188 48.25 474.5 64.75 c 0
 501.833007812 81.25 524.5 103.416992188 542.5 131.25 c 0
 560.5 159.083007812 573.916992188 191.333007812 582.75 228 c 0
 591.583007812 264.666992188 596 303 596 343 c 0
EndSplineSet
EndChar

StartChar: R
Encoding: 53 82 53
Width: 664
VWidth: 965
Flags: HW
LayerCount: 2
Fore
SplineSet
664.5 -3 m 0
 662.166992188 -3.3330078125 658.833007812 -4.1669921875 654.5 -5.5 c 0
 650.166992188 -6.8330078125 645 -8.3330078125 639 -10 c 0
 633 -11.6669921875 626.416992188 -13.1669921875 619.25 -14.5 c 0
 612.083007812 -15.8330078125 604.666992188 -16.5 597 -16.5 c 0
 566.333007812 -16.5 541.5 -11.9169921875 522.5 -2.75 c 0
 503.5 6.4169921875 488.083007812 18.5830078125 476.25 33.75 c 0
 464.416992188 48.9169921875 455.166992188 66.1669921875 448.5 85.5 c 0
 441.833007812 104.833007812 435.666992188 124.583007812 430 144.75 c 0
 424.333007812 164.916992188 418.083007812 184.666992188 411.25 204 c 0
 404.416992188 223.333007812 394.833007812 240.583007812 382.5 255.75 c 0
 370.166992188 270.916992188 354.166992188 283.083007812 334.5 292.25 c 0
 314.833007812 301.416992188 289.333007812 306 258 306 c 0
 252.666992188 306 247.333007812 305.916992188 242 305.75 c 0
 236.666992188 305.583007812 231.916992188 305.333007812 227.75 305 c 0
 223.583007812 304.666992188 220 304.416992188 217 304.25 c 0
 214 304.083007812 212.333007812 304 212 304 c 0
 212 70.5 l 0
 212 65.5 213.75 60.6669921875 217.25 56 c 0
 220.75 51.3330078125 226.166992188 48.6669921875 233.5 48 c 0
 287.5 44 l 0
 287.5 0 l 0
 33 0 l 0
 33 44 l 0
 86 48 l 0
 93.3330078125 48.6669921875 98.9169921875 51.3330078125 102.75 56 c 0
 106.583007812 60.6669921875 108.5 65.5 108.5 70.5 c 0
 108.5 616.5 l 0
 108.5 621.5 106.583007812 626.333007812 102.75 631 c 0
 98.9169921875 635.666992188 93.3330078125 638.333007812 86 639 c 0
 33 643 l 0
 33 687 l 0
 300 687 l 0
 339 687 374 683.833007812 405 677.5 c 0
 436 671.166992188 462.333007812 660.833007812 484 646.5 c 0
 505.666992188 632.166992188 522.25 613.416992188 533.75 590.25 c 0
 545.25 567.083007812 551 538.666992188 551 505 c 0
 551 478 546.333007812 454.833007812 537 435.5 c 0
 527.666992188 416.166992188 515.25 399.833007812 499.75 386.5 c 0
 484.25 373.166992188 466.333007812 362.333007812 446 354 c 0
 425.666992188 345.666992188 404.666992188 339 383 334 c 0
 410.666992188 327.333007812 432.833007812 318.083007812 449.5 306.25 c 0
 466.166992188 294.416992188 479.333007812 281 489 266 c 0
 498.666992188 251 505.833007812 235.083007812 510.5 218.25 c 0
 515.166992188 201.416992188 519.333007812 184.75 523 168.25 c 0
 526.666992188 151.75 530.833007812 136 535.5 121 c 0
 540.166992188 106 547.416992188 92.6669921875 557.25 81 c 0
 567.083007812 69.3330078125 580.416992188 60.0830078125 597.25 53.25 c 0
 614.083007812 46.4169921875 636.5 43 664.5 43 c 0
 664.5 -3 l 0
439.5 500.5 m 0
 439.5 522.5 436.166992188 541.916992188 429.5 558.75 c 0
 422.833007812 575.583007812 412.25 589.833007812 397.75 601.5 c 0
 383.25 613.166992188 364.583007812 622 341.75 628 c 0
 318.916992188 634 291.333007812 637 259 637 c 0
 212 637 l 0
 212 356.5 l 0
 212.666992188 356.5 215 356.416992188 219 356.25 c 0
 223 356.083007812 227.583007812 356 232.75 356 c 0
 237.916992188 356 243.25 355.916992188 248.75 355.75 c 0
 254.25 355.583007812 259 355.5 263 355.5 c 0
 291.333007812 355.5 316.5 357.916992188 338.5 362.75 c 0
 360.5 367.583007812 379 375.666992188 394 387 c 0
 409 398.333007812 420.333007812 413.25 428 431.75 c 0
 435.666992188 450.25 439.5 473.166992188 439.5 500.5 c 0
EndSplineSet
EndChar

StartChar: S
Encoding: 54 83 54
Width: 533
VWidth: 965
Flags: HW
LayerCount: 2
Fore
SplineSet
493.5 192.5 m 0
 493.5 166.5 488.416992188 141 478.25 116 c 0
 468.083007812 91 452 68.6669921875 430 49 c 0
 408 29.3330078125 379.833007812 13.5 345.5 1.5 c 0
 311.166992188 -10.5 270 -16.5 222 -16.5 c 0
 194 -16.5 168.916992188 -14.5 146.75 -10.5 c 0
 124.583007812 -6.5 105.5 -2.1669921875 89.5 2.5 c 0
 71.1669921875 8.1669921875 54.6669921875 14.5 40 21.5 c 0
 40 203 l 0
 104.5 203 l 0
 118 87 l 0
 118.666992188 83 120.75 78.6669921875 124.25 74 c 0
 127.75 69.3330078125 131.333007812 66.1669921875 135 64.5 c 0
 143.5 60 l 0
 148.5 57.6669921875 155.333007812 55.0830078125 164 52.25 c 0
 172.666992188 49.4169921875 183.25 46.8330078125 195.75 44.5 c 0
 208.25 42.1669921875 222.5 41 238.5 41 c 0
 260.166992188 41 280.25 43.75 298.75 49.25 c 0
 317.25 54.75 333.166992188 62.6669921875 346.5 73 c 0
 359.833007812 83.3330078125 370.25 96 377.75 111 c 0
 385.25 126 389 143 389 162 c 0
 389 182.666992188 383.083007812 200.75 371.25 216.25 c 0
 359.416992188 231.75 344.583007812 245.583007812 326.75 257.75 c 0
 308.916992188 269.916992188 289.5 280.833007812 268.5 290.5 c 0
 247.5 300.166992188 227.666992188 309.5 209 318.5 c 0
 188 328.5 167.916992188 338.833007812 148.75 349.5 c 0
 129.583007812 360.166992188 112.75 372.5 98.25 386.5 c 0
 83.75 400.5 72.25 416.916992188 63.75 435.75 c 0
 55.25 454.583007812 51 477 51 503 c 0
 51 533.333007812 57 560.833007812 69 585.5 c 0
 81 610.166992188 97.5830078125 631.25 118.75 648.75 c 0
 139.916992188 666.25 164.916992188 679.75 193.75 689.25 c 0
 222.583007812 698.75 253.833007812 703.5 287.5 703.5 c 0
 306.833007812 703.5 325.083007812 702.333007812 342.25 700 c 0
 359.416992188 697.666992188 375.416992188 694.75 390.25 691.25 c 0
 405.083007812 687.75 418.916992188 684 431.75 680 c 0
 444.583007812 676 456.666992188 672.166992188 468 668.5 c 0
 468 509 l 0
 409.5 509 l 0
 394 607 l 0
 393.333007812 610.333007812 391.416992188 613.666992188 388.25 617 c 0
 385.083007812 620.333007812 382 622.833007812 379 624.5 c 0
 378.333007812 624.833007812 376.166992188 626.333007812 372.5 629 c 0
 368.833007812 631.666992188 363.416992188 634.333007812 356.25 637 c 0
 349.083007812 639.666992188 339.916992188 642.166992188 328.75 644.5 c 0
 317.583007812 646.833007812 304.333007812 648 289 648 c 0
 268.333007812 648 249.833007812 645 233.5 639 c 0
 217.166992188 633 203.333007812 624.583007812 192 613.75 c 0
 180.666992188 602.916992188 171.916992188 590.166992188 165.75 575.5 c 0
 159.583007812 560.833007812 156.5 544.833007812 156.5 527.5 c 0
 156.5 511.833007812 159.583007812 497.583007812 165.75 484.75 c 0
 171.916992188 471.916992188 181.083007812 460.083007812 193.25 449.25 c 0
 205.416992188 438.416992188 220.333007812 428.333007812 238 419 c 0
 255.666992188 409.666992188 276 400.666992188 299 392 c 0
 330 380.333007812 357.583007812 368.166992188 381.75 355.5 c 0
 405.916992188 342.833007812 426.25 328.666992188 442.75 313 c 0
 459.25 297.333007812 471.833007812 279.75 480.5 260.25 c 0
 489.166992188 240.75 493.5 218.166992188 493.5 192.5 c 0
EndSplineSet
EndChar

StartChar: T
Encoding: 55 84 55
Width: 613
VWidth: 965
Flags: HW
LayerCount: 2
Fore
SplineSet
536.5 523.5 m 0
 522 619.5 l 0
 521 624.833007812 519.083007812 629.083007812 516.25 632.25 c 0
 513.416992188 635.416992188 509.666992188 637 505 637 c 0
 358.5 637 l 0
 358.5 70.5 l 0
 358.5 65.5 360.25 60.6669921875 363.75 56 c 0
 367.25 51.3330078125 372.666992188 48.6669921875 380 48 c 0
 445.5 44 l 0
 445.5 0 l 0
 168 0 l 0
 168 44 l 0
 233.5 48 l 0
 240.833007812 48.6669921875 246.25 51.3330078125 249.75 56 c 0
 253.25 60.6669921875 255 65.5 255 70.5 c 0
 255 637 l 0
 107.5 637 l 0
 102.833007812 637 98.9169921875 635.416992188 95.75 632.25 c 0
 92.5830078125 629.083007812 90.6669921875 624.833007812 90 619.5 c 0
 76 523.5 l 0
 16.5 523.5 l 0
 16.5 687 l 0
 597 687 l 0
 597 523.5 l 0
 536.5 523.5 l 0
EndSplineSet
EndChar

StartChar: U
Encoding: 56 85 56
Width: 729
VWidth: 965
Flags: HW
LayerCount: 2
Fore
SplineSet
642 639 m 0
 634.666992188 638.333007812 629.25 635.666992188 625.75 631 c 0
 622.25 626.333007812 620.5 621.5 620.5 616.5 c 0
 620.5 227.5 l 0
 620.5 185.5 614.833007812 149.166992188 603.5 118.5 c 0
 592.166992188 87.8330078125 575.416992188 62.5 553.25 42.5 c 0
 531.083007812 22.5 503.583007812 7.6669921875 470.75 -2 c 0
 437.916992188 -11.6669921875 400.166992188 -16.5 357.5 -16.5 c 0
 272.833007812 -16.5 210 4 169 45 c 0
 128 86 107.5 146.833007812 107.5 227.5 c 0
 107.5 616.5 l 0
 107.5 621.5 105.75 626.333007812 102.25 631 c 0
 98.75 635.666992188 93.3330078125 638.333007812 86 639 c 0
 31.5 643 l 0
 31.5 687 l 0
 292 687 l 0
 292 643 l 0
 233.5 639 l 0
 226.166992188 638.333007812 220.75 635.666992188 217.25 631 c 0
 213.75 626.333007812 212 621.5 212 616.5 c 0
 212 254 l 0
 212 224 214.333007812 196.583007812 219 171.75 c 0
 223.666992188 146.916992188 232.333007812 125.666992188 245 108 c 0
 257.666992188 90.3330078125 275.25 76.5830078125 297.75 66.75 c 0
 320.25 56.9169921875 349.333007812 52 385 52 c 0
 420.333007812 52 449.333007812 57.1669921875 472 67.5 c 0
 494.666992188 77.8330078125 512.5 92.0830078125 525.5 110.25 c 0
 538.5 128.416992188 547.5 149.833007812 552.5 174.5 c 0
 557.5 199.166992188 560 225.666992188 560 254 c 0
 560 616.5 l 0
 560 621.5 558.083007812 626.333007812 554.25 631 c 0
 550.416992188 635.666992188 544.833007812 638.333007812 537.5 639 c 0
 479 643 l 0
 479 687 l 0
 701.5 687 l 0
 701.5 643 l 0
 642 639 l 0
EndSplineSet
EndChar

StartChar: V
Encoding: 57 86 57
Width: 682
VWidth: 965
Flags: HW
LayerCount: 2
Fore
SplineSet
612.5 632 m 0
 383 -16.5 l 0
 305 -16.5 l 0
 70.5 633 l 0
 10 643 l 0
 10 687 l 0
 255 687 l 0
 255 643 l 0
 194.5 638 l 0
 190.833007812 637.333007812 188.166992188 634.833007812 186.5 630.5 c 0
 184.833007812 626.166992188 184.5 622.5 185.5 619.5 c 0
 365.5 113.5 l 0
 538.5 617.5 l 0
 539.833007812 621.5 538.916992188 625.75 535.75 630.25 c 0
 532.583007812 634.75 528.833007812 637.333007812 524.5 638 c 0
 468 643 l 0
 468 687 l 0
 671.5 687 l 0
 671.5 643 l 0
 612.5 632 l 0
EndSplineSet
EndChar

StartChar: W
Encoding: 58 87 58
Width: 953
VWidth: 965
Flags: HW
LayerCount: 2
Fore
SplineSet
880.5 631 m 0
 724 -16.5 l 0
 649 -16.5 l 0
 478 551 l 0
 310.5 -16.5 l 0
 236.5 -16.5 l 0
 69.5 631 l 0
 10 643 l 0
 10 687 l 0
 244.5 687 l 0
 244.5 643 l 0
 183.5 637 l 0
 178.833007812 636.333007812 175.666992188 633.916992188 174 629.75 c 0
 172.333007812 625.583007812 172 621.166992188 173 616.5 c 0
 295 154.5 l 0
 455.5 687 l 0
 534.5 687 l 0
 699.5 138 l 0
 813 616.5 l 0
 814 621.166992188 813.166992188 625.583007812 810.5 629.75 c 0
 807.833007812 633.916992188 803.833007812 636.333007812 798.5 637 c 0
 734 643 l 0
 734 687 l 0
 943 687 l 0
 943 643 l 0
 880.5 631 l 0
EndSplineSet
EndChar

StartChar: X
Encoding: 59 88 59
Width: 649
VWidth: 965
Flags: HW
LayerCount: 2
Fore
SplineSet
376 0 m 0
 376 44 l 0
 435 50 l 0
 440.333007812 50.6669921875 444.5 53.1669921875 447.5 57.5 c 0
 450.5 61.8330078125 450.5 66.5 447.5 71.5 c 0
 311.5 285.5 l 0
 153.5 68.5 l 0
 150.833007812 64.8330078125 150.166992188 60.8330078125 151.5 56.5 c 0
 152.833007812 52.1669921875 157.666992188 49.6669921875 166 49 c 0
 227.5 44 l 0
 227.5 0 l 0
 10 0 l 0
 10 44 l 0
 71.5 56.5 l 0
 277.5 339 l 0
 91 631 l 0
 23.5 643 l 0
 23.5 687 l 0
 280.5 687 l 0
 280.5 643 l 0
 228.5 638 l 0
 220.166992188 637.333007812 215.333007812 634.75 214 630.25 c 0
 212.666992188 625.75 213.333007812 621.5 216 617.5 c 0
 341 425 l 0
 479 614.5 l 0
 482.666992188 619.5 483 624.166992188 480 628.5 c 0
 477 632.833007812 473 635.333007812 468 636 c 0
 415.5 643 l 0
 415.5 687 l 0
 630 687 l 0
 630 643 l 0
 564 633 l 0
 374 371.5 l 0
 575.5 56.5 l 0
 639 44 l 0
 639 0 l 0
 376 0 l 0
EndSplineSet
EndChar

StartChar: Y
Encoding: 60 89 60
Width: 641
VWidth: 965
Flags: HW
LayerCount: 2
Fore
SplineSet
575.5 633 m 0
 369.5 292 l 0
 369.5 70.5 l 0
 369.5 65.5 371.333007812 60.6669921875 375 56 c 0
 378.666992188 51.3330078125 384 48.6669921875 391 48 c 0
 456.5 44 l 0
 456.5 0 l 0
 180 0 l 0
 180 44 l 0
 243.5 48 l 0
 250.833007812 48.6669921875 256.416992188 51.3330078125 260.25 56 c 0
 264.083007812 60.6669921875 266 65.5 266 70.5 c 0
 266 276.5 l 0
 69.5 631 l 0
 10 643 l 0
 10 687 l 0
 253 687 l 0
 253 643 l 0
 201.5 638 l 0
 193.5 637 189 634.333007812 188 630 c 0
 187 625.666992188 187.5 621.5 189.5 617.5 c 0
 334 350 l 0
 492.5 614.5 l 0
 495.5 619.5 495.5 624.166992188 492.5 628.5 c 0
 489.5 632.833007812 485.5 635.333007812 480.5 636 c 0
 423 643 l 0
 423 687 l 0
 631 687 l 0
 631 643 l 0
 575.5 633 l 0
EndSplineSet
EndChar

StartChar: Z
Encoding: 61 90 61
Width: 589
VWidth: 965
Flags: HW
LayerCount: 2
Fore
SplineSet
40 0 m 0
 40 45 l 0
 421 636 l 0
 154.5 636 l 0
 149.833007812 636 146.083007812 634.333007812 143.25 631 c 0
 140.416992188 627.666992188 138.333007812 623.5 137 618.5 c 0
 122 523.5 l 0
 61.5 523.5 l 0
 61.5 687 l 0
 543.5 687 l 0
 543.5 640 l 0
 162 52 l 0
 453.5 52 l 0
 458.166992188 52 462 53.8330078125 465 57.5 c 0
 468 61.1669921875 470 65.5 471 70.5 c 0
 488.5 189.5 l 0
 549 189.5 l 0
 549 0 l 0
 40 0 l 0
EndSplineSet
EndChar

StartChar: bracketleft
Encoding: 62 91 62
Width: 433
VWidth: 965
Flags: HW
LayerCount: 2
Fore
SplineSet
139.5 -135 m 0
 139.5 725 l 0
 388 725 l 0
 388 679 l 0
 228.5 679 l 0
 228.5 -88 l 0
 388 -88 l 0
 388 -135 l 0
 139.5 -135 l 0
EndSplineSet
EndChar

StartChar: backslash
Encoding: 63 92 63
Width: 500
VWidth: 965
Flags: HW
LayerCount: 2
Fore
SplineSet
435 -95 m 0
 0 687 l 0
 65.5 687 l 0
 500.5 -95 l 0
 435 -95 l 0
EndSplineSet
EndChar

StartChar: bracketright
Encoding: 64 93 64
Width: 433
VWidth: 965
Flags: HW
LayerCount: 2
Fore
SplineSet
45 -135 m 0
 45 -88 l 0
 206 -88 l 0
 206 679 l 0
 45 679 l 0
 45 725 l 0
 295 725 l 0
 295 -135 l 0
 45 -135 l 0
EndSplineSet
EndChar

StartChar: asciicircum
Encoding: 65 94 65
Width: 335
VWidth: 965
Flags: HW
LayerCount: 2
Fore
SplineSet
359.75 282 m 0
 307 332.75 l 0
 253.75 282 l 0
 223 282 l 0
 287.5 368.75 l 0
 326 368.75 l 0
 390.5 282 l 0
 359.75 282 l 0
EndSplineSet
EndChar

StartChar: underscore
Encoding: 66 95 66
Width: 343
VWidth: 965
Flags: HW
LayerCount: 2
Fore
SplineSet
0 -152.5 m 0
 0 -87.5 l 0
 343 -87.5 l 0
 343 -152.5 l 0
 0 -152.5 l 0
EndSplineSet
EndChar

StartChar: grave
Encoding: 67 96 67
Width: 358
VWidth: 965
Flags: HW
LayerCount: 2
Fore
SplineSet
302.25 282 m 0
 224.5 331.75 l 0
 220.833984375 334.083984375 217.958984375 336.916015625 215.875 340.25 c 0
 213.791015625 343.583984375 212.75 347.583984375 212.75 352.25 c 0
 212.75 354.916015625 213.166015625 357.625 214 360.375 c 0
 214.833984375 363.125 216.166015625 365.583984375 218 367.75 c 0
 219.833984375 369.916015625 222.25 371.708984375 225.25 373.125 c 0
 228.25 374.541015625 231.916015625 375.25 236.25 375.25 c 0
 239.916015625 375.25 243 374.958984375 245.5 374.375 c 0
 248 373.791015625 250.25 372.916015625 252.25 371.75 c 0
 254.25 370.583984375 256.083984375 369.125 257.75 367.375 c 0
 259.416015625 365.625 261.166015625 363.666015625 263 361.5 c 0
 331.5 282 l 0
 302.25 282 l 0
EndSplineSet
EndChar

StartChar: a
Encoding: 68 97 68
Width: 521
VWidth: 965
Flags: HW
LayerCount: 2
Fore
SplineSet
352.5 0 m 0
 339 60.5 l 0
 321 46.8330078125 302.5 34.6669921875 283.5 24 c 0
 275.166992188 19.3330078125 266.333007812 14.8330078125 257 10.5 c 0
 247.666992188 6.1669921875 238.083007812 2.25 228.25 -1.25 c 0
 218.416992188 -4.75 208.416992188 -7.5 198.25 -9.5 c 0
 188.083007812 -11.5 178 -12.5 168 -12.5 c 0
 149.333007812 -12.5 131.916992188 -9.3330078125 115.75 -3 c 0
 99.5830078125 3.3330078125 85.5 12.5 73.5 24.5 c 0
 61.5 36.5 52.0830078125 51 45.25 68 c 0
 38.4169921875 85 35 104.333007812 35 126 c 0
 35 138.666992188 36.25 150.666992188 38.75 162 c 0
 41.25 173.333007812 46.3330078125 184.333007812 54 195 c 0
 61.6669921875 205.666992188 72.4169921875 215.916992188 86.25 225.75 c 0
 100.083007812 235.583007812 118.25 245.333007812 140.75 255 c 0
 163.25 264.666992188 190.75 274.25 223.25 283.75 c 0
 255.75 293.25 294.333007812 302.833007812 339 312.5 c 0
 339 356.5 l 0
 339 390.833007812 331.333007812 416.25 316 432.75 c 0
 300.666992188 449.25 276.5 457.5 243.5 457.5 c 0
 225.5 457.5 210.166992188 455.833007812 197.5 452.5 c 0
 184.833007812 449.166992188 176 446.5 171 444.5 c 0
 171 355.5 l 0
 96.5 355.5 l 0
 91.8330078125 355.5 87.25 355.833007812 82.75 356.5 c 0
 78.25 357.166992188 74.1669921875 358.583007812 70.5 360.75 c 0
 66.8330078125 362.916992188 63.9169921875 365.916992188 61.75 369.75 c 0
 59.5830078125 373.583007812 58.5 378.666992188 58.5 385 c 0
 58.5 406 64.8330078125 424.083007812 77.5 439.25 c 0
 90.1669921875 454.416992188 106.666992188 467 127 477 c 0
 147.333007812 487 170.166992188 494.333007812 195.5 499 c 0
 220.833007812 503.666992188 246.166992188 506 271.5 506 c 0
 303.166992188 506 329.416992188 502.166992188 350.25 494.5 c 0
 371.083007812 486.833007812 387.583007812 476.166992188 399.75 462.5 c 0
 411.916992188 448.833007812 420.5 432.666992188 425.5 414 c 0
 430.5 395.333007812 433 374.833007812 433 352.5 c 0
 433 65.5 l 0
 433 59.1669921875 435.083007812 54 439.25 50 c 0
 443.416992188 46 448.5 43.6669921875 454.5 43 c 0
 504 40 l 0
 504 0 l 0
 352.5 0 l 0
339 273.5 m 0
 293 261.833007812 256.5 250.333007812 229.5 239 c 0
 202.5 227.666992188 182.083007812 216.25 168.25 204.75 c 0
 154.416992188 193.25 145.583007812 181.583007812 141.75 169.75 c 0
 137.916992188 157.916992188 136 145.666992188 136 133 c 0
 136 122.333007812 137.75 111.916992188 141.25 101.75 c 0
 144.75 91.5830078125 149.75 82.5 156.25 74.5 c 0
 162.75 66.5 170.75 60.0830078125 180.25 55.25 c 0
 189.75 50.4169921875 200.666992188 48 213 48 c 0
 226.666992188 48 240.916992188 50.5 255.75 55.5 c 0
 270.583007812 60.5 284.166992188 66 296.5 72 c 0
 310.833007812 79 325 87.1669921875 339 96.5 c 0
 339 273.5 l 0
EndSplineSet
EndChar

StartChar: b
Encoding: 69 98 69
Width: 568
VWidth: 965
Flags: HW
LayerCount: 2
Fore
SplineSet
429 250 m 0
 429 314.333007812 415.25 363 387.75 396 c 0
 360.25 429 321.833007812 445.5 272.5 445.5 c 0
 266.833007812 445.5 260.166992188 445 252.5 444 c 0
 244.833007812 443 237.083007812 441.666992188 229.25 440 c 0
 221.416992188 438.333007812 213.75 436.5 206.25 434.5 c 0
 198.75 432.5 192.5 430.666992188 187.5 429 c 0
 187.5 49 l 0
 193.166992188 48.6669921875 199 48.5 205 48.5 c 0
 210 48.1669921875 215.333007812 48 221 48 c 0
 237.5 48 l 0
 267.833007812 48 294.833007812 51.5 318.5 58.5 c 0
 342.166992188 65.5 362.166992188 77 378.5 93 c 0
 394.833007812 109 407.333007812 129.833007812 416 155.5 c 0
 424.666992188 181.166992188 429 212.666992188 429 250 c 0
533.5 270.5 m 0
 533.5 231.833007812 527.833007812 196.083007812 516.5 163.25 c 0
 505.166992188 130.416992188 487.583007812 101.833007812 463.75 77.5 c 0
 439.916992188 53.1669921875 409.416992188 34.1669921875 372.25 20.5 c 0
 335.083007812 6.8330078125 290.833007812 0 239.5 0 c 0
 92 0 l 0
 92 681 l 0
 14.5 681 l 0
 14.5 715 l 0
 146.5 754.5 l 0
 187.5 754.5 l 0
 187.5 468 l 0
 193.5 470.666992188 201.333007812 474.166992188 211 478.5 c 0
 220.666992188 482.833007812 231.75 487 244.25 491 c 0
 256.75 495 270.166992188 498.5 284.5 501.5 c 0
 298.833007812 504.5 313.5 506 328.5 506 c 0
 362.166992188 506 391.75 499.666992188 417.25 487 c 0
 442.75 474.333007812 464.166992188 457.166992188 481.5 435.5 c 0
 498.833007812 413.833007812 511.833007812 388.75 520.5 360.25 c 0
 529.166992188 331.75 533.5 301.833007812 533.5 270.5 c 0
EndSplineSet
EndChar

StartChar: c
Encoding: 70 99 70
Width: 477
VWidth: 965
Flags: HW
LayerCount: 2
Fore
SplineSet
442.5 38 m 0
 430.833007812 32 418.583007812 25.9169921875 405.75 19.75 c 0
 392.916992188 13.5830078125 379.25 8.1669921875 364.75 3.5 c 0
 350.25 -1.1669921875 335.083007812 -5 319.25 -8 c 0
 303.416992188 -11 286.833007812 -12.5 269.5 -12.5 c 0
 233.5 -12.5 201.083007812 -6.0830078125 172.25 6.75 c 0
 143.416992188 19.5830078125 118.833007812 37.4169921875 98.5 60.25 c 0
 78.1669921875 83.0830078125 62.5 110.166992188 51.5 141.5 c 0
 40.5 172.833007812 35 206.833007812 35 243.5 c 0
 35 286.5 41.6669921875 324.333007812 55 357 c 0
 68.3330078125 389.666992188 86.3330078125 417.083007812 109 439.25 c 0
 131.666992188 461.416992188 157.916992188 478.083007812 187.75 489.25 c 0
 217.583007812 500.416992188 248.833007812 506 281.5 506 c 0
 303.833007812 506 324.75 503.75 344.25 499.25 c 0
 363.75 494.75 380.583007812 488.166992188 394.75 479.5 c 0
 408.916992188 470.833007812 420.083007812 460.166992188 428.25 447.5 c 0
 436.416992188 434.833007812 440.5 420.166992188 440.5 403.5 c 0
 440.5 393.5 438.75 384.75 435.25 377.25 c 0
 431.75 369.75 427.166992188 363.416992188 421.5 358.25 c 0
 415.833007812 353.083007812 409.416992188 349.25 402.25 346.75 c 0
 395.083007812 344.25 387.666992188 343 380 343 c 0
 368.666992188 343 358.833007812 344.916992188 350.5 348.75 c 0
 342.166992188 352.583007812 334.833007812 356.5 328.5 360.5 c 0
 328.5 449.5 l 0
 321.5 453.5 314.25 456.75 306.75 459.25 c 0
 299.25 461.75 292.166992188 463 285.5 463 c 0
 262.833007812 463 242.416992188 457.833007812 224.25 447.5 c 0
 206.083007812 437.166992188 190.75 422.833007812 178.25 404.5 c 0
 165.75 386.166992188 156.166992188 364.416992188 149.5 339.25 c 0
 142.833007812 314.083007812 139.5 286.666992188 139.5 257 c 0
 139.5 228.666992188 143.083007812 202 150.25 177 c 0
 157.416992188 152 168.083007812 130.25 182.25 111.75 c 0
 196.416992188 93.25 214.083007812 78.6669921875 235.25 68 c 0
 256.416992188 57.3330078125 281 52 309 52 c 0
 333 52 355.75 55.75 377.25 63.25 c 0
 398.75 70.75 420.5 81.8330078125 442.5 96.5 c 0
 442.5 38 l 0
EndSplineSet
EndChar

StartChar: d
Encoding: 71 100 71
Width: 577
VWidth: 965
Flags: HW
LayerCount: 2
Fore
SplineSet
390 0 m 0
 390 54.5 l 0
 378.333007812 45.5 366.25 36.9169921875 353.75 28.75 c 0
 341.25 20.5830078125 328.416992188 13.5 315.25 7.5 c 0
 302.083007812 1.5 288.583007812 -3.3330078125 274.75 -7 c 0
 260.916992188 -10.6669921875 246.5 -12.5 231.5 -12.5 c 0
 197.166992188 -12.5 167.583007812 -5.0830078125 142.75 9.75 c 0
 117.916992188 24.5830078125 97.5 43.75 81.5 67.25 c 0
 65.5 90.75 53.75 117.083007812 46.25 146.25 c 0
 38.75 175.416992188 35 204.5 35 233.5 c 0
 35 268.166992188 40.3330078125 301.916992188 51 334.75 c 0
 61.6669921875 367.583007812 77.8330078125 396.666992188 99.5 422 c 0
 121.166992188 447.333007812 148.333007812 467.666992188 181 483 c 0
 213.666992188 498.333007812 252 506 296 506 c 0
 304 506 312.666992188 505.5 322 504.5 c 0
 331.333007812 503.5 340.416992188 502.416992188 349.25 501.25 c 0
 358.083007812 500.083007812 366.083007812 498.75 373.25 497.25 c 0
 380.416992188 495.75 386 494.5 390 493.5 c 0
 390 681 l 0
 312.5 681 l 0
 312.5 715 l 0
 444.5 754.5 l 0
 485.5 754.5 l 0
 485.5 65.5 l 0
 485.5 59.1669921875 487.5 54 491.5 50 c 0
 495.5 46 500.666992188 43.6669921875 507 43 c 0
 551 40 l 0
 551 0 l 0
 390 0 l 0
390 441.5 m 0
 385.666992188 442.833007812 380.083007812 444.416992188 373.25 446.25 c 0
 366.416992188 448.083007812 359.083007812 449.75 351.25 451.25 c 0
 343.416992188 452.75 335.25 454 326.75 455 c 0
 318.25 456 310.333007812 456.5 303 456.5 c 0
 277.666992188 456.5 254.666992188 451.583007812 234 441.75 c 0
 213.333007812 431.916992188 195.75 418.083007812 181.25 400.25 c 0
 166.75 382.416992188 155.583007812 360.833007812 147.75 335.5 c 0
 139.916992188 310.166992188 136 282 136 251 c 0
 136 223 139.333007812 197.25 146 173.75 c 0
 152.666992188 150.25 162.333007812 129.833007812 175 112.5 c 0
 187.666992188 95.1669921875 203.166992188 81.6669921875 221.5 72 c 0
 239.833007812 62.3330078125 260.833007812 57.5 284.5 57.5 c 0
 294.833007812 57.5 304.833007812 58.5830078125 314.5 60.75 c 0
 324.166992188 62.9169921875 333.5 65.75 342.5 69.25 c 0
 351.5 72.75 360 76.5830078125 368 80.75 c 0
 376 84.9169921875 383.333007812 89 390 93 c 0
 390 441.5 l 0
EndSplineSet
EndChar

StartChar: e
Encoding: 72 101 72
Width: 502
VWidth: 965
Flags: HW
LayerCount: 2
Fore
SplineSet
364.5 336 m 0
 364.5 353 362.5 368.75 358.5 383.25 c 0
 354.5 397.75 348.416992188 410.333007812 340.25 421 c 0
 332.083007812 431.666992188 321.75 440.083007812 309.25 446.25 c 0
 296.75 452.416992188 282 455.5 265 455.5 c 0
 248 455.5 232.166992188 452.25 217.5 445.75 c 0
 202.833007812 439.25 189.916992188 429.833007812 178.75 417.5 c 0
 167.583007812 405.166992188 158.583007812 390.25 151.75 372.75 c 0
 144.916992188 355.25 140.833007812 335.5 139.5 313.5 c 0
 364.5 313.5 l 0
 364.5 336 l 0
467 51 m 0
 452.666992188 42 437.75 33.6669921875 422.25 26 c 0
 406.75 18.3330078125 390.75 11.6669921875 374.25 6 c 0
 357.75 0.3330078125 341 -4.1669921875 324 -7.5 c 0
 307 -10.8330078125 289.833007812 -12.5 272.5 -12.5 c 0
 241.5 -12.5 211.666992188 -7.25 183 3.25 c 0
 154.333007812 13.75 129.083007812 29.5 107.25 50.5 c 0
 85.4169921875 71.5 67.9169921875 97.9169921875 54.75 129.75 c 0
 41.5830078125 161.583007812 35 198.833007812 35 241.5 c 0
 35 281.5 41 317.75 53 350.25 c 0
 65 382.75 81.6669921875 410.583007812 103 433.75 c 0
 124.333007812 456.916992188 149.666992188 474.75 179 487.25 c 0
 208.333007812 499.75 240.5 506 275.5 506 c 0
 307.166992188 506 335 500.75 359 490.25 c 0
 383 479.75 403 465.25 419 446.75 c 0
 435 428.25 447 406.083007812 455 380.25 c 0
 463 354.416992188 467 326.333007812 467 296 c 0
 467 282.5 l 0
 467 277.166992188 466.666992188 272.166992188 466 267.5 c 0
 134 267.5 l 0
 134 241.5 136.75 215.5 142.25 189.5 c 0
 147.75 163.5 157 140.166992188 170 119.5 c 0
 183 98.8330078125 200.5 82.0830078125 222.5 69.25 c 0
 244.5 56.4169921875 272 50 305 50 c 0
 319.666992188 50 334.166992188 51.9169921875 348.5 55.75 c 0
 362.833007812 59.5830078125 376.916992188 64.5 390.75 70.5 c 0
 404.583007812 76.5 417.833007812 83.25 430.5 90.75 c 0
 443.166992188 98.25 455.333007812 105.833007812 467 113.5 c 0
 467 51 l 0
EndSplineSet
EndChar

StartChar: f
Encoding: 73 102 73
Width: 334
VWidth: 965
Flags: HW
LayerCount: 2
Fore
SplineSet
398.5 693 m 0
 398.5 682.666992188 396.416992188 674.083007812 392.25 667.25 c 0
 388.083007812 660.416992188 383.25 654.916992188 377.75 650.75 c 0
 372.25 646.583007812 366.916992188 643.5 361.75 641.5 c 0
 356.583007812 639.5 353 638.333007812 351 638 c 0
 350.333007812 638.666992188 347.583007812 640.75 342.75 644.25 c 0
 337.916992188 647.75 332.083007812 651.916992188 325.25 656.75 c 0
 318.416992188 661.583007812 311.083007812 666.666992188 303.25 672 c 0
 295.416992188 677.333007812 288.166992188 682.416992188 281.5 687.25 c 0
 274.833007812 692.083007812 269.166992188 696.083007812 264.5 699.25 c 0
 259.833007812 702.416992188 257.333007812 704.166992188 257 704.5 c 0
 249.666992188 700.5 242.416992188 694.833007812 235.25 687.5 c 0
 228.083007812 680.166992188 221.583007812 670.333007812 215.75 658 c 0
 209.916992188 645.666992188 205.25 630.75 201.75 613.25 c 0
 198.25 595.75 196.5 575 196.5 551 c 0
 196.5 485.5 l 0
 323.5 485.5 l 0
 323.5 433 l 0
 196.5 433 l 0
 196.5 65.5 l 0
 196.5 59.1669921875 198.583007812 54 202.75 50 c 0
 206.916992188 46 212 43.6669921875 218 43 c 0
 278.5 40 l 0
 278.5 0 l 0
 29.5 0 l 0
 29.5 40 l 0
 80 43 l 0
 86 43.6669921875 91.0830078125 46 95.25 50 c 0
 99.4169921875 54 101.5 59.1669921875 101.5 65.5 c 0
 101.5 433 l 0
 36 433 l 0
 36 469 l 0
 101.5 487.5 l 0
 101.5 504.5 102.083007812 519.75 103.25 533.25 c 0
 104.416992188 546.75 106.416992188 559.416992188 109.25 571.25 c 0
 112.083007812 583.083007812 115.666992188 594.583007812 120 605.75 c 0
 124.333007812 616.916992188 129.666992188 628.666992188 136 641 c 0
 146 660.333007812 157.583007812 677.083007812 170.75 691.25 c 0
 183.916992188 705.416992188 198.083007812 717.166992188 213.25 726.5 c 0
 228.416992188 735.833007812 244.25 742.833007812 260.75 747.5 c 0
 277.25 752.166992188 293.833007812 754.5 310.5 754.5 c 0
 324.833007812 754.5 337.5 752.833007812 348.5 749.5 c 0
 359.5 746.166992188 368.75 741.666992188 376.25 736 c 0
 383.75 730.333007812 389.333007812 723.833007812 393 716.5 c 0
 396.666992188 709.166992188 398.5 701.333007812 398.5 693 c 0
EndSplineSet
EndChar

StartChar: g
Encoding: 74 103 74
Width: 537
VWidth: 965
Flags: HW
LayerCount: 2
Fore
SplineSet
418 425 m 0
 425.666992188 412.666992188 432.166992188 399.25 437.5 384.75 c 0
 442.833007812 370.25 445.5 353 445.5 333 c 0
 445.5 306 439.333007812 282 427 261 c 0
 414.666992188 240 398.25 222.5 377.75 208.5 c 0
 357.25 194.5 333.75 184.25 307.25 177.75 c 0
 280.75 171.25 253.166992188 169 224.5 171 c 0
 220.5 164.333007812 217.75 157.166992188 216.25 149.5 c 0
 214.75 141.833007812 213.916992188 134.666992188 213.75 128 c 0
 213.583007812 121.333007812 213.833007812 115.583007812 214.5 110.75 c 0
 215.166992188 105.916992188 215.666992188 103.166992188 216 102.5 c 0
 231.333007812 100.833007812 248.833007812 99 268.5 97 c 0
 288.166992188 95 308.25 92.0830078125 328.75 88.25 c 0
 349.25 84.4169921875 369.416992188 79.3330078125 389.25 73 c 0
 409.083007812 66.6669921875 426.666992188 58.4169921875 442 48.25 c 0
 457.333007812 38.0830078125 469.75 25.75 479.25 11.25 c 0
 488.75 -3.25 493.5 -20.6669921875 493.5 -41 c 0
 493.5 -65.3330078125 486.583007812 -89.0830078125 472.75 -112.25 c 0
 458.916992188 -135.416992188 440 -156.083007812 416 -174.25 c 0
 392 -192.416992188 363.833007812 -207 331.5 -218 c 0
 299.166992188 -229 264.5 -234.5 227.5 -234.5 c 0
 196.833007812 -234.5 169.583007812 -230.833007812 145.75 -223.5 c 0
 121.916992188 -216.166992188 101.833007812 -206 85.5 -193 c 0
 69.1669921875 -180 56.6669921875 -164.583007812 48 -146.75 c 0
 39.3330078125 -128.916992188 35 -109.666992188 35 -89 c 0
 35 -74 37.1669921875 -59.75 41.5 -46.25 c 0
 45.8330078125 -32.75 52.5 -20.5830078125 61.5 -9.75 c 0
 70.5 1.0830078125 81.75 10.4169921875 95.25 18.25 c 0
 108.75 26.0830078125 124.833007812 31.6669921875 143.5 35 c 0
 141.5 40.3330078125 139.833007812 44.75 138.5 48.25 c 0
 137.166992188 51.75 136.083007812 55.0830078125 135.25 58.25 c 0
 134.416992188 61.4169921875 133.833007812 64.75 133.5 68.25 c 0
 133.166992188 71.75 133 76.3330078125 133 82 c 0
 133 95.3330078125 137.083007812 110.083007812 145.25 126.25 c 0
 153.416992188 142.416992188 166.5 159.666992188 184.5 178 c 0
 167.5 182 151.333007812 188.333007812 136 197 c 0
 120.666992188 205.666992188 107.166992188 216.583007812 95.5 229.75 c 0
 83.8330078125 242.916992188 74.5830078125 258.083007812 67.75 275.25 c 0
 60.9169921875 292.416992188 57.5 311.333007812 57.5 332 c 0
 57.5 359 62.5 383.25 72.5 404.75 c 0
 82.5 426.25 96.5 444.5 114.5 459.5 c 0
 132.5 474.5 154.083007812 486 179.25 494 c 0
 204.416992188 502 232.333007812 506 263 506 c 0
 275 506 286.75 505 298.25 503 c 0
 309.75 501 320.583007812 498.416992188 330.75 495.25 c 0
 340.916992188 492.083007812 350.333007812 488.666992188 359 485 c 0
 367.666992188 481.333007812 375.333007812 478 382 475 c 0
 520 475 l 0
 520 425 l 0
 418 425 l 0
348 339 m 0
 348 355 345.916992188 370.583007812 341.75 385.75 c 0
 337.583007812 400.916992188 331.5 414.25 323.5 425.75 c 0
 315.5 437.25 305.583007812 446.5 293.75 453.5 c 0
 281.916992188 460.5 268.333007812 464 253 464 c 0
 238.666992188 464 225.5 461.166992188 213.5 455.5 c 0
 201.5 449.833007812 191.25 441.583007812 182.75 430.75 c 0
 174.25 419.916992188 167.583007812 406.666992188 162.75 391 c 0
 157.916992188 375.333007812 155.5 357.666992188 155.5 338 c 0
 155.5 321 157.583007812 304.916992188 161.75 289.75 c 0
 165.916992188 274.583007812 172.083007812 261.333007812 180.25 250 c 0
 188.416992188 238.666992188 198.583007812 229.666992188 210.75 223 c 0
 222.916992188 216.333007812 237 213 253 213 c 0
 268.333007812 213 281.916992188 216.333007812 293.75 223 c 0
 305.583007812 229.666992188 315.5 238.666992188 323.5 250 c 0
 331.5 261.333007812 337.583007812 274.666992188 341.75 290 c 0
 345.916992188 305.333007812 348 321.666992188 348 339 c 0
405.5 -68.5 m 0
 405.5 -54.5 402 -42.5830078125 395 -32.75 c 0
 388 -22.9169921875 378.75 -14.8330078125 367.25 -8.5 c 0
 355.75 -2.1669921875 342.75 2.9169921875 328.25 6.75 c 0
 313.75 10.5830078125 299.083007812 13.75 284.25 16.25 c 0
 269.416992188 18.75 255 20.75 241 22.25 c 0
 227 23.75 215 25.5 205 27.5 c 0
 190 22.1669921875 177.5 15.75 167.5 8.25 c 0
 157.5 0.75 149.5 -7.3330078125 143.5 -16 c 0
 137.5 -24.6669921875 133.25 -33.5 130.75 -42.5 c 0
 128.25 -51.5 127 -60.1669921875 127 -68.5 c 0
 127 -80.8330078125 129.666992188 -94 135 -108 c 0
 140.333007812 -122 148.5 -134.833007812 159.5 -146.5 c 0
 170.5 -158.166992188 184.416992188 -167.916992188 201.25 -175.75 c 0
 218.083007812 -183.583007812 238 -187.5 261 -187.5 c 0
 285.333007812 -187.5 306.583007812 -183.583007812 324.75 -175.75 c 0
 342.916992188 -167.916992188 358 -158.166992188 370 -146.5 c 0
 382 -134.833007812 390.916992188 -122 396.75 -108 c 0
 402.583007812 -94 405.5 -80.8330078125 405.5 -68.5 c 0
EndSplineSet
EndChar

StartChar: h
Encoding: 75 104 75
Width: 588
VWidth: 965
Flags: HW
LayerCount: 2
Fore
SplineSet
336 0 m 0
 336 40 l 0
 378 43 l 0
 384 43.6669921875 389.25 46 393.75 50 c 0
 398.25 54 400.5 59.1669921875 400.5 65.5 c 0
 400.5 329.5 l 0
 400.5 344.166992188 398.916992188 357.666992188 395.75 370 c 0
 392.583007812 382.333007812 387.083007812 393 379.25 402 c 0
 371.416992188 411 361 418.083007812 348 423.25 c 0
 335 428.416992188 318.666992188 431 299 431 c 0
 290 431 280.5 430.25 270.5 428.75 c 0
 260.5 427.25 250.583007812 425.166992188 240.75 422.5 c 0
 230.916992188 419.833007812 221.416992188 416.666992188 212.25 413 c 0
 203.083007812 409.333007812 194.833007812 405.5 187.5 401.5 c 0
 187.5 65.5 l 0
 187.5 59.1669921875 189.333007812 54 193 50 c 0
 196.666992188 46 201.666992188 43.6669921875 208 43 c 0
 252 40 l 0
 252 0 l 0
 21.5 0 l 0
 21.5 40 l 0
 70.5 43 l 0
 76.8330078125 43.6669921875 82 46 86 50 c 0
 90 54 92 59.1669921875 92 65.5 c 0
 92 681 l 0
 15.5 681 l 0
 15.5 715 l 0
 146.5 754.5 l 0
 187.5 754.5 l 0
 187.5 442.5 l 0
 196.833007812 448.166992188 208.333007812 454.666992188 222 462 c 0
 235.666992188 469.333007812 250.25 476.25 265.75 482.75 c 0
 281.25 489.25 296.916992188 494.75 312.75 499.25 c 0
 328.583007812 503.75 343.166992188 506 356.5 506 c 0
 376.166992188 506 394.416992188 502.833007812 411.25 496.5 c 0
 428.083007812 490.166992188 442.75 480.666992188 455.25 468 c 0
 467.75 455.333007812 477.583007812 439.25 484.75 419.75 c 0
 491.916992188 400.25 495.5 377.333007812 495.5 351 c 0
 495.5 65.5 l 0
 495.5 59.1669921875 497.75 54 502.25 50 c 0
 506.75 46 512 43.6669921875 518 43 c 0
 564 40 l 0
 564 0 l 0
 336 0 l 0
EndSplineSet
EndChar

StartChar: i
Encoding: 76 105 76
Width: 310
VWidth: 965
Flags: HW
LayerCount: 2
Fore
SplineSet
223 662.5 m 0
 223 653.833007812 221.416992188 645.583007812 218.25 637.75 c 0
 215.083007812 629.916992188 210.666992188 623.166992188 205 617.5 c 0
 199.333007812 611.833007812 192.75 607.333007812 185.25 604 c 0
 177.75 600.666992188 169.666992188 599 161 599 c 0
 152.333007812 599 144.083007812 600.666992188 136.25 604 c 0
 128.416992188 607.333007812 121.666992188 611.833007812 116 617.5 c 0
 110.333007812 623.166992188 105.833007812 629.916992188 102.5 637.75 c 0
 99.1669921875 645.583007812 97.5 653.833007812 97.5 662.5 c 0
 97.5 671.166992188 99.1669921875 679.333007812 102.5 687 c 0
 105.833007812 694.666992188 110.333007812 701.333007812 116 707 c 0
 121.666992188 712.666992188 128.416992188 717.083007812 136.25 720.25 c 0
 144.083007812 723.416992188 152.333007812 725 161 725 c 0
 169.666992188 725 177.75 723.416992188 185.25 720.25 c 0
 192.75 717.083007812 199.333007812 712.666992188 205 707 c 0
 210.666992188 701.333007812 215.083007812 694.666992188 218.25 687 c 0
 221.416992188 679.333007812 223 671.166992188 223 662.5 c 0
35 0 m 0
 35 40 l 0
 85 43 l 0
 91.3330078125 43.6669921875 96.5 46 100.5 50 c 0
 104.5 54 106.5 59.1669921875 106.5 65.5 c 0
 106.5 431 l 0
 36 431 l 0
 36 467 l 0
 161 506 l 0
 201.5 506 l 0
 201.5 65.5 l 0
 201.5 59.1669921875 203.583007812 54 207.75 50 c 0
 211.916992188 46 217 43.6669921875 223 43 c 0
 275.5 40 l 0
 275.5 0 l 0
 35 0 l 0
EndSplineSet
EndChar

StartChar: j
Encoding: 77 106 77
Width: 299
VWidth: 965
Flags: HW
LayerCount: 2
Fore
SplineSet
218 662.5 m 0
 218 653.833007812 216.416992188 645.583007812 213.25 637.75 c 0
 210.083007812 629.916992188 205.666992188 623.166992188 200 617.5 c 0
 194.333007812 611.833007812 187.666992188 607.333007812 180 604 c 0
 172.333007812 600.666992188 164.166992188 599 155.5 599 c 0
 146.833007812 599 138.666992188 600.666992188 131 604 c 0
 123.333007812 607.333007812 116.583007812 611.833007812 110.75 617.5 c 0
 104.916992188 623.166992188 100.333007812 629.916992188 97 637.75 c 0
 93.6669921875 645.583007812 92 653.833007812 92 662.5 c 0
 92 671.166992188 93.6669921875 679.333007812 97 687 c 0
 100.333007812 694.666992188 104.916992188 701.333007812 110.75 707 c 0
 116.583007812 712.666992188 123.333007812 717.083007812 131 720.25 c 0
 138.666992188 723.416992188 146.833007812 725 155.5 725 c 0
 164.166992188 725 172.333007812 723.416992188 180 720.25 c 0
 187.666992188 717.083007812 194.333007812 712.666992188 200 707 c 0
 205.666992188 701.333007812 210.083007812 694.666992188 213.25 687 c 0
 216.416992188 679.333007812 218 671.166992188 218 662.5 c 0
207 65.5 m 0
 207 50.1669921875 206.5 33.4169921875 205.5 15.25 c 0
 204.5 -2.9169921875 202.583007812 -21.1669921875 199.75 -39.5 c 0
 196.916992188 -57.8330078125 192.916992188 -75.6669921875 187.75 -93 c 0
 182.583007812 -110.333007812 175.666992188 -125.833007812 167 -139.5 c 0
 146 -171.833007812 120.5 -195.75 90.5 -211.25 c 0
 60.5 -226.75 29.3330078125 -234.5 -3 -234.5 c 0
 -13.6669921875 -234.5 -23.6669921875 -233.416992188 -33 -231.25 c 0
 -42.3330078125 -229.083007812 -50.5830078125 -225.666992188 -57.75 -221 c 0
 -64.9169921875 -216.333007812 -70.5830078125 -210.416992188 -74.75 -203.25 c 0
 -78.9169921875 -196.083007812 -81 -187.666992188 -81 -178 c 0
 -81 -169.333007812 -79.6669921875 -161.75 -77 -155.25 c 0
 -74.3330078125 -148.75 -70.9169921875 -143.083007812 -66.75 -138.25 c 0
 -62.5830078125 -133.416992188 -57.8330078125 -129.416992188 -52.5 -126.25 c 0
 -47.1669921875 -123.083007812 -42 -120.666992188 -37 -119 c 0
 62.5 -187.5 l 0
 71.8330078125 -182.166992188 79.6669921875 -174.25 86 -163.75 c 0
 92.3330078125 -153.25 97.4169921875 -140.75 101.25 -126.25 c 0
 105.083007812 -111.75 107.75 -95.5830078125 109.25 -77.75 c 0
 110.75 -59.9169921875 111.5 -41.1669921875 111.5 -21.5 c 0
 111.5 433 l 0
 39 433 l 0
 39 467 l 0
 165 506 l 0
 207 506 l 0
 207 65.5 l 0
EndSplineSet
EndChar

StartChar: k
Encoding: 78 107 78
Width: 547
VWidth: 965
Flags: HW
LayerCount: 2
Fore
SplineSet
372.5 0 m 0
 372.5 40 l 0
 244.5 232.5 l 0
 187.5 232.5 l 0
 187.5 65.5 l 0
 187.5 59.1669921875 189.5 54 193.5 50 c 0
 197.5 46 202.666992188 43.6669921875 209 43 c 0
 253 40 l 0
 253 0 l 0
 20.5 0 l 0
 20.5 40 l 0
 70.5 43 l 0
 76.8330078125 43.6669921875 82 46 86 50 c 0
 90 54 92 59.1669921875 92 65.5 c 0
 92 681 l 0
 14.5 681 l 0
 14.5 715 l 0
 145.5 754.5 l 0
 187.5 754.5 l 0
 187.5 262 l 0
 208 262 l 0
 358.5 432 l 0
 361.166992188 435.333007812 361.583007812 438.916992188 359.75 442.75 c 0
 357.916992188 446.583007812 354.666992188 448.833007812 350 449.5 c 0
 308 453.5 l 0
 308 493.5 l 0
 507 493.5 l 0
 507 453.5 l 0
 441.5 446.5 l 0
 306 302 l 0
 482.5 46 l 0
 536.5 40 l 0
 536.5 0 l 0
 372.5 0 l 0
EndSplineSet
EndChar

StartChar: l
Encoding: 79 108 79
Width: 304
VWidth: 965
Flags: HW
LayerCount: 2
Fore
SplineSet
27.5 0 m 0
 27.5 40 l 0
 82 43 l 0
 86.6669921875 43 91.5830078125 45.4169921875 96.75 50.25 c 0
 101.916992188 55.0830078125 104.5 59.8330078125 104.5 64.5 c 0
 104.5 681 l 0
 26.5 681 l 0
 26.5 715 l 0
 157.5 754.5 l 0
 199.5 754.5 l 0
 199.5 64.5 l 0
 199.5 59.8330078125 201.916992188 55.0830078125 206.75 50.25 c 0
 211.583007812 45.4169921875 216.333007812 43 221 43 c 0
 276.5 40 l 0
 276.5 0 l 0
 27.5 0 l 0
EndSplineSet
EndChar

StartChar: m
Encoding: 80 109 80
Width: 870
VWidth: 965
Flags: HW
LayerCount: 2
Fore
SplineSet
618.5 0 m 0
 618.5 40 l 0
 661.5 43 l 0
 667.833007812 43.6669921875 673 46 677 50 c 0
 681 54 683 59.1669921875 683 65.5 c 0
 683 326.5 l 0
 683 342.5 681.5 356.916992188 678.5 369.75 c 0
 675.5 382.583007812 670.416992188 393.5 663.25 402.5 c 0
 656.083007812 411.5 646.666992188 418.5 635 423.5 c 0
 623.333007812 428.5 609 431 592 431 c 0
 583.333007812 431 574.25 430.25 564.75 428.75 c 0
 555.25 427.25 545.75 425.25 536.25 422.75 c 0
 526.75 420.25 517.416992188 417.25 508.25 413.75 c 0
 499.083007812 410.25 490.5 406.5 482.5 402.5 c 0
 482.5 65.5 l 0
 482.5 59.1669921875 484.5 54 488.5 50 c 0
 492.5 46 497.666992188 43.6669921875 504 43 c 0
 547 40 l 0
 547 0 l 0
 322.5 0 l 0
 322.5 40 l 0
 365.5 43 l 0
 371.833007812 43.6669921875 377 46 381 50 c 0
 385 54 387 59.1669921875 387 65.5 c 0
 387 333 l 0
 387 347.333007812 385.416992188 360.583007812 382.25 372.75 c 0
 379.083007812 384.916992188 373.916992188 395.25 366.75 403.75 c 0
 359.583007812 412.25 350.25 418.916992188 338.75 423.75 c 0
 327.25 428.583007812 313.333007812 431 297 431 c 0
 287.333007812 431 277.25 430.083007812 266.75 428.25 c 0
 256.25 426.416992188 246.166992188 424.083007812 236.5 421.25 c 0
 226.833007812 418.416992188 217.75 415.25 209.25 411.75 c 0
 200.75 408.25 193.5 404.833007812 187.5 401.5 c 0
 187.5 65.5 l 0
 187.5 59.1669921875 189.5 54 193.5 50 c 0
 197.5 46 202.666992188 43.6669921875 209 43 c 0
 252 40 l 0
 252 0 l 0
 20.5 0 l 0
 20.5 40 l 0
 70.5 43 l 0
 76.8330078125 43.6669921875 82 46 86 50 c 0
 90 54 92 59.1669921875 92 65.5 c 0
 92 421 l 0
 21.5 421 l 0
 21.5 454.5 l 0
 145.5 493.5 l 0
 187.5 493.5 l 0
 187.5 442.5 l 0
 198.833007812 449.5 211.416992188 456.666992188 225.25 464 c 0
 239.083007812 471.333007812 253.333007812 478.166992188 268 484.5 c 0
 282.666992188 490.833007812 297.416992188 496 312.25 500 c 0
 327.083007812 504 341.166992188 506 354.5 506 c 0
 369.166992188 506 382.5 503.916992188 394.5 499.75 c 0
 406.5 495.583007812 417.083007812 490.083007812 426.25 483.25 c 0
 435.416992188 476.416992188 443.416992188 468.75 450.25 460.25 c 0
 457.083007812 451.75 462.666992188 443.333007812 467 435 c 0
 477.333007812 441.333007812 489.833007812 448.666992188 504.5 457 c 0
 519.166992188 465.333007812 534.666992188 473.083007812 551 480.25 c 0
 567.333007812 487.416992188 583.666992188 493.5 600 498.5 c 0
 616.333007812 503.5 631.333007812 506 645 506 c 0
 672 506 694 501.083007812 711 491.25 c 0
 728 481.416992188 741.416992188 468.916992188 751.25 453.75 c 0
 761.083007812 438.583007812 767.833007812 421.666992188 771.5 403 c 0
 775.166992188 384.333007812 777 366.333007812 777 349 c 0
 777 65.5 l 0
 777 59.1669921875 779.083007812 54 783.25 50 c 0
 787.416992188 46 792.5 43.6669921875 798.5 43 c 0
 848 40 l 0
 848 0 l 0
 618.5 0 l 0
EndSplineSet
EndChar

StartChar: n
Encoding: 81 110 81
Width: 580
VWidth: 965
Flags: HW
LayerCount: 2
Fore
SplineSet
334 0 m 0
 334 40 l 0
 377 43 l 0
 383 43.6669921875 388.083007812 46 392.25 50 c 0
 396.416992188 54 398.5 59.1669921875 398.5 65.5 c 0
 398.5 332 l 0
 398.5 364.333007812 391 388.916992188 376 405.75 c 0
 361 422.583007812 335.666992188 431 300 431 c 0
 280.333007812 431 261 428.25 242 422.75 c 0
 223 417.25 204.833007812 410.166992188 187.5 401.5 c 0
 187.5 65.5 l 0
 187.5 59.1669921875 189.5 54 193.5 50 c 0
 197.5 46 202.666992188 43.6669921875 209 43 c 0
 252 40 l 0
 252 0 l 0
 20.5 0 l 0
 20.5 40 l 0
 70.5 43 l 0
 76.8330078125 43.6669921875 82 46 86 50 c 0
 90 54 92 59.1669921875 92 65.5 c 0
 92 421 l 0
 20.5 421 l 0
 20.5 454.5 l 0
 145.5 493.5 l 0
 187.5 493.5 l 0
 187.5 442.5 l 0
 201.833007812 450.5 216.416992188 458.333007812 231.25 466 c 0
 246.083007812 473.666992188 260.833007812 480.5 275.5 486.5 c 0
 290.166992188 492.5 304.333007812 497.25 318 500.75 c 0
 331.666992188 504.25 344.5 506 356.5 506 c 0
 401.166992188 506 435.166992188 492.166992188 458.5 464.5 c 0
 481.833007812 436.833007812 493.5 398 493.5 348 c 0
 493.5 65.5 l 0
 493.5 59.1669921875 495.583007812 54 499.75 50 c 0
 503.916992188 46 509 43.6669921875 515 43 c 0
 560 40 l 0
 560 0 l 0
 334 0 l 0
EndSplineSet
EndChar

StartChar: o
Encoding: 82 111 82
Width: 557
VWidth: 965
Flags: HW
LayerCount: 2
Fore
SplineSet
522 246 m 0
 522 209.666992188 516.25 175.75 504.75 144.25 c 0
 493.25 112.75 476.916992188 85.4169921875 455.75 62.25 c 0
 434.583007812 39.0830078125 408.916992188 20.8330078125 378.75 7.5 c 0
 348.583007812 -5.8330078125 314.833007812 -12.5 277.5 -12.5 c 0
 240.166992188 -12.5 206.5 -5.9169921875 176.5 7.25 c 0
 146.5 20.4169921875 121 38.5 100 61.5 c 0
 79 84.5 62.9169921875 111.75 51.75 143.25 c 0
 40.5830078125 174.75 35 209 35 246 c 0
 35 282.333007812 40.6669921875 316.333007812 52 348 c 0
 63.3330078125 379.666992188 79.6669921875 407.25 101 430.75 c 0
 122.333007812 454.25 148.083007812 472.666992188 178.25 486 c 0
 208.416992188 499.333007812 242.5 506 280.5 506 c 0
 318.5 506 352.5 499.166992188 382.5 485.5 c 0
 412.5 471.833007812 437.833007812 453.25 458.5 429.75 c 0
 479.166992188 406.25 494.916992188 378.75 505.75 347.25 c 0
 516.583007812 315.75 522 282 522 246 c 0
415.5 247 m 0
 415.5 275 412.75 301.833007812 407.25 327.5 c 0
 401.75 353.166992188 393.333007812 375.833007812 382 395.5 c 0
 370.666992188 415.166992188 356.5 430.833007812 339.5 442.5 c 0
 322.5 454.166992188 302.5 460 279.5 460 c 0
 255.833007812 460 235.333007812 454.166992188 218 442.5 c 0
 200.666992188 430.833007812 186.416992188 415.166992188 175.25 395.5 c 0
 164.083007812 375.833007812 155.833007812 353.166992188 150.5 327.5 c 0
 145.166992188 301.833007812 142.5 275 142.5 247 c 0
 142.5 219.333007812 145.25 192.666992188 150.75 167 c 0
 156.25 141.333007812 164.666992188 118.666992188 176 99 c 0
 187.333007812 79.3330078125 201.5 63.5830078125 218.5 51.75 c 0
 235.5 39.9169921875 255.5 34 278.5 34 c 0
 301.833007812 34 322.166992188 39.8330078125 339.5 51.5 c 0
 356.833007812 63.1669921875 371.083007812 78.8330078125 382.25 98.5 c 0
 393.416992188 118.166992188 401.75 140.833007812 407.25 166.5 c 0
 412.75 192.166992188 415.5 219 415.5 247 c 0
EndSplineSet
EndChar

StartChar: p
Encoding: 83 112 83
Width: 572
VWidth: 965
Flags: HW
LayerCount: 2
Fore
SplineSet
537.5 254 m 0
 537.5 213.666992188 531.583007812 177.083007812 519.75 144.25 c 0
 507.916992188 111.416992188 490.916992188 83.4169921875 468.75 60.25 c 0
 446.583007812 37.0830078125 419.416992188 19.1669921875 387.25 6.5 c 0
 355.083007812 -6.1669921875 318.833007812 -12.5 278.5 -12.5 c 0
 269.166992188 -12.5 259.166992188 -12.0830078125 248.5 -11.25 c 0
 237.833007812 -10.4169921875 228 -9.3330078125 219 -8 c 0
 208.333007812 -6.6669921875 197.833007812 -5 187.5 -3 c 0
 187.5 -155.5 l 0
 187.5 -161.833007812 189.666992188 -166.833007812 194 -170.5 c 0
 198.333007812 -174.166992188 203.666992188 -176.333007812 210 -177 c 0
 270.5 -183.5 l 0
 270.5 -223 l 0
 21.5 -223 l 0
 21.5 -183.5 l 0
 70.5 -177 l 0
 76.8330078125 -176.333007812 82 -174.166992188 86 -170.5 c 0
 90 -166.833007812 92 -161.833007812 92 -155.5 c 0
 92 421 l 0
 21.5 421 l 0
 21.5 454.5 l 0
 147.5 493.5 l 0
 187.5 493.5 l 0
 187.5 442.5 l 0
 202.166992188 454.166992188 217.833007812 464.666992188 234.5 474 c 0
 248.833007812 482 265.333007812 489.333007812 284 496 c 0
 302.666992188 502.666992188 322 506 342 506 c 0
 368.333007812 506 393.333007812 500 417 488 c 0
 440.666992188 476 461.416992188 459 479.25 437 c 0
 497.083007812 415 511.25 388.5 521.75 357.5 c 0
 532.25 326.5 537.5 292 537.5 254 c 0
435 239.5 m 0
 435 265.833007812 431.916992188 290.75 425.75 314.25 c 0
 419.583007812 337.75 410.5 358.416992188 398.5 376.25 c 0
 386.5 394.083007812 371.583007812 408.166992188 353.75 418.5 c 0
 335.916992188 428.833007812 315.333007812 434 292 434 c 0
 279 434 266.25 432.333007812 253.75 429 c 0
 241.25 425.666992188 230.166992188 422.166992188 220.5 418.5 c 0
 209.166992188 414.166992188 198.166992188 409.166992188 187.5 403.5 c 0
 187.5 51 l 0
 195.5 48 204 45.3330078125 213 43 c 0
 220.666992188 41 229.5 39.1669921875 239.5 37.5 c 0
 249.5 35.8330078125 259.833007812 35 270.5 35 c 0
 298.5 35 322.833007812 40.6669921875 343.5 52 c 0
 364.166992188 63.3330078125 381.25 78.4169921875 394.75 97.25 c 0
 408.25 116.083007812 418.333007812 137.833007812 425 162.5 c 0
 431.666992188 187.166992188 435 212.833007812 435 239.5 c 0
EndSplineSet
EndChar

StartChar: q
Encoding: 84 113 84
Width: 562
VWidth: 965
Flags: HW
LayerCount: 2
Fore
SplineSet
299 -223 m 0
 299 -184.5 l 0
 359.5 -179 l 0
 365.5 -178.333007812 370.583007812 -176.166992188 374.75 -172.5 c 0
 378.916992188 -168.833007812 381 -163.833007812 381 -157.5 c 0
 381 27.5 l 0
 371.333007812 22.8330078125 360.666992188 18.1669921875 349 13.5 c 0
 337.333007812 8.8330078125 325.083007812 4.5830078125 312.25 0.75 c 0
 299.416992188 -3.0830078125 286.583007812 -6.25 273.75 -8.75 c 0
 260.916992188 -11.25 248.833007812 -12.5 237.5 -12.5 c 0
 205.833007812 -12.5 177.5 -6 152.5 7 c 0
 127.5 20 106.333007812 37.6669921875 89 60 c 0
 71.6669921875 82.3330078125 58.3330078125 108.5 49 138.5 c 0
 39.6669921875 168.5 35 200.5 35 234.5 c 0
 35 276.166992188 41.6669921875 313.75 55 347.25 c 0
 68.3330078125 380.75 87.6669921875 409.25 113 432.75 c 0
 138.333007812 456.25 169.333007812 474.333007812 206 487 c 0
 242.666992188 499.666992188 284.333007812 506 331 506 c 0
 340.333007812 506 351.166992188 505.583007812 363.5 504.75 c 0
 375.833007812 503.916992188 388.5 502.833007812 401.5 501.5 c 0
 414.5 500.166992188 427.5 498.416992188 440.5 496.25 c 0
 453.5 494.083007812 465.333007812 491.833007812 476 489.5 c 0
 476 -157.5 l 0
 476 -163.833007812 478.083007812 -168.75 482.25 -172.25 c 0
 486.416992188 -175.75 491.5 -178 497.5 -179 c 0
 547 -184.5 l 0
 547 -223 l 0
 299 -223 l 0
381 447.5 m 0
 371.666992188 449.5 361.083007812 451.916992188 349.25 454.75 c 0
 337.416992188 457.583007812 324.5 459 310.5 459 c 0
 282.5 459 257.75 454 236.25 444 c 0
 214.75 434 196.75 419.916992188 182.25 401.75 c 0
 167.75 383.583007812 156.75 361.75 149.25 336.25 c 0
 141.75 310.75 138 282.333007812 138 251 c 0
 138 224.666992188 140.916992188 199.25 146.75 174.75 c 0
 152.583007812 150.25 161.75 128.666992188 174.25 110 c 0
 186.75 91.3330078125 202.75 76.3330078125 222.25 65 c 0
 241.75 53.6669921875 265.333007812 48 293 48 c 0
 299.333007812 48 306.416992188 48.4169921875 314.25 49.25 c 0
 322.083007812 50.0830078125 330 51.1669921875 338 52.5 c 0
 346 53.8330078125 353.75 55.4169921875 361.25 57.25 c 0
 368.75 59.0830078125 375.333007812 60.8330078125 381 62.5 c 0
 381 447.5 l 0
EndSplineSet
EndChar

StartChar: r
Encoding: 85 114 85
Width: 400
VWidth: 965
Flags: HW
LayerCount: 2
Fore
SplineSet
350 389 m 0
 343.333007812 396.666992188 335.666992188 403.25 327 408.75 c 0
 318.333007812 414.25 307.666992188 417 295 417 c 0
 278.333007812 417 261.5 411.416992188 244.5 400.25 c 0
 227.5 389.083007812 210.166992188 373.5 192.5 353.5 c 0
 192.5 65.5 l 0
 192.5 59.1669921875 194.5 54 198.5 50 c 0
 202.5 46 207.666992188 43.6669921875 214 43 c 0
 281.5 40 l 0
 281.5 0 l 0
 25.5 0 l 0
 25.5 39 l 0
 76 43 l 0
 82 43.6669921875 87.0830078125 46 91.25 50 c 0
 95.4169921875 54 97.5 59.1669921875 97.5 65.5 c 0
 97.5 421 l 0
 23.5 421 l 0
 23.5 454.5 l 0
 150.5 493.5 l 0
 192.5 493.5 l 0
 192.5 402.5 l 0
 199.833007812 410.5 208.75 420.416992188 219.25 432.25 c 0
 229.75 444.083007812 241 455.5 253 466.5 c 0
 265 477.5 277.416992188 486.833007812 290.25 494.5 c 0
 303.083007812 502.166992188 315.5 506 327.5 506 c 0
 332.833007812 506 338.5 505.5 344.5 504.5 c 0
 350.5 503.5 356.333007812 502.25 362 500.75 c 0
 367.666992188 499.25 372.916992188 497.583007812 377.75 495.75 c 0
 382.583007812 493.916992188 386.666992188 492.166992188 390 490.5 c 0
 390 389 l 0
 350 389 l 0
EndSplineSet
EndChar

StartChar: s
Encoding: 86 115 86
Width: 407
VWidth: 965
Flags: HW
LayerCount: 2
Fore
SplineSet
372.5 148.5 m 0
 372.5 123.5 368 101 359 81 c 0
 350 61 337.166992188 44.0830078125 320.5 30.25 c 0
 303.833007812 16.4169921875 283.333007812 5.8330078125 259 -1.5 c 0
 234.666992188 -8.8330078125 207.333007812 -12.5 177 -12.5 c 0
 161.333007812 -12.5 146.083007812 -11.5830078125 131.25 -9.75 c 0
 116.416992188 -7.9169921875 102.75 -5.5830078125 90.25 -2.75 c 0
 77.75 0.0830078125 66.6669921875 3 57 6 c 0
 47.3330078125 9 40 11.5 35 13.5 c 0
 35 149.5 l 0
 87 149.5 l 0
 99.5 62.5 l 0
 109.833007812 55.8330078125 122.583007812 49.4169921875 137.75 43.25 c 0
 152.916992188 37.0830078125 170.5 34 190.5 34 c 0
 205.166992188 34 218.166992188 36.25 229.5 40.75 c 0
 240.833007812 45.25 250.416992188 51.1669921875 258.25 58.5 c 0
 266.083007812 65.8330078125 272.083007812 74.25 276.25 83.75 c 0
 280.416992188 93.25 282.5 103.166992188 282.5 113.5 c 0
 282.5 127.833007812 279.666992188 140.083007812 274 150.25 c 0
 268.333007812 160.416992188 260.166992188 169.583007812 249.5 177.75 c 0
 238.833007812 185.916992188 225.75 193.833007812 210.25 201.5 c 0
 194.75 209.166992188 177.166992188 217.833007812 157.5 227.5 c 0
 138.833007812 236.5 122.333007812 245.416992188 108 254.25 c 0
 93.6669921875 263.083007812 81.5830078125 272.583007812 71.75 282.75 c 0
 61.9169921875 292.916992188 54.5 304.083007812 49.5 316.25 c 0
 44.5 328.416992188 42 342.166992188 42 357.5 c 0
 42 380.166992188 46.0830078125 400.666992188 54.25 419 c 0
 62.4169921875 437.333007812 74.3330078125 452.916992188 90 465.75 c 0
 105.666992188 478.583007812 124.916992188 488.5 147.75 495.5 c 0
 170.583007812 502.5 196.833007812 506 226.5 506 c 0
 241.5 506 255.833007812 505.166992188 269.5 503.5 c 0
 283.166992188 501.833007812 295.666992188 499.833007812 307 497.5 c 0
 318.333007812 495.166992188 328.333007812 492.666992188 337 490 c 0
 345.666992188 487.333007812 352.5 484.833007812 357.5 482.5 c 0
 357.5 361.5 l 0
 304 361.5 l 0
 296 433 l 0
 288.666992188 438.666992188 277.833007812 444 263.5 449 c 0
 249.166992188 454 234 456.5 218 456.5 c 0
 189.666992188 456.5 168.75 450.083007812 155.25 437.25 c 0
 141.75 424.416992188 135 408 135 388 c 0
 135 376.333007812 136.916992188 366.166992188 140.75 357.5 c 0
 144.583007812 348.833007812 150.916992188 340.666992188 159.75 333 c 0
 168.583007812 325.333007812 180.25 317.5 194.75 309.5 c 0
 209.25 301.5 227.333007812 292.5 249 282.5 c 0
 267 274.5 283.5 266.166992188 298.5 257.5 c 0
 313.5 248.833007812 326.5 239.166992188 337.5 228.5 c 0
 348.5 217.833007812 357.083007812 206 363.25 193 c 0
 369.416992188 180 372.5 165.166992188 372.5 148.5 c 0
EndSplineSet
EndChar

StartChar: t
Encoding: 87 116 87
Width: 348
VWidth: 965
Flags: HW
LayerCount: 2
Fore
SplineSet
341 21.5 m 0
 328.333007812 15.1669921875 314.5 9.5 299.5 4.5 c 0
 286.833007812 0.1669921875 272.166992188 -3.75 255.5 -7.25 c 0
 238.833007812 -10.75 221.333007812 -12.5 203 -12.5 c 0
 164.333007812 -12.5 136.333007812 -3.5 119 14.5 c 0
 101.666992188 32.5 93 61.8330078125 93 102.5 c 0
 93 442.5 l 0
 27.5 442.5 l 0
 27.5 476 l 0
 97.5 509 l 0
 143.5 617.5 l 0
 188.5 617.5 l 0
 188.5 493.5 l 0
 333 493.5 l 0
 333 442.5 l 0
 188.5 442.5 l 0
 188.5 156.5 l 0
 188.5 136.166992188 190.25 118.916992188 193.75 104.75 c 0
 197.25 90.5830078125 202.416992188 79.0830078125 209.25 70.25 c 0
 216.083007812 61.4169921875 224.583007812 55 234.75 51 c 0
 244.916992188 47 256.833007812 45 270.5 45 c 0
 280.5 45 289.75 45.8330078125 298.25 47.5 c 0
 306.75 49.1669921875 314.166992188 51.1669921875 320.5 53.5 c 0
 327.833007812 56.1669921875 334.666992188 59.1669921875 341 62.5 c 0
 341 21.5 l 0
EndSplineSet
EndChar

StartChar: u
Encoding: 88 117 88
Width: 582
VWidth: 965
Flags: HW
LayerCount: 2
Fore
SplineSet
397.5 0 m 0
 397.5 58.5 l 0
 388.833007812 51.8330078125 378.25 44.3330078125 365.75 36 c 0
 353.25 27.6669921875 339.75 19.9169921875 325.25 12.75 c 0
 310.75 5.5830078125 295.583007812 -0.4169921875 279.75 -5.25 c 0
 263.916992188 -10.0830078125 248.5 -12.5 233.5 -12.5 c 0
 211.5 -12.5 191.75 -9.25 174.25 -2.75 c 0
 156.75 3.75 141.916992188 13.75 129.75 27.25 c 0
 117.583007812 40.75 108.25 57.9169921875 101.75 78.75 c 0
 95.25 99.5830078125 92 124.5 92 153.5 c 0
 92 431 l 0
 20.5 431 l 0
 20.5 466 l 0
 146.5 506 l 0
 187.5 506 l 0
 187.5 173 l 0
 187.5 155 189.25 138.833007812 192.75 124.5 c 0
 196.25 110.166992188 201.916992188 98 209.75 88 c 0
 217.583007812 78 227.833007812 70.4169921875 240.5 65.25 c 0
 253.166992188 60.0830078125 268.5 57.5 286.5 57.5 c 0
 296.833007812 57.5 307.333007812 58.5 318 60.5 c 0
 328.666992188 62.5 338.833007812 65.0830078125 348.5 68.25 c 0
 358.166992188 71.4169921875 367.25 74.75 375.75 78.25 c 0
 384.25 81.75 391.5 85 397.5 88 c 0
 397.5 431 l 0
 325.5 431 l 0
 325.5 466 l 0
 450.5 506 l 0
 492.5 506 l 0
 492.5 65.5 l 0
 492.5 59.1669921875 494.75 54 499.25 50 c 0
 503.75 46 509 43.6669921875 515 43 c 0
 560 40 l 0
 560 0 l 0
 397.5 0 l 0
EndSplineSet
EndChar

StartChar: v
Encoding: 89 118 89
Width: 541
VWidth: 965
Flags: HW
LayerCount: 2
Fore
SplineSet
477 447.5 m 0
 298 0 l 0
 231.5 0 l 0
 66.5 447.5 l 0
 10 453.5 l 0
 10 493.5 l 0
 236.5 493.5 l 0
 236.5 453.5 l 0
 187.5 450.5 l 0
 181.833007812 449.833007812 177.333007812 447.333007812 174 443 c 0
 170.666992188 438.666992188 170 433.666992188 172 428 c 0
 286.5 107.5 l 0
 412.5 428 l 0
 414.833007812 433.333007812 414.5 438.25 411.5 442.75 c 0
 408.5 447.25 404.166992188 449.833007812 398.5 450.5 c 0
 352.5 453.5 l 0
 352.5 493.5 l 0
 531.5 493.5 l 0
 531.5 453.5 l 0
 477 447.5 l 0
EndSplineSet
EndChar

StartChar: w
Encoding: 90 119 90
Width: 802
VWidth: 965
Flags: HW
LayerCount: 2
Fore
SplineSet
739.5 447.5 m 0
 599 0 l 0
 526.5 0 l 0
 405.5 383 l 0
 270.5 0 l 0
 197.5 0 l 0
 66.5 447.5 l 0
 10 453.5 l 0
 10 493.5 l 0
 234.5 493.5 l 0
 234.5 453.5 l 0
 186.5 450.5 l 0
 180.833007812 449.833007812 176.416992188 447.333007812 173.25 443 c 0
 170.083007812 438.666992188 169.333007812 433.666992188 171 428 c 0
 256 109.5 l 0
 388 493.5 l 0
 461 493.5 l 0
 579.5 109.5 l 0
 674 428 l 0
 675.666992188 433.333007812 675.083007812 438.25 672.25 442.75 c 0
 669.416992188 447.25 665.166992188 449.833007812 659.5 450.5 c 0
 612.5 453.5 l 0
 612.5 493.5 l 0
 791.5 493.5 l 0
 791.5 453.5 l 0
 739.5 447.5 l 0
EndSplineSet
EndChar

StartChar: x
Encoding: 91 120 91
Width: 522
VWidth: 965
Flags: HW
LayerCount: 2
Fore
SplineSet
292 0 m 0
 292 40 l 0
 326.5 44 l 0
 331.166992188 44.6669921875 334.416992188 47 336.25 51 c 0
 338.083007812 55 338 58.8330078125 336 62.5 c 0
 248 193.5 l 0
 147.5 62.5 l 0
 144.833007812 59.5 144 55.8330078125 145 51.5 c 0
 146 47.1669921875 148.833007812 44.6669921875 153.5 44 c 0
 205 40 l 0
 205 0 l 0
 10 0 l 0
 10 40 l 0
 68.5 48 l 0
 215 238.5 l 0
 76 444.5 l 0
 15.5 453.5 l 0
 15.5 493.5 l 0
 240.5 493.5 l 0
 240.5 453.5 l 0
 205 448.5 l 0
 200.333007812 447.833007812 196.916992188 445.5 194.75 441.5 c 0
 192.583007812 437.5 192.5 433.666992188 194.5 430 c 0
 275.5 315.5 l 0
 364.5 430 l 0
 367.166992188 433 367.833007812 436.666992188 366.5 441 c 0
 365.166992188 445.333007812 362.166992188 447.833007812 357.5 448.5 c 0
 313.5 453.5 l 0
 313.5 493.5 l 0
 497.5 493.5 l 0
 497.5 453.5 l 0
 442.5 444.5 l 0
 305 269.5 l 0
 456.5 48 l 0
 512 40 l 0
 512 0 l 0
 292 0 l 0
EndSplineSet
EndChar

StartChar: y
Encoding: 92 121 92
Width: 542
VWidth: 965
Flags: HW
LayerCount: 2
Fore
SplineSet
479 447.5 m 0
 282.5 -31.5 l 0
 279.166992188 -39.8330078125 274.5 -51 268.5 -65 c 0
 262.5 -79 255.416992188 -93.9169921875 247.25 -109.75 c 0
 239.083007812 -125.583007812 230.083007812 -141.166992188 220.25 -156.5 c 0
 210.416992188 -171.833007812 200.166992188 -184.833007812 189.5 -195.5 c 0
 177.166992188 -207.833007812 163.583007812 -217.416992188 148.75 -224.25 c 0
 133.916992188 -231.083007812 117.833007812 -234.5 100.5 -234.5 c 0
 88.5 -234.5 77.8330078125 -232.916992188 68.5 -229.75 c 0
 59.1669921875 -226.583007812 51.3330078125 -222.333007812 45 -217 c 0
 38.6669921875 -211.666992188 33.8330078125 -205.416992188 30.5 -198.25 c 0
 27.1669921875 -191.083007812 25.5 -183.666992188 25.5 -176 c 0
 25.5 -164.333007812 28.0830078125 -153.583007812 33.25 -143.75 c 0
 38.4169921875 -133.916992188 46.8330078125 -124.166992188 58.5 -114.5 c 0
 154.5 -158.5 l 0
 162.833007812 -150.166992188 171.333007812 -139.25 180 -125.75 c 0
 188.666992188 -112.25 196.833007812 -98 204.5 -83 c 0
 212.166992188 -68 219.166992188 -53.0830078125 225.5 -38.25 c 0
 231.833007812 -23.4169921875 236.833007812 -10.3330078125 240.5 1 c 0
 66.5 447.5 l 0
 10 453.5 l 0
 10 493.5 l 0
 236.5 493.5 l 0
 236.5 453.5 l 0
 187.5 450.5 l 0
 181.833007812 449.833007812 177.333007812 447.333007812 174 443 c 0
 170.666992188 438.666992188 170 433.666992188 172 428 c 0
 291 126 l 0
 412.5 428 l 0
 414.833007812 433.333007812 414.5 438.25 411.5 442.75 c 0
 408.5 447.25 404.166992188 449.833007812 398.5 450.5 c 0
 350 453.5 l 0
 350 493.5 l 0
 532.5 493.5 l 0
 532.5 453.5 l 0
 479 447.5 l 0
EndSplineSet
EndChar

StartChar: z
Encoding: 93 122 93
Width: 473
VWidth: 965
Flags: HW
LayerCount: 2
Fore
SplineSet
35 0 m 0
 35 54.5 l 0
 306 445.5 l 0
 128 445.5 l 0
 123 445.5 118.583007812 443.083007812 114.75 438.25 c 0
 110.916992188 433.416992188 108.5 428.666992188 107.5 424 c 0
 97.5 348 l 0
 45 348 l 0
 45 493.5 l 0
 424 493.5 l 0
 424 451.5 l 0
 143.5 49 l 0
 350 49 l 0
 352.333007812 49 354.75 49.8330078125 357.25 51.5 c 0
 359.75 53.1669921875 362.083007812 55.1669921875 364.25 57.5 c 0
 366.416992188 59.8330078125 368.25 62.4169921875 369.75 65.25 c 0
 371.25 68.0830078125 372.166992188 70.8330078125 372.5 73.5 c 0
 383 154.5 l 0
 438.5 154.5 l 0
 438.5 0 l 0
 35 0 l 0
EndSplineSet
EndChar

StartChar: braceleft
Encoding: 94 123 94
Width: 499
VWidth: 965
Flags: HW
LayerCount: 2
Fore
SplineSet
429 -126 m 0
 411 -126 393.166992188 -125.333007812 375.5 -124 c 0
 357.833007812 -122.666992188 341.166992188 -120.25 325.5 -116.75 c 0
 309.833007812 -113.25 295.583007812 -108.666992188 282.75 -103 c 0
 269.916992188 -97.3330078125 259.333007812 -90 251 -81 c 0
 239.333007812 -69 230.666992188 -55.9169921875 225 -41.75 c 0
 219.333007812 -27.5830078125 215.25 -12.6669921875 212.75 3 c 0
 210.25 18.6669921875 209 34.6669921875 209 51 c 0
 209 139 l 0
 209 152.666992188 208.166992188 166.166992188 206.5 179.5 c 0
 204.833007812 192.833007812 202 205.5 198 217.5 c 0
 194 229.5 188 239.333007812 180 247 c 0
 174 253 167.166992188 257.75 159.5 261.25 c 0
 151.833007812 264.75 143.25 267.5 133.75 269.5 c 0
 124.25 271.5 113.583007812 272.833007812 101.75 273.5 c 0
 89.9169921875 274.166992188 76.5 274.5 61.5 274.5 c 0
 61.5 320.5 l 0
 76.5 320.5 89.9169921875 320.833007812 101.75 321.5 c 0
 113.583007812 322.166992188 124.25 323.5 133.75 325.5 c 0
 143.25 327.5 151.833007812 330.25 159.5 333.75 c 0
 167.166992188 337.25 174 342 180 348 c 0
 188 355.666992188 194 365.5 198 377.5 c 0
 202 389.5 204.833007812 402.166992188 206.5 415.5 c 0
 208.166992188 428.833007812 209 442.333007812 209 456 c 0
 209 543.5 l 0
 209 560.166992188 210.25 576.25 212.75 591.75 c 0
 215.25 607.25 219.333007812 622.166992188 225 636.5 c 0
 230.666992188 650.833007812 239.333007812 664 251 676 c 0
 259.333007812 685 269.916992188 692.333007812 282.75 698 c 0
 295.583007812 703.666992188 309.833007812 708.25 325.5 711.75 c 0
 341.166992188 715.25 357.833007812 717.666992188 375.5 719 c 0
 393.166992188 720.333007812 411 721 429 721 c 0
 429 679 l 0
 424.666992188 679 418 678.666992188 409 678 c 0
 400 677.333007812 390.25 676 379.75 674 c 0
 369.25 672 359 668.916992188 349 664.75 c 0
 339 660.583007812 330.833007812 655 324.5 648 c 0
 317.5 640.333007812 312.25 630.833007812 308.75 619.5 c 0
 305.25 608.166992188 302.833007812 595.75 301.5 582.25 c 0
 300.166992188 568.75 299.583007812 554.666992188 299.75 540 c 0
 299.916992188 525.333007812 300 510.833007812 300 496.5 c 0
 300 484.833007812 299.75 472.583007812 299.25 459.75 c 0
 298.75 446.916992188 297.5 434.25 295.5 421.75 c 0
 293.5 409.25 290.583007812 397.416992188 286.75 386.25 c 0
 282.916992188 375.083007812 277.5 365.166992188 270.5 356.5 c 0
 256.833007812 338.833007812 240.583007812 325.833007812 221.75 317.5 c 0
 202.916992188 309.166992188 183 302.666992188 162 298 c 0
 183 293.333007812 202.916992188 286.666992188 221.75 278 c 0
 240.583007812 269.333007812 256.833007812 256.166992188 270.5 238.5 c 0
 277.5 229.833007812 282.916992188 219.916992188 286.75 208.75 c 0
 290.583007812 197.583007812 293.5 185.75 295.5 173.25 c 0
 297.5 160.75 298.75 148.083007812 299.25 135.25 c 0
 299.75 122.416992188 300 110.166992188 300 98.5 c 0
 300 84.1669921875 299.916992188 69.6669921875 299.75 55 c 0
 299.583007812 40.3330078125 300.166992188 26.25 301.5 12.75 c 0
 302.833007812 -0.75 305.25 -13.1669921875 308.75 -24.5 c 0
 312.25 -35.8330078125 317.5 -45.3330078125 324.5 -53 c 0
 330.833007812 -60 339 -65.5830078125 349 -69.75 c 0
 359 -73.9169921875 369.25 -77 379.75 -79 c 0
 390.25 -81 400 -82.3330078125 409 -83 c 0
 418 -83.6669921875 424.666992188 -84 429 -84 c 0
 429 -126 l 0
EndSplineSet
EndChar

StartChar: bar
Encoding: 95 124 95
Width: 362
VWidth: 965
Flags: HW
LayerCount: 2
Fore
SplineSet
150 -264 m 0
 150 815 l 0
 212 815 l 0
 212 -264 l 0
 150 -264 l 0
EndSplineSet
EndChar

StartChar: braceright
Encoding: 96 125 96
Width: 499
VWidth: 965
Flags: HW
LayerCount: 2
Fore
SplineSet
438.5 274.5 m 0
 408.833007812 274.5 384.666992188 272.833007812 366 269.5 c 0
 347.333007812 266.166992188 331.833007812 258.666992188 319.5 247 c 0
 311.5 239.333007812 305.5 229.5 301.5 217.5 c 0
 297.5 205.5 294.75 192.833007812 293.25 179.5 c 0
 291.75 166.166992188 291 152.666992188 291 139 c 0
 291 51 l 0
 291 34.6669921875 289.75 18.6669921875 287.25 3 c 0
 284.75 -12.6669921875 280.583007812 -27.5830078125 274.75 -41.75 c 0
 268.916992188 -55.9169921875 260.333007812 -69 249 -81 c 0
 240.333007812 -90 229.666992188 -97.3330078125 217 -103 c 0
 204.333007812 -108.666992188 190.166992188 -113.25 174.5 -116.75 c 0
 158.833007812 -120.25 142.166992188 -122.666992188 124.5 -124 c 0
 106.833007812 -125.333007812 88.8330078125 -126 70.5 -126 c 0
 70.5 -84 l 0
 74.8330078125 -84 81.5 -83.6669921875 90.5 -83 c 0
 99.5 -82.3330078125 109.25 -81 119.75 -79 c 0
 130.25 -77 140.5 -73.9169921875 150.5 -69.75 c 0
 160.5 -65.5830078125 168.666992188 -60 175 -53 c 0
 182.333007812 -45.3330078125 187.666992188 -35.8330078125 191 -24.5 c 0
 194.333007812 -13.1669921875 196.666992188 -0.75 198 12.75 c 0
 199.333007812 26.25 199.916992188 40.3330078125 199.75 55 c 0
 199.583007812 69.6669921875 199.5 84.1669921875 199.5 98.5 c 0
 199.5 110.166992188 199.75 122.416992188 200.25 135.25 c 0
 200.75 148.083007812 202 160.75 204 173.25 c 0
 206 185.75 209 197.583007812 213 208.75 c 0
 217 219.916992188 222.5 229.833007812 229.5 238.5 c 0
 242.833007812 256.166992188 259 269.333007812 278 278 c 0
 297 286.666992188 317 293.333007812 338 298 c 0
 327.333007812 300.333007812 317 303 307 306 c 0
 297 309 287.333007812 312.833007812 278 317.5 c 0
 268.666992188 322.166992188 259.916992188 327.666992188 251.75 334 c 0
 243.583007812 340.333007812 236.166992188 347.833007812 229.5 356.5 c 0
 222.5 365.166992188 217 375.083007812 213 386.25 c 0
 209 397.416992188 206 409.25 204 421.75 c 0
 202 434.25 200.75 446.916992188 200.25 459.75 c 0
 199.75 472.583007812 199.5 484.833007812 199.5 496.5 c 0
 199.5 510.833007812 199.583007812 525.333007812 199.75 540 c 0
 199.916992188 554.666992188 199.333007812 568.75 198 582.25 c 0
 196.666992188 595.75 194.333007812 608.166992188 191 619.5 c 0
 187.666992188 630.833007812 182.333007812 640.333007812 175 648 c 0
 168.666992188 655 160.5 660.583007812 150.5 664.75 c 0
 140.5 668.916992188 130.25 672 119.75 674 c 0
 109.25 676 99.5 677.333007812 90.5 678 c 0
 81.5 678.666992188 74.8330078125 679 70.5 679 c 0
 70.5 721 l 0
 88.8330078125 721 106.833007812 720.333007812 124.5 719 c 0
 142.166992188 717.666992188 158.833007812 715.25 174.5 711.75 c 0
 190.166992188 708.25 204.333007812 703.666992188 217 698 c 0
 229.666992188 692.333007812 240.333007812 685 249 676 c 0
 260.333007812 664 268.916992188 650.833007812 274.75 636.5 c 0
 280.583007812 622.166992188 284.75 607.25 287.25 591.75 c 0
 289.75 576.25 291 560.166992188 291 543.5 c 0
 291 456 l 0
 291 442.333007812 291.75 428.833007812 293.25 415.5 c 0
 294.75 402.166992188 297.5 389.5 301.5 377.5 c 0
 305.5 365.5 311.5 355.666992188 319.5 348 c 0
 331.833007812 336.333007812 347.333007812 328.833007812 366 325.5 c 0
 384.666992188 322.166992188 408.833007812 320.5 438.5 320.5 c 0
 438.5 274.5 l 0
EndSplineSet
EndChar

StartChar: asciitilde
Encoding: 97 126 97
Width: 853
VWidth: 965
Flags: HW
LayerCount: 2
Fore
SplineSet
382.5 156.75 m 0
 372.666015625 149.916015625 363.5 144.208984375 355 139.625 c 0
 346.5 135.041015625 338.375 131.333984375 330.625 128.5 c 0
 322.875 125.666015625 315.375 123.666015625 308.125 122.5 c 0
 300.875 121.333984375 293.583984375 120.75 286.25 120.75 c 0
 274.083984375 120.75 262 122.541015625 250 126.125 c 0
 238 129.708984375 225.916015625 133.666015625 213.75 138 c 0
 201.583984375 142.333984375 189.25 146.291015625 176.75 149.875 c 0
 164.25 153.458984375 151.416015625 155.25 138.25 155.25 c 0
 125.25 155.25 110.583984375 151.708984375 94.25 144.625 c 0
 77.916015625 137.541015625 61.166015625 127.75 44 115.25 c 0
 44 148.5 l 0
 62.333984375 161.5 79.666015625 170.791015625 96 176.375 c 0
 112.333984375 181.958984375 127.416015625 184.75 141.25 184.75 c 0
 153.75 184.75 166.25 182.958984375 178.75 179.375 c 0
 191.25 175.791015625 203.666015625 171.875 216 167.625 c 0
 228.333984375 163.375 240.416015625 159.458984375 252.25 155.875 c 0
 264.083984375 152.291015625 275.583984375 150.5 286.75 150.5 c 0
 298.916015625 150.5 312.791015625 153.375 328.375 159.125 c 0
 343.958984375 164.875 362 175.166015625 382.5 190 c 0
 382.5 156.75 l 0
EndSplineSet
EndChar

StartChar: inherent
Encoding: 103 -1 98
Width: 316
Flags: HW
LayerCount: 2
Fore
SplineSet
1 1320 m 1
 60.9804 1320 105 1368.28 105 1424 c 2
 105 1557 l 1
 316 1557 l 1
 316 1425 l 2
 316 1265.93 174.993 1136 1 1136 c 1
 1 1320 l 1
EndSplineSet
EndChar

StartChar: makewide
Encoding: 104 -1 99
Width: 638
Flags: HW
LayerCount: 2
Fore
SplineSet
613 962 m 2
 613 1052.88 550.996 1132 454 1132 c 2
 271 1132 l 1
 271 1316 l 1
 693 1316 l 1
 743 1132 l 1
 797 1082.67 824 1030 824 974 c 2
 824 254 l 2
 824 118.29 733.062 -3.55014e-18 613 0 c 2
 338 0 l 2
 205.6 0 85.1536 90.5181 7 199 c 1
 7 501 l 1
 88.1986 332.803 229 184 377 184 c 2
 549 184 l 2
 587.4 184 613 228 613 286 c 2
 613 962 l 2
EndSplineSet
EndChar

StartChar: shortrr
Encoding: 105 -1 100
Width: 1512
Flags: HW
LayerCount: 2
Fore
SplineSet
343 1124 m 2
 343 1241.6 450.473 1320 569 1320 c 2
 1529 1320 l 1
 1530 1135 l 1
 650 1135 l 2
 600.787 1135 556 1100.5 556 1057 c 2
 556 898 l 2
 556 841.061 611.103 794 677 794 c 2
 1004 794 l 1
 1004 611 l 1
 677 611 l 2
 611.064 611 556 563.107 556 505 c 2
 556 309 l 2
 556 244.733 592.919 198.717 633 189 c 1
 792 189 l 1
 792 5 l 1
 554 5 l 2
 443.422 5 344 91.7891 344 215 c 2
 344 520 l 2
 344 615.039 423.272 690.545 516 706 c 1
 425.552 725.296 343 789.81 343 888 c 2
 343 1124 l 2
EndSplineSet
EndChar

StartChar: anusvara
Encoding: 107 3202 101
Width: 1446
Flags: HW
LayerCount: 2
Fore
SplineSet
1157 1317 m 2
 1315.5 1317 1445 1188.6 1445 1017 c 2
 1446 288 l 2
 1446 128.861 1337.19 3.44742e-18 1210 0 c 2
 628 0 l 2
 472.223 0 339 140.226 339 315 c 2
 339 1045 l 2
 339 1120.33 367.667 1184 425 1236 c 1
 479.667 1290 547 1317 627 1317 c 2
 1157 1317 l 2
1121 183 m 2
 1182.44 183 1236.39 244.973 1235 331 c 1
 1235 1001 l 2
 1235 1090.62 1170.88 1131 1120 1131 c 2
 699 1131 l 2
 622.345 1131 551 1079.8 551 1016 c 2
 551 330 l 2
 551 253.929 619.055 183 710 183 c 2
 1121 183 l 2
EndSplineSet
EndChar

StartChar: u0C83
Encoding: 108 3203 102
Width: 935
Flags: HW
LayerCount: 2
Fore
SplineSet
775 1320 m 2
 882.95 1320 985 1230.33 985 1109 c 2
 986 897 l 2
 986 798.94 909.635 715 803 715 c 2
 511 715 l 2
 392.576 715 302 808.818 302 913 c 2
 302 1124 l 2
 302 1241.6 400.147 1320 511 1320 c 2
 775 1320 l 2
775 609 m 2
 901 609 985 502.973 985 387 c 2
 985 212 l 2
 985 94.7891 909.602 2 820 2 c 2
 511 2 l 2
 397.607 2 302 90.6211 302 201 c 2
 302 412 l 2
 302 528.714 403.054 609 511 609 c 2
 775 609 l 2
713 901 m 2
 744.774 901 772.688 924.441 774 952 c 1
 774 1071 l 2
 774 1110.21 750.337 1135 713 1135 c 2
 592 1135 l 2
 550.443 1135 511 1108.12 511 1072 c 2
 511 966 l 2
 511 940 534.525 901 582 901 c 2
 713 901 l 2
723 188 m 2
 753 188 773 210.45 773 241 c 2
 773 362 l 2
 773 415.3 743.4 424 736 424 c 2
 581 424 l 2
 544.1 424 511 403.6 511 373 c 2
 511 257 l 2
 511 224.118 531.406 188 564 188 c 2
 723 188 l 2
EndSplineSet
EndChar

StartChar: avowel
Encoding: 109 3205 103
Width: 1880
Flags: HW
LayerCount: 2
Fore
SplineSet
1648 1317 m 2
 1786.34 1317 1940 1225.34 1940 1070 c 2
 1938 266 l 2
 1938 122.902 1826.81 1 1675 1 c 2
 656 1 l 2
 487.312 1 358 123.033 358 265 c 2
 358 1056 l 2
 358 1206.53 479.454 1319 620 1319 c 2
 960 1319 l 1
 960 897 l 1
 752 897 l 1
 752 1134 l 1
 673 1134 l 2
 610.6 1134 569 1061.58 569 976 c 2
 569 332 l 2
 569 253.884 636.112 185 728 185 c 2
 1581 185 l 2
 1646.46 185 1728 248.701 1728 370 c 2
 1728 1029 l 2
 1728 1088.98 1679.72 1133 1624 1133 c 2
 1543 1133 l 1
 1543 991 l 2
 1543 921 1587.33 854.333 1676 791 c 1
 1676 608 l 1
 884 608 l 1
 884 791 l 1
 1438 791 l 1
 1367.33 861.667 1332 923 1332 975 c 2
 1332 1317 l 1
 1648 1317 l 2
EndSplineSet
EndChar

StartChar: aavowel
Encoding: 110 3206 104
Width: 2011
Flags: HW
LayerCount: 2
Fore
SplineSet
1847 1313 m 2
 1974.69 1313 2073 1210.71 2073 1093 c 1
 2076 946 l 1
 2076 798.614 1971.84 682 1839 682 c 2
 1758 682 l 1
 1812 622.667 1839 578.667 1839 550 c 2
 1839 198 l 2
 1839 83.989 1731.36 -3 1603 -3 c 1
 1603 2 l 1
 611 2 l 2
 475.557 2 362 116.644 362 267 c 2
 362 1058 l 2
 362 1208.24 505.401 1320 678 1320 c 2
 942 1320 l 1
 942 898 l 1
 731 898 l 1
 731 1135 l 1
 688 1135 l 2
 623.843 1135 572 1076.07 572 1020 c 2
 572 334 l 2
 572 267.227 619.013 187 706 187 c 2
 1496 187 l 2
 1568.5 187 1628 253.798 1628 335 c 2
 1628 556 l 2
 1628 592 1604.67 635.667 1558 687 c 1
 1020 687 l 1
 1020 871 l 1
 1495 871 l 1
 1459.67 917.667 1442 950.667 1442 970 c 2
 1442 1129 l 2
 1442 1239.4 1544.55 1313 1677 1313 c 2
 1847 1313 l 2
1793 867 m 2
 1836.04 867 1859 911.022 1859 959 c 2
 1859 1051 l 2
 1859 1103 1842.33 1129 1809 1129 c 2
 1731 1129 l 2
 1693.24 1129 1651 1100.5 1651 1051 c 2
 1651 987 l 2
 1651 949 1669 909 1705 867 c 1
 1793 867 l 2
EndSplineSet
EndChar

StartChar: ivowel
Encoding: 111 3207 105
Width: 1516
Flags: HW
LayerCount: 2
Fore
SplineSet
1406 256 m 2
 1406 213.733 1440.89 188 1469 188 c 2
 1564 188 l 1
 1568 0 l 1
 1437 0 l 2
 1302.01 0 1200 95.531 1200 210 c 2
 1200 341 l 1
 989 341 l 2
 869.393 341 778 419.185 778 514 c 2
 778 656 l 2
 778 725.146 859.5 788 971 788 c 2
 1199 788 l 2
 1271.64 788 1333.71 734.904 1356 673 c 1
 1356 1044 l 2
 1356 1099.5 1298.83 1132 1236 1132 c 2
 1094 1132 l 2
 1016.53 1132 961 1078.21 961 1028 c 2
 961 896 l 1
 753 896 l 1
 753 1017 l 2
 753 1074.23 702.558 1133 622 1133 c 2
 447 1133 l 2
 384.066 1133 331 1082.29 331 1029 c 2
 331 897 l 2
 331 832.087 377.906 793 420 793 c 2
 462 793 l 1
 462 610 l 1
 369 610 l 2
 230.785 610 120 722.872 120 861 c 2
 120 1057 l 2
 120 1211.95 256.546 1319 395 1319 c 2
 647 1319 l 2
 745.327 1319 832.729 1266.76 854 1187 c 1
 882.072 1257.79 951.254 1319 1040 1319 c 2
 1278 1319 l 2
 1443.35 1319 1565 1198.16 1565 1047 c 2
 1565 714 l 2
 1565 599.333 1512 490.333 1406 387 c 1
 1406 256 l 2
986 573 m 0
 986 554.75 1000.8 532 1023 532 c 2
 1195 531 l 1
 1195 557 l 2
 1195 593 1178 611 1144 611 c 2
 1023 611 l 2
 1003.18 611 986 595.194 986 573 c 0
EndSplineSet
EndChar

StartChar: iivowel
Encoding: 112 3208 106
Width: 2354
Flags: HW
LayerCount: 2
Fore
SplineSet
2187 1211 m 2
 2315.22 1211 2414 1100.14 2414 975 c 2
 2415 781 l 2
 2415 675.8 2334.57 570.224 2202 518 c 1
 2308 398 2361 320 2361 284 c 2
 2361 153 l 2
 2361 73.8121 2310.04 4 2240 4 c 2
 1808 4 l 1
 1808 188 l 1
 2083 188 l 2
 2122.62 188 2149 221.002 2149 256 c 2
 2149 267 l 2
 2149 299.667 2131 330.667 2095 360 c 1
 1967 502 l 1
 1543 502 l 1
 1543 255 l 2
 1543 123.705 1440.76 1 1292 1 c 2
 630 1 l 2
 515.645 1 409 102.45 409 227 c 2
 409 502 l 1
 201 502 l 1
 201 685 l 1
 409 685 l 1
 409 860 l 2
 409 952 462.333 1043 569 1133 c 1
 385 1133 l 1
 385 1317 l 1
 1334 1317 l 2
 1395.6 1317 1411 1368.25 1411 1396 c 2
 1411 1502 l 1
 1625 1502 l 1
 1625 1396 l 2
 1625 1269.17 1532.97 1150.19 1387 1121 c 1
 1430.78 1091.6 1543 1008.32 1543 912 c 2
 1543 686 l 1
 1818 686 l 1
 1774.67 724.667 1753 777.333 1753 844 c 2
 1753 991 l 2
 1753 1119.12 1855.46 1211 1966 1211 c 2
 2187 1211 l 2
2070 684 m 1
 2146.36 684 2198.73 744.611 2200 807 c 1
 2200 949 l 2
 2200 1003.9 2163.65 1026 2133 1026 c 2
 2027 1026 l 2
 1994.21 1026 1966 997.095 1966 961 c 2
 1966 806 l 2
 1966 779.333 1974.33 757.667 1991 741 c 1
 2070 691 l 1
 2070 684 l 1
1329 691 m 1
 1329 928 l 2
 1329 1017.33 1285.33 1087.67 1198 1139 c 1
 787 1139 l 1
 675 1061 619 972.667 619 874 c 2
 619 691 l 1
 1329 691 l 1
1198 189 m 2
 1271.39 189 1328.67 254.565 1330 336 c 1
 1330 506 l 1
 619 506 l 1
 619 310 l 2
 619 250.439 664.778 189 725 189 c 2
 1198 189 l 2
EndSplineSet
EndChar

StartChar: uvowel
Encoding: 113 3209 107
Width: 2825
Flags: HW
LayerCount: 2
Fore
SplineSet
2660 1317 m 2
 2796.2 1317 2887 1203.93 2887 1078 c 2
 2888 281 l 2
 2888 124.649 2767.98 1 2626 1 c 2
 2267 1 l 2
 2088.76 1 1969 139.791 1969 281 c 2
 1969 1046 l 2
 1969 1098.8 1925.8 1134 1872 1134 c 2
 1529 1134 l 2
 1486.59 1134 1442 1099.2 1442 1047 c 2
 1442 266 l 2
 1442 130.703 1325.71 1 1153 1 c 2
 677 1 l 2
 505.505 1 363 132.647 363 306 c 2
 363 1029 l 2
 363 1222.46 515.233 1318 625 1318 c 2
 1019 1318 l 1
 1019 939 l 2
 1019 800.687 917.674 685 793 685 c 2
 651 685 l 1
 651 869 l 1
 739 869 l 2
 782.581 869 810 902.768 810 937 c 2
 810 1131 l 1
 677 1131 l 2
 620.296 1131 572 1082.64 572 1026 c 2
 572 303 l 2
 572 235.32 627.492 182 688 182 c 2
 1136 182 l 2
 1191.73 182 1230 233.138 1230 285 c 2
 1230 1043 l 2
 1230 1198.92 1341.74 1315 1477 1315 c 2
 1899 1315 l 2
 2064.68 1315 2177 1189.24 2177 1054 c 2
 2177 304 l 2
 2177 233.804 2226.78 184 2281 184 c 2
 2580 184 l 2
 2636.4 184 2674 232.25 2674 287 c 2
 2674 1028 l 2
 2674 1074.8 2635.09 1106 2581 1106 c 2
 2544 1106 l 1
 2544 1317 l 1
 2660 1317 l 2
EndSplineSet
EndChar

StartChar: uuvowel
Encoding: 114 3210 108
Width: 3385
Flags: HW
LayerCount: 2
Fore
SplineSet
3127 1323 m 2
 3290.32 1323 3441 1197.4 3441 1009 c 2
 3441 266 l 2
 3441 111.608 3330.88 3.42061e-18 3206 0 c 2
 3099 0 l 2
 2973.39 0 2865 99.9718 2865 237 c 2
 2865 421 l 1
 3076 421 l 1
 3076 237 l 2
 3076 203.861 3103.48 185 3127 185 c 2
 3191 185 l 2
 3217.12 185 3230 220.143 3230 254 c 2
 3230 1003 l 2
 3230 1087.21 3175.12 1134 3125 1134 c 2
 2862 1134 l 2
 2798.03 1134 2732 1090.97 2732 1004 c 2
 2732 307 l 2
 2732 134.156 2608.61 2 2468 2 c 2
 2085 2 l 2
 1944.33 2 1839 132.168 1839 289 c 2
 1839 1030 l 2
 1839 1090.77 1790.08 1134 1734 1134 c 2
 1470 1134 l 2
 1412.15 1134 1364 1077.17 1364 1019 c 2
 1364 317 l 2
 1364 136.176 1224.48 2 1059 2 c 2
 707 2 l 2
 516.649 2 365 137.269 365 308 c 2
 365 1048 l 2
 365 1125.33 394.333 1189 453 1239 c 1
 510.333 1293 580.333 1320 663 1320 c 2
 1021 1320 l 1
 1021 978 l 2
 1021 833.528 910.505 716 768 716 c 2
 679 716 l 1
 679 899 l 1
 740 899 l 2
 782.6 899 811 935.65 811 966 c 2
 811 1136 l 1
 690 1136 l 2
 627.066 1136 574 1085.29 574 1032 c 2
 574 319 l 2
 574 249.8 631.54 188 716 188 c 2
 1049 188 l 2
 1102.65 188 1154 242.583 1154 319 c 2
 1154 1032 l 2
 1154 1201.91 1301.22 1321 1453 1321 c 2
 1745 1321 l 2
 1929.5 1321 2051 1174.27 2051 1033 c 2
 2051 292 l 2
 2051 230.8 2095.62 190 2153 190 c 2
 2402 190 l 2
 2471.59 190 2523 250.562 2523 321 c 2
 2523 1008 l 2
 2523 1197.61 2671.58 1323 2821 1323 c 2
 3127 1323 l 2
EndSplineSet
EndChar

StartChar: rvocalicvowel.part
Encoding: 116 -1 110
Width: 1933
Flags: HW
LayerCount: 2
Fore
SplineSet
1862 1213 m 1
 1972.93 1152.78 1989 1059.19 1989 1006 c 2
 1983 281 l 1
 1983 122.882 1896.22 0 1791 0 c 2
 1397 0 l 2
 1273.66 0 1184.2 62.5779 1132 148 c 1
 1093.7 65.4158 1029.4 -1.93459e-18 961 0 c 2
 512 0 l 2
 400.761 0 299 85.3121 299 199 c 2
 299 553 l 1
 618 553 l 2
 748.05 553 852 473.269 852 359 c 2
 852 266 l 1
 642 266 l 1
 642 333 l 2
 642 357.667 625.333 370 592 370 c 2
 513 370 l 1
 513 265 l 2
 513 223.389 545.556 184 592 184 c 2
 880 184 l 2
 954.343 184 1011 230.375 1011 287 c 2
 1011 1055 l 2
 1011 1101.8 963.05 1133 896 1133 c 2
 618 1133 l 2
 560.729 1133 515 1108.2 515 1071 c 2
 515 926 l 1
 594 926 l 2
 637.998 926 670 957.066 670 1004 c 2
 670 1057 l 1
 881 1057 l 1
 881 993 l 2
 881 855.861 781.43 739 661 739 c 2
 300 739 l 1
 300 1110 l 2
 300 1226.06 405.752 1320 539 1320 c 2
 963 1320 l 2
 1112.29 1320 1224 1206.07 1224 1071 c 2
 1224 343 l 1
 1266.73 258.719 1343.4 186 1423 186 c 2
 1672 186 l 2
 1724.93 186 1777 235.891 1777 317 c 2
 1777 977 l 2
 1777 1074.16 1709.8 1134 1637 1134 c 2
 1357 1134 l 1
 1357 1318 l 1
 1662 1318 l 2
 1727.82 1318 1778 1377.41 1778 1449 c 2
 1778 1555 l 1
 1988 1555 l 1
 1988 1422 l 2
 1988 1372.5 1971.89 1262.95 1862 1213 c 1
EndSplineSet
EndChar

StartChar: lvocalicvowel.part
Encoding: 118 -1 112
Width: 1516
Flags: HW
LayerCount: 2
Fore
SplineSet
1276 1316 m 2
 1441.35 1316 1563 1195.16 1563 1044 c 2
 1563 711 l 2
 1563 654.333 1538.33 588 1489 512 c 1
 1404 385 l 1
 1390 366.333 1380 352 1374 342 c 0
 1352.67 310.667 1343 290.333 1345 281 c 1
 1345 238.762 1378.7 212 1412 212 c 0
 1441.86 212 1466.75 227.931 1480 246 c 2
 1667 512 l 1
 1826 406 l 1
 1600 104 l 1
 1585.6 78.6233 1545.2 14 1463 14 c 0
 1406.93 14 1305.59 42.1996 1239 103 c 0
 1201.67 137 1176 164 1162 184 c 0
 1142.67 213.333 1133 247.333 1133 286 c 0
 1133 312.761 1342.31 648 1343 648 c 0
 1356.1 685.434 1369 748.23 1369 849 c 0
 1369 917.525 1362.96 996.195 1354 1041 c 1
 1354 1096.5 1296.83 1129 1234 1129 c 2
 1092 1129 l 2
 1014.53 1129 959 1075.21 959 1025 c 2
 959 893 l 1
 751 893 l 1
 751 1014 l 2
 751 1071.23 700.558 1130 620 1130 c 2
 445 1130 l 2
 382.066 1130 329 1079.29 329 1026 c 2
 329 894 l 2
 329 829.087 375.906 790 418 790 c 2
 460 790 l 1
 460 607 l 1
 367 607 l 2
 228.785 607 118 719.872 118 858 c 2
 118 1054 l 2
 118 1208.95 254.546 1316 393 1316 c 2
 645 1316 l 2
 743.327 1316 830.729 1263.76 852 1184 c 1
 880.072 1254.79 949.254 1316 1038 1316 c 2
 1276 1316 l 2
EndSplineSet
EndChar

StartChar: evowel
Encoding: 119 3214 113
Width: 1833
Flags: HW
LayerCount: 2
Fore
SplineSet
1537 1318 m 2
 1720.76 1318 1889 1180.84 1889 991 c 2
 1889 281 l 2
 1889 126.021 1785.18 0 1652 0 c 2
 1253 0 l 2
 1145.93 0 1073 66.9656 1073 132 c 1
 1046.12 47.1009 977.206 0 906 0 c 2
 601 0 l 2
 438.866 0 310 118.451 310 265 c 2
 310 791 l 1
 624 791 l 2
 748.183 791 838.815 629.746 863 476 c 1
 667 423 l 1
 655.244 519.66 593.188 609 520 609 c 1
 520 317 l 2
 520 246.15 574.754 186 652 186 c 2
 850 186 l 2
 909.451 186 966 231.258 966 316 c 2
 966 449 l 1
 1180 449 l 1
 1180 333 l 2
 1180 251.559 1248.28 185 1326 185 c 2
 1547 185 l 2
 1622.93 185 1678 248.885 1678 333 c 2
 1678 964 l 2
 1678 1065.12 1605.87 1134 1512 1134 c 2
 1336 1134 l 1
 1336 1318 l 1
 1537 1318 l 2
EndSplineSet
EndChar

StartChar: eevowel
Encoding: 120 3215 114
Width: 1828
Flags: HW
LayerCount: 2
Fore
SplineSet
1527 1322 m 2
 1728.62 1322 1886 1179.14 1886 996 c 2
 1884 312 l 2
 1884 251.44 1865.28 121.962 1721 39 c 1
 1667 11 1611.67 -3 1555 -3 c 1
 1555 2 l 1
 1254 2 l 2
 1163.86 2 1095.79 67.6918 1073 150 c 1
 1025.67 50.6667 954.667 1 860 1 c 2
 625 1 l 2
 446.38 1 308 134.44 308 289 c 2
 308 793 l 1
 625 793 l 2
 659 793 692.333 779 725 751 c 1
 767.775 717.524 829.834 635.205 857 479 c 1
 659 426 l 1
 641.474 541.382 573.2 611 516 611 c 1
 516 319 l 2
 516 247.653 572.177 188 649 188 c 2
 846 188 l 2
 906.663 188 963 233.195 963 318 c 2
 963 451 l 1
 1177 451 l 1
 1177 335 l 2
 1177 248.766 1242.42 188 1317 188 c 2
 1543 188 l 2
 1615.5 188 1675 254.798 1675 336 c 2
 1675 967 l 2
 1675 1065.37 1597.17 1137 1503 1137 c 2
 1306 1137 l 1
 1306 1073 l 2
 1306 978.49 1206.87 901 1079 901 c 2
 835 901 l 2
 692.956 901 571 1003.87 571 1138 c 2
 571 1322 l 1
 781 1322 l 1
 781 1166 l 2
 781 1117.71 826.624 1084 858 1084 c 2
 1028 1084 l 2
 1058.12 1084 1096 1120.51 1096 1181 c 2
 1096 1322 l 1
 1527 1322 l 2
EndSplineSet
EndChar

StartChar: aivowel
Encoding: 121 3216 115
Width: 1938
Flags: HW
LayerCount: 2
Fore
SplineSet
1700 1309 m 2
 1882.07 1309 1990 1174.72 1990 1046 c 2
 1990 284 l 2
 1990 129.605 1863.78 -5 1700 -5 c 1
 1700 0 l 1
 1401 0 l 2
 1286.07 0 1195.33 70.0166 1155 158 c 1
 1104.9 69.7275 1023 -1 935 -1 c 2
 602 -1 l 2
 439.866 -1 311 117.451 311 264 c 2
 311 552 l 2
 311 722.515 443.062 843 601 843 c 2
 967 843 l 1
 967 568 l 2
 967 414.795 840.917 295.275 680 281 c 1
 626 465 l 1
 702.237 465 758 517.884 758 573 c 2
 758 652 l 1
 669 652 l 2
 584.312 652 521 594.986 521 536 c 2
 521 335 l 2
 521 250.709 580.877 176 653 176 c 2
 879 176 l 2
 966.195 176 1049 250.954 1049 334 c 2
 1049 413 l 1
 1260 413 l 1
 1260 334 l 2
 1260 254.961 1326.86 176 1415 176 c 2
 1669 176 l 2
 1735.81 176 1784 255.923 1784 333 c 2
 1784 993 l 2
 1784 1062.3 1738 1124 1669 1124 c 2
 1443 1124 l 2
 1385.74 1124 1337 1073.12 1337 1009 c 2
 1337 942 l 1
 1126 942 l 1
 1126 1020 l 2
 1126 1080.5 1058.69 1124 967 1124 c 2
 641 1124 l 2
 583.4 1124 525.923 1073.19 497 993 c 1
 338 1097 l 1
 387.413 1227.39 496.4 1308 602 1308 c 2
 1012 1308 l 2
 1124.36 1308 1200.52 1249.21 1233 1168 c 1
 1268.46 1240 1336.7 1309 1437 1309 c 2
 1700 1309 l 2
EndSplineSet
EndChar

StartChar: ovowel
Encoding: 122 3218 116
Width: 1773
Flags: HW
LayerCount: 2
Fore
SplineSet
1640 763 m 2
 1754.56 763 1827 679.281 1827 580 c 1
 1822 226 l 1
 1822 104.401 1744.27 -3.56612e-18 1636 0 c 2
 1232 0 l 2
 1148.53 0 1082.24 55.145 1059 121 c 1
 1047.05 53.2811 987.021 -1.78627e-18 917 0 c 2
 548 0 l 2
 408.784 0 294 95.4711 294 210 c 2
 294 501 l 1
 525 654 l 1
 731.135 787.783 771 824.757 771 884 c 2
 771 1053 l 2
 771 1092.88 745.008 1131 693 1131 c 2
 510 1131 l 1
 510 1026 l 2
 510 979.8 546.412 949 589 949 c 2
 615 949 l 1
 615 763 l 1
 523 763 l 2
 400.405 763 295 885.409 295 1026 c 2
 295 1315 l 1
 744 1315 l 2
 878.223 1315 983 1228.09 983 1120 c 2
 983 817 l 2
 983 754.022 934.198 709.06 699 548 c 1
 511 421 l 1
 511 287 l 2
 511 231.805 555.252 184 616 184 c 2
 852 184 l 2
 910.907 184 957 242.653 957 305 c 2
 957 393 l 1
 1168 393 l 1
 1168 315 l 2
 1168 246.451 1220.83 184 1299 184 c 2
 1510 184 l 2
 1564.23 184 1615 234.901 1615 305 c 2
 1615 491 l 2
 1615 545.561 1574.87 580 1527 580 c 2
 1457 580 l 1
 1457 763 l 1
 1640 763 l 2
EndSplineSet
EndChar

StartChar: oovowel
Encoding: 123 3219 117
Width: 1773
Flags: HW
LayerCount: 2
Fore
SplineSet
1615 764 m 2
 1733.42 764 1826 658.125 1826 526 c 1
 1822 254 l 1
 1822 123.525 1731.59 1 1613 1 c 2
 1233 1 l 2
 1149.53 1 1083.24 56.145 1060 122 c 1
 1028.41 49.2159 959.8 1 893 1 c 2
 549 1 l 2
 409.784 1 295 96.4711 295 211 c 2
 295 502 l 1
 526 655 l 1
 732.135 788.783 772 825.757 772 885 c 2
 772 1027 l 2
 772 1082.73 729.921 1131 666 1131 c 2
 510 1131 l 1
 510 1026 l 2
 510 979.8 546.412 949 589 949 c 2
 615 949 l 1
 615 763 l 1
 523 763 l 2
 400.405 763 295 885.409 295 1026 c 2
 295 1315 l 1
 499 1315 l 1
 363 1399 295 1466 295 1516 c 2
 295 1684 l 2
 295 1764.14 380.269 1843 508 1843 c 2
 743 1843 l 1
 743 1657 l 1
 575 1657 l 2
 538.188 1657 509 1636 509 1606 c 2
 509 1525 l 2
 509 1471 579.333 1401.33 720 1316 c 1
 743 1316 l 2
 877.223 1316 982 1229.09 982 1121 c 2
 982 818 l 2
 982 755.022 933.198 710.06 698 549 c 1
 510 422 l 1
 510 288 l 2
 510 232.805 554.252 185 615 185 c 2
 851 185 l 2
 909.907 185 956 243.653 956 306 c 2
 956 394 l 1
 1167 394 l 1
 1167 288 l 2
 1167 233.518 1219.97 185 1298 185 c 2
 1509 185 l 2
 1563.23 185 1614 235.901 1614 306 c 2
 1614 492 l 2
 1614 546.561 1573.87 581 1526 581 c 2
 1456 581 l 1
 1456 764 l 1
 1615 764 l 2
EndSplineSet
EndChar

StartChar: auvowel
Encoding: 124 3220 118
Width: 1764
Flags: HW
LayerCount: 2
Fore
SplineSet
1563 1849 m 2
 1731.75 1849 1867 1740.86 1867 1603 c 2
 1867 1003 l 1
 1298 1003 l 2
 1175.66 1003 1076 1119.09 1076 1257 c 2
 1076 1478 l 1
 1553 1478 l 1
 1553 1294 l 1
 1264 1294 l 1
 1264 1258 l 2
 1264 1216 1298.3 1188 1341 1188 c 2
 1657 1188 l 1
 1657 1547 l 2
 1657 1616.6 1599.21 1663 1537 1663 c 2
 982 1663 l 1
 1010.67 1645.67 1025 1625.33 1025 1602 c 2
 1025 1548 l 2
 1025 1460.45 962.468 1403 904 1403 c 2
 314 1403 l 1
 314 1586 l 1
 816 1586 l 2
 848.818 1586 866 1616.11 866 1636 c 0
 866 1643.33 849 1652.33 815 1663 c 1
 313 1663 l 1
 313 1849 l 1
 1563 1849 l 2
1635 765 m 2
 1743.04 765 1819 685.188 1819 582 c 2
 1817 229 l 2
 1817 108.724 1739.9 3 1633 3 c 2
 1220 3 l 2
 1140.45 3 1075.68 62.3921 1054 124 c 1
 1027.35 56.7341 965.2 3 906 3 c 2
 564 3 l 2
 414.598 3 289 124.658 289 268 c 2
 289 504 l 1
 518 656 l 1
 623.333 724.667 688.333 771 713 795 c 1
 745.667 823.667 762 853.667 762 885 c 2
 762 1078 l 2
 762 1114 736 1132 684 1132 c 2
 500 1132 l 1
 500 1027 l 2
 500 980.495 537.095 950 578 950 c 2
 629 950 l 1
 629 764 l 1
 511 764 l 2
 387.259 764 287 886.225 287 1028 c 2
 287 1317 l 1
 734 1317 l 2
 870.184 1317 971 1230.93 971 1123 c 2
 971 820 l 2
 971 758.8 901.931 701.794 855 667 c 1
 825.667 643.667 765.333 601.667 674 541 c 2
 501 424 l 1
 501 290 l 2
 501 235.264 543.583 187 607 187 c 2
 870 187 l 2
 920.358 187 949 250.143 949 308 c 2
 949 396 l 1
 1160 396 l 1
 1160 290 l 2
 1160 235.235 1204.22 187 1264 187 c 2
 1474 187 l 2
 1550.12 187 1606 242.691 1606 308 c 2
 1606 494 l 2
 1606 560.77 1546.05 582 1514 582 c 2
 1449 582 l 1
 1449 765 l 1
 1635 765 l 2
EndSplineSet
EndChar

StartChar: ka.base
Encoding: 126 -1 120
Width: 1019
Flags: HW
AnchorPoint: "s" 278 -62 basechar 0
LayerCount: 2
Fore
SplineSet
555 2 m 2
 443.227 2 357 83.8154 357 185 c 2
 357 422 l 2
 357 509.333 441.333 623.333 610 764 c 1
 197 764 l 1
 197 950 l 1
 699 950 l 1
 699 1133 l 1
 197 1133 l 1
 197 1317 l 1
 1072 1317 l 1
 1072 1133 l 1
 910 1133 l 1
 910 950 l 1
 1386 950 l 1
 1384 765 l 1
 1004 765 l 1
 1203.21 632.191 1251 508.2 1251 444 c 2
 1251 244 l 2
 1251 109.281 1151.36 7 1030 7 c 1
 1030 2 l 1
 555 2 l 2
979 192 m 2
 1020.05 192 1041.75 248.027 1043 293 c 1
 1043 416 l 2
 1043 531.183 916.356 644.241 806 706 c 1
 667.492 626.852 568 533.673 568 432 c 2
 568 288 l 2
 568 234.375 610.25 197 646 197 c 1
 646 192 l 1
 979 192 l 2
EndSplineSet
EndChar

StartChar: ka.imathra
Encoding: 127 -1 121
Width: 1198
Flags: HW
AnchorPoint: "s" 270 -80 basechar 0
LayerCount: 2
Fore
SplineSet
939 1662 m 2
 1047.49 1662 1121 1580.34 1121 1479 c 2
 1121 1124 l 1
 979 952 l 1
 1256 952 l 1
 1258 765 l 1
 964 765 l 1
 1177.94 620.678 1230 482.6 1230 412 c 2
 1230 186 l 2
 1230 81.332 1148.02 3 1048 3 c 2
 544 3 l 2
 427.434 3 335 86.4635 335 187 c 2
 335 440 l 2
 335 499.596 384.911 551.911 465 632 c 2
 597 765 l 1
 281 765 l 1
 281 951 l 1
 754 951 l 1
 912 1151 l 1
 912 1440 l 2
 912 1464.67 903.667 1477 887 1477 c 2
 754 1477 l 1
 754 1360 l 2
 754 1343.6 773.15 1319 807 1319 c 2
 833 1319 l 1
 833 1135 l 1
 727 1135 l 2
 622.29 1135 542 1212.12 542 1294 c 2
 542 1662 l 1
 939 1662 l 2
961 188 m 2
 983.4 188 1013.49 205.647 1017 267 c 1
 1017 423 l 2
 1017 479 937.667 572.667 779 704 c 1
 620.333 567.333 541 470.333 541 413 c 2
 541 240 l 2
 541 212.493 576.877 188 610 188 c 2
 961 188 l 2
EndSplineSet
LCarets2: 1 0
EndChar

StartChar: ka.sub
Encoding: 128 -1 122
Width: 316
Flags: HW
AnchorPoint: "Sub" -295 514 mark 0
AnchorPoint: "Sub" 561 -774 basemark 0
LayerCount: 2
Fore
SplineSet
34 -794 m 1
 -87.3409 -787.476 -194 -704.455 -194 -591 c 2
 -194 -502 l 2
 -194 -436.667 -145 -361.333 -47 -276 c 1
 -310 -276 l 1
 -310 -117 l 1
 97 -117 l 1
 111 -99.6667 129.333 -78.5 152 -53.5 c 130
 312 125 l 1
 326 146.333 333 165.333 333 182 c 2
 333 435 l 2
 333 478.333 297.667 514.667 227 544 c 1
 348 650 l 1
 460 572 516 507 516 455 c 2
 516 150 l 2
 516 124 502 94.6667 474 62 c 1
 411 -7 l 1
 296 -124 l 1
 640 -124 l 1
 638 -281 l 1
 400 -281 l 1
 494.667 -344.333 542 -405.667 542 -465 c 2
 542 -620 l 2
 542 -712.765 452.35 -794 333 -794 c 2
 34 -794 l 1
299 -651 m 2
 336.8 -651 364.793 -616.472 362 -562 c 1
 362 -469 l 2
 362 -395.8 275.654 -321.965 169 -286 c 1
 53.7598 -319.551 -5 -411.4 -5 -495 c 2
 -5 -572 l 2
 -5 -625.653 46.3082 -651 89 -651 c 2
 299 -651 l 2
EndSplineSet
LCarets2: 1 0
EndChar

StartChar: ka_rvocalicmatra.sub
Encoding: 129 -1 123
Width: 627
Flags: HW
LayerCount: 2
Fore
SplineSet
1116 262 m 1
 1190.05 226.632 1264 152.182 1264 52 c 2
 1262 -533 l 2
 1262 -676.63 1165.65 -795 1036 -795 c 2
 285 -791 l 2
 170.456 -791 76 -704.15 76 -591 c 2
 76 -237 l 1
 367 -237 l 1
 216.283 -178.486 181 -111.4 181 -80 c 2
 181 104 l 2
 181 162.667 225.667 223.667 315 287 c 1
 104 287 l 1
 104 448 l 1
 474 448 l 1
 474 658 l 1
 684 658 l 1
 684 448 l 1
 1053 448 l 1
 1053 287 l 1
 774 287 l 1
 882.014 252.329 948 177.8 948 105 c 2
 948 -11 l 2
 948 -129.097 850.681 -236 722 -236 c 2
 552 -236 l 1
 552 -392 l 1
 264 -392 l 1
 264 -562 l 2
 264 -602.305 306.603 -628 352 -628 c 2
 984 -628 l 2
 1025.4 -628 1053 -555.13 1053 -484 c 2
 1053 46 l 2
 1053 82.6667 1030 110.333 984 129 c 1
 1116 262 l 1
711 -81 m 2
 741.6 -81 762 -37.5 762 15 c 2
 762 104 l 2
 762 175.6 720.92 246.064 630 283 c 1
 485 283 l 1
 437.026 251.958 370 189.308 370 113 c 2
 370 -20 l 2
 370 -55.0551 407.09 -86 447 -86 c 1
 447 -81 l 1
 711 -81 l 2
EndSplineSet
EndChar

StartChar: kha
Encoding: 130 3222 124
Width: 1805
Flags: HW
LayerCount: 2
Fore
SplineSet
1641 1313 m 2
 1755.21 1313 1854 1219.38 1854 1103 c 2
 1854 205 l 2
 1854 102.352 1798.19 -5 1714 -5 c 2
 1433 -5 l 2
 1385 -5 1333 17.3333 1277 62 c 1
 1118 171 l 1
 1092.03 77.0165 1001.89 -4 881 -4 c 2
 449 -4 l 1
 449 1 l 1
 331.767 1 249 72.2153 249 150 c 2
 249 411 l 2
 249 505.482 327.76 581 422 581 c 2
 801 581 l 2
 863 581 907.333 563 934 527 c 1
 934 1029 l 2
 934 1086.01 907.304 1133 870 1133 c 2
 631 1133 l 2
 623.4 1133 593 1118.42 593 1046 c 2
 593 845 l 1
 382 845 l 1
 382 1123 l 2
 382 1234.68 470.854 1319 592 1319 c 2
 923 1319 l 2
 1039.47 1319 1144 1211.45 1144 1070 c 2
 1144 391 l 1
 1327 232 l 2
 1369 196 1412.67 178 1458 178 c 2
 1579 178 l 2
 1615.6 178 1640 229.55 1640 284 c 2
 1640 1051 l 2
 1640 1099.75 1603.63 1129 1552 1129 c 2
 1326 1129 l 1
 1326 1313 l 1
 1641 1313 l 2
841 179 m 2
 881.856 179 928.309 219.287 931 261 c 1
 931 328 l 1
 892.333 370.667 839.667 392 773 392 c 2
 535 392 l 2
 499.8 392 456 377.6 456 356 c 2
 456 233 l 1
 458.625 204.125 488.061 179 522 179 c 2
 841 179 l 2
EndSplineSet
LCarets2: 1 0
EndChar

StartChar: kha.base
Encoding: 131 -1 125
Width: 1491
Flags: HW
LayerCount: 2
Fore
SplineSet
1546 1310 m 1
 1734.1 1278.99 1859 1104.64 1859 906 c 2
 1860 205 l 2
 1860 90.0965 1795.99 -5 1718 -5 c 1
 1713 0 l 1
 1432 0 l 2
 1384 0 1332 22.3333 1276 67 c 1
 1132 159 l 1
 1115.42 78.4721 1026.05 -1.93176e-18 885 0 c 2
 453 0 l 2
 337.319 0 253 68.7078 253 149 c 2
 253 410 l 2
 253 504.33 332.599 580 435 580 c 2
 805 580 l 2
 862.333 580 905.667 562 935 526 c 1
 935 1055 l 2
 935 1099.59 909.069 1133 872 1133 c 2
 661 1133 l 2
 621.075 1133 594 1094.55 594 1045 c 2
 594 844 l 1
 383 844 l 1
 383 1122 l 2
 383 1224.49 469.865 1317 593 1317 c 2
 926 1317 l 2
 1042.85 1317 1146 1209.02 1146 1068 c 2
 1146 389 l 1
 1329 258 l 1
 1389.67 203.333 1434 176 1462 176 c 2
 1610 176 l 2
 1633.33 176 1645 190.333 1645 219 c 2
 1645 906 l 2
 1645 1034.96 1542.75 1126 1424 1126 c 2
 1329 1126 l 1
 1329 1310 l 1
 1546 1310 l 1
844 175 m 2
 880 175 930.795 205.122 934 258 c 1
 934 309 l 1
 873.333 361.667 807.667 388 737 388 c 2
 511 388 l 2
 490.6 388 460 373.6 460 352 c 2
 460 229 l 1
 462.508 201.407 490.377 175 527 175 c 2
 844 175 l 2
EndSplineSet
EndChar

StartChar: kha.imathra
Encoding: 132 -1 126
Width: 1805
Flags: HW
LayerCount: 2
Fore
SplineSet
1663 1497 m 2
 1773.27 1497 1859 1398.75 1859 1276 c 2
 1860 205 l 2
 1860 90.0965 1795.99 -5 1718 -5 c 1
 1713 0 l 1
 1432 0 l 2
 1384 0 1332 22.3333 1276 67 c 1
 1117 173 l 1
 1090.8 76.9206 1013.26 0 901 0 c 2
 453 0 l 2
 337.319 0 253 68.7078 253 149 c 2
 253 410 l 2
 253 504.33 332.599 580 435 580 c 2
 805 580 l 2
 843 580 886.667 553.667 936 501 c 1
 936 1028 l 2
 936 1085.37 899.061 1132 848 1132 c 2
 662 1132 l 2
 622.075 1132 595 1093.55 595 1044 c 2
 595 843 l 1
 384 843 l 1
 384 1121 l 2
 384 1223.49 470.865 1316 594 1316 c 2
 927 1316 l 2
 1043.85 1316 1147 1208.02 1147 1067 c 2
 1147 388 l 1
 1303 257 l 1
 1379 202.333 1449.67 175 1515 175 c 2
 1582 175 l 2
 1619.8 175 1645 206.55 1645 246 c 2
 1645 1221 l 2
 1645 1268.26 1625.79 1310 1583 1310 c 2
 1516 1310 l 1
 1492.72 1308.89 1463 1297.27 1463 1276 c 2
 1463 1233 l 2
 1463 1179.7 1494.2 1155 1515 1155 c 2
 1594 1155 l 1
 1594 968 l 1
 1424 968 l 2
 1333.5 968 1252 1049.88 1252 1155 c 2
 1252 1338 l 2
 1252 1430.72 1346.02 1497 1452 1497 c 2
 1663 1497 l 2
844 176 m 2
 877.834 176 930.654 205.132 934 257 c 1
 934 297 l 1
 862.667 357.667 801.333 388 750 388 c 2
 528 388 l 2
 496.925 388 460 373.026 460 352 c 2
 460 246 l 2
 460 205.969 483.45 176 502 176 c 2
 844 176 l 2
EndSplineSet
LCarets2: 1 0
EndChar

StartChar: kha.sub
Encoding: 133 -1 127
Width: 301
Flags: HW
AnchorPoint: "Sub" -578 499 mark 0
AnchorPoint: "Sub" 590 -799 basemark 0
LayerCount: 2
Fore
SplineSet
305 633 m 2
 463.888 633 595 529.047 595 388 c 2
 592 -459 l 2
 592 -611.541 476.945 -737 329 -737 c 2
 198 -737 l 2
 178 -737 129.333 -724 52 -698 c 1
 -30.6667 -760 -96.6667 -791 -146 -791 c 2
 -423 -791 l 2
 -512.344 -791 -598 -725.99 -598 -643 c 2
 -598 -527 l 2
 -598 -434.753 -523.811 -355 -422 -355 c 2
 -212 -355 l 2
 -192.667 -355 -176 -360 -162 -370 c 2
 -34 -458 l 1
 -34 -300 l 2
 -34 -234.745 -73.3738 -185 -128 -185 c 2
 -154 -185 l 1
 -154 -288 l 1
 -337 -288 l 1
 -337 -38 l 1
 -84 -38 l 2
 50.2092 -38 154 -151.421 154 -300 c 2
 154 -564 l 1
 185.333 -581.333 208.667 -590 224 -590 c 2
 330 -590 l 2
 376.2 -590 407 -535.125 407 -448 c 2
 407 372 l 2
 407 424.197 357.143 467 288 467 c 2
 182 467 l 1
 182 633 l 1
 305 633 l 2
-422 -616 m 2
 -422 -628.464 -397.444 -640 -382 -640 c 2
 -170 -640 l 1
 -153.933 -638.539 -129.202 -626.164 -92 -607 c 1
 -127.494 -574.041 -194.85 -526 -266 -526 c 2
 -382 -526 l 2
 -408.667 -526 -422 -534.667 -422 -552 c 2
 -422 -616 l 2
EndSplineSet
LCarets2: 1 0
EndChar

StartChar: ga.base
Encoding: 135 -1 129
Width: 1062
Flags: HW
LayerCount: 2
Fore
SplineSet
1116 1319 m 1
 1308.25 1271.28 1432 1111.5 1432 940 c 2
 1430 0 l 1
 1219 0 l 1
 1219 940 l 2
 1219 1046.69 1124.68 1134 999 1134 c 2
 798 1134 l 2
 678.528 1134 590 1050.38 590 941 c 2
 590 1 l 1
 379 1 l 1
 379 952 l 2
 379 1022 414 1083 484 1135 c 1
 379 1135 l 1
 379 1319 l 1
 1116 1319 l 1
EndSplineSet
EndChar

StartChar: ga.imathra
Encoding: 136 -1 130
Width: 1408
Flags: HW
LayerCount: 2
Fore
SplineSet
931 1715 m 2
 1215.49 1715 1456 1449.43 1456 1108 c 2
 1457 0 l 1
 1246 0 l 1
 1246 940 l 2
 1246 1053.01 1182.5 1134 1088 1134 c 2
 744 1134 l 2
 652.633 1134 590 1053.33 590 952 c 2
 590 1 l 1
 379 1 l 1
 379 941 l 2
 379 1074.58 448.1 1180.04 535 1229 c 1
 454.095 1254.43 379 1316.68 379 1412 c 2
 379 1545 l 2
 379 1645.03 473.384 1715 576 1715 c 2
 931 1715 l 2
591 1413 m 2
 591 1370.28 609.105 1325.8 641 1320 c 1
 1090 1320 l 2
 1146.67 1320 1198.33 1289.67 1245 1229 c 1
 1215.57 1399.18 1067.28 1528 868 1528 c 2
 684 1528 l 2
 622 1528 591 1511.33 591 1478 c 2
 591 1413 l 2
EndSplineSet
LCarets2: 1 0
EndChar

StartChar: ga.sub
Encoding: 137 -1 131
Width: 184
Flags: HW
AnchorPoint: "Sub" -372 -108 mark 0
AnchorPoint: "Sub" 373 -811 basemark 0
LayerCount: 2
Fore
SplineSet
110 -106 m 2
 262.103 -106 375 -208.922 375 -342 c 2
 376 -792 l 1
 190 -792 l 1
 190 -371 l 2
 190 -312.867 147.071 -267 84 -267 c 2
 -74 -267 l 2
 -129.3 -267 -177 -305.381 -177 -371 c 2
 -177 -792 l 1
 -364 -792 l 1
 -364 -371 l 2
 -364 -221.678 -252.45 -106 -116 -106 c 2
 110 -106 l 2
EndSplineSet
LCarets2: 1 0
EndChar

StartChar: gha.base
Encoding: 139 -1 133
Width: 1874
Flags: HW
LayerCount: 2
Fore
SplineSet
1555 914 m 2
 1555 1037.92 1445.77 1136 1307 1136 c 2
 316 1136 l 1
 316 1320 l 1
 2268 1320 l 1
 2265 1135 l 1
 1658 1135 l 1
 1755.7 1072.47 1764 983.016 1764 942 c 1
 1823.33 843.333 1881.33 794 1938 794 c 0
 1991.69 794 2025 831.024 2025 871 c 2
 2025 1057 l 1
 2236 1057 l 1
 2236 898 l 2
 2236 756.964 2156.24 612 2026 612 c 2
 1921 612 l 2
 1862.33 612 1810 637.667 1764 689 c 1
 1764 269 l 2
 1764 117.109 1664.67 4 1553 4 c 2
 1237 4 l 2
 1129.05 4 1055.39 94.8929 1027 188 c 1
 988.198 74.2713 911.2 4 834 4 c 2
 501 4 l 2
 404.169 4 317 102.387 317 230 c 2
 317 795 l 1
 608 795 l 2
 739.422 795 845 694.514 845 558 c 2
 845 507 l 1
 631 507 l 1
 631 547 l 2
 631 587.822 604.033 612 570 612 c 2
 527 612 l 1
 527 285 l 2
 527 232.567 558.117 189 597 189 c 2
 808 189 l 2
 870.577 189 923 277.148 923 389 c 2
 923 530 l 1
 1133 530 l 1
 1133 389 l 2
 1133 300.975 1210.58 188 1266 188 c 2
 1476 188 l 2
 1525.04 188 1555 226.938 1555 283 c 2
 1555 914 l 2
1133 793 m 1
 923 793 l 1
 923 1004 l 1
 1133 1004 l 1
 1133 793 l 1
1133 -275 m 1
 923 -275 l 1
 923 -11 l 1
 1133 -11 l 1
 1133 -275 l 1
EndSplineSet
EndChar

StartChar: gha.imathra
Encoding: 140 -1 134
Width: 2233
Flags: HW
LayerCount: 2
Fore
SplineSet
979 1715 m 2
 1061.33 1715 1136 1641.25 1136 1529 c 2
 1135 1163 l 2
 1135 1042.24 1061.8 952 953 952 c 2
 611 952 l 1
 611 1135 l 1
 872 1135 l 2
 903.523 1135 926 1174.69 926 1212 c 2
 926 1440 l 2
 926 1504.2 893.6 1527 872 1527 c 2
 777 1527 l 2
 752.333 1527 740 1515.33 740 1492 c 2
 740 1439 l 1
 741.211 1417.21 755.703 1398 777 1398 c 2
 872 1398 l 1
 872 1212 l 1
 700 1212 l 2
 607.54 1212 530 1291.46 530 1372 c 2
 530 1519 l 2
 530 1637.74 627.784 1715 727 1715 c 2
 979 1715 l 2
2027 843 m 2
 2048.6 843 2081 866.7 2081 948 c 2
 2081 1316 l 1
 2292 1316 l 1
 2293 897 l 2
 2293 758.853 2210.36 660 2108 660 c 2
 1924 660 l 2
 1868 660 1815.33 686 1766 738 c 1
 1766 267 l 2
 1766 115.611 1667.66 4.9206 1560 2 c 1
 1243 2 l 2
 1141.78 2 1060.73 74.4435 1034 161 c 1
 1006.63 76.5141 932.153 2 836 2 c 2
 509 2 l 2
 403.782 2 323 96.0016 323 201 c 2
 323 793 l 1
 615 793 l 2
 744.716 793 851 699.65 851 584 c 2
 851 505 l 1
 639 505 l 1
 639 572 l 2
 639 594.8 610.7 610 573 610 c 2
 536 610 l 1
 536 283 l 2
 536 221.069 573.8 187 599 187 c 2
 810 187 l 2
 884.236 187 931 289.686 931 387 c 2
 931 528 l 1
 1140 528 l 1
 1140 387 l 2
 1140 298.975 1217.58 186 1273 186 c 2
 1484 186 l 2
 1521.53 186 1561 220.199 1561 281 c 2
 1561 1029 l 2
 1561 1084.01 1518.14 1133 1456 1133 c 2
 1308 1133 l 1
 1308 1317 l 1
 1520 1317 l 2
 1660.85 1317 1770 1174.41 1770 1001 c 1
 1836.67 895.667 1891.33 843 1934 843 c 2
 2027 843 l 2
1135 -320 m 1
 926 -320 l 1
 926 -59 l 1
 1135 -59 l 1
 1135 -320 l 1
EndSplineSet
LCarets2: 1 0
EndChar

StartChar: gha.sub
Encoding: 141 -1 135
Width: 386
Flags: HW
AnchorPoint: "Sub" -773 292 mark 0
AnchorPoint: "Sub" 643 -758 basemark 0
LayerCount: 2
Fore
SplineSet
600 316 m 1
 697.635 252.759 773 182.971 773 106 c 2
 771 -61 l 1
 771 -155.667 726.667 -231 638 -287 c 1
 638 -457 l 2
 638 -571.32 564.8 -666 455 -666 c 2
 175 -666 l 2
 69.2561 -666 -12.0436 -581.572 -46 -508 c 1
 -106.699 -612.056 -196.6 -683 -297 -683 c 2
 -571 -683 l 2
 -674.25 -683 -755 -600.402 -755 -508 c 2
 -755 -325 l 2
 -755 -207.616 -666.379 -132 -571 -132 c 2
 -308 -132 l 1
 -308 -287 l 1
 -506 -287 l 2
 -539.38 -287 -570 -315.807 -570 -354 c 2
 -570 -474 l 2
 -570 -498.375 -543.062 -525 -517 -525 c 2
 -280 -525 l 2
 -223.864 -525 -140 -418.526 -140 -341 c 2
 -140 -264 l 1
 47 -264 l 1
 47 -353 l 2
 47 -420.924 125.247 -499 193 -499 c 2
 414 -499 l 2
 442 -499 456 -481.333 456 -446 c 2
 456 -340 l 1
 247 -340 l 1
 247 -182 l 1
 484 -182 l 2
 538.004 -182 590 -127.588 590 -53 c 2
 590 96 l 2
 590 114.667 558.333 144.333 495 185 c 1
 600 316 l 1
45 -791 m 1
 -142 -791 l 1
 -142 -670 l 1
 -47 -554 l 1
 45 -670 l 1
 45 -791 l 1
EndSplineSet
LCarets2: 1 0
EndChar

StartChar: nga
Encoding: 142 3225 136
Width: 1684
Flags: HW
LayerCount: 2
Fore
SplineSet
1555 765 m 2
 1654.94 765 1741 684.373 1741 570 c 2
 1744 211 l 2
 1744 100.108 1662.71 1 1558 1 c 2
 1187 1 l 2
 1114.6 1 1038.64 47.1144 1006 148 c 1
 987.566 70.8085 933.977 -1 849 -1 c 2
 497 -1 l 2
 382.523 -1 293 83.0213 293 183 c 2
 293 464 l 1
 680 790 l 1
 704.667 805.333 717 840 717 894 c 2
 717 1053 l 2
 717 1091.39 676.8 1130 613 1130 c 2
 507 1130 l 1
 507 1052 l 2
 507 1009.76 530.859 974 558 974 c 2
 586 974 l 1
 586 790 l 1
 453 790 l 2
 371.816 790 292 876.099 292 990 c 2
 292 1317 l 1
 653 1317 l 2
 770.621 1317 867.24 1263.04 889 1176 c 1
 971.667 1270 1059.33 1317 1152 1317 c 2
 1546 1317 l 2
 1631.2 1317 1688 1247.9 1688 1162 c 2
 1688 1003 l 1
 1478 1003 l 1
 1478 1070 l 2
 1478 1093.57 1465 1133 1413 1133 c 2
 1213 1133 l 2
 1087 1133 966.373 1066.23 898 950 c 1
 898 834 l 2
 898 748.667 872.333 687 821 649 c 1
 504 360 l 1
 504 256 l 2
 504 214.6 543.756 187 598 187 c 2
 766 187 l 2
 840.343 187 897 233.375 897 290 c 2
 897 396 l 1
 1108 396 l 1
 1108 290 l 2
 1108 239.618 1161.8 187 1239 187 c 2
 1478 187 l 2
 1507.97 187 1527 208.689 1527 239 c 2
 1527 503 l 2
 1527 555.667 1515.33 582 1492 582 c 2
 1344 582 l 1
 1344 765 l 1
 1555 765 l 2
1106 503 m 1
 895 503 l 1
 895 714 l 1
 1106 714 l 1
 1106 503 l 1
EndSplineSet
LCarets2: 1 0
EndChar

StartChar: nga.sub
Encoding: 143 -1 137
Width: 359
Flags: HW
AnchorPoint: "Sub" -743 -54 mark 0
AnchorPoint: "Sub" 725 -772 basemark 0
LayerCount: 2
Fore
SplineSet
121 -422 m 1
 -62 -422 l 1
 -62 -288 l 1
 121 -288 l 1
 121 -422 l 1
481 -642 m 2
 515.513 -642 542 -612.304 542 -582 c 2
 542 -449 l 1
 718 -449 l 1
 718 -618 l 2
 718 -715.373 643.797 -791 559 -791 c 2
 190 -791 l 2
 121.623 -791 56.2949 -741.87 35 -670 c 1
 15.9153 -734.888 -50.7089 -791 -125 -791 c 2
 -519 -791 l 2
 -615.094 -791 -704 -718.147 -704 -632 c 2
 -704 -487 l 2
 -704 -401.302 -621.8 -343 -545 -343 c 2
 -414 -343 l 2
 -397.333 -343 -389 -334.333 -389 -317 c 2
 -389 -267 l 2
 -389 -248.333 -397.333 -239 -414 -239 c 2
 -678 -239 l 1
 -678 -81 l 1
 -334 -81 l 2
 -269.741 -81 -223.47 -117.666 -218 -171 c 1
 -186.667 -111 -138 -81 -72 -81 c 2
 245 -81 l 2
 361.472 -81 428 -154.755 428 -238 c 2
 428 -343 l 1
 245 -343 l 1
 245 -266 l 2
 245 -236.667 221.667 -222 175 -222 c 2
 -36 -222 l 2
 -102.8 -222 -169.271 -275.051 -203 -356 c 1
 -203 -423 l 2
 -203 -464.864 -250.643 -502 -324 -502 c 2
 -468 -502 l 2
 -501.333 -502 -518 -514 -518 -538 c 2
 -518 -591 l 2
 -518 -612.902 -493.859 -630 -469 -630 c 2
 -168 -630 l 2
 -110.095 -630 -60 -596.804 -60 -553 c 2
 -60 -475 l 1
 123 -475 l 1
 123 -538 l 2
 123 -597.875 172.341 -642 227 -642 c 2
 481 -642 l 2
EndSplineSet
LCarets2: 1 0
EndChar

StartChar: ca.base
Encoding: 145 -1 139
Width: 1506
Flags: HW
LayerCount: 2
Fore
SplineSet
1514 544 m 2
 1514 611.763 1464.31 660 1408 660 c 2
 1145 660 l 1
 1145 846 l 1
 1469 846 l 1
 1469 1135 l 1
 1145 1135 l 1
 1145 1319 l 1
 1565 1319 l 1
 1681 1135 l 1
 1681 846 l 1
 1882 846 l 1
 1880 659 l 1
 1669 659 l 1
 1704.33 629.667 1722 595 1722 555 c 2
 1722 212 l 2
 1722 95.4844 1634.52 2 1522 2 c 2
 1143 2 l 2
 1071.57 2 1010.3 50.6265 1000 106 c 1
 985.509 48.0365 918.098 2 839 2 c 2
 512 2 l 2
 399.486 2 299 101.629 299 228 c 2
 299 517 l 1
 698 781 l 1
 698 1047 l 2
 698 1099.8 654.5 1135 603 1135 c 2
 514 1135 l 1
 514 1047 l 2
 514 1011.6 538 978 574 978 c 2
 617 978 l 1
 617 794 l 1
 471 794 l 2
 372.659 794 300 884.558 300 977 c 2
 300 1319 l 1
 710 1319 l 2
 820.955 1319 908 1222.72 908 1098 c 2
 908 677 l 1
 514 396 l 1
 514 290 l 2
 514 235.994 544.282 187 593 187 c 2
 814 187 l 2
 863.586 187 906 224.719 906 268 c 2
 906 396 l 1
 1117 396 l 1
 1117 290 l 2
 1117 225.617 1161.38 187 1194 187 c 2
 1416 187 l 2
 1479.84 187 1514 229.027 1514 267 c 2
 1514 544 l 2
EndSplineSet
EndChar

StartChar: ca.imathra
Encoding: 146 -1 140
Width: 1833
Flags: HW
LayerCount: 2
Fore
SplineSet
1557 1509 m 2
 1653.05 1509 1731 1425.16 1731 1311 c 2
 1731 981 l 2
 1731 927 1713 883.333 1677 850 c 1
 1888 850 l 1
 1889 659 l 1
 1678 659 l 1
 1714 629.667 1732 595 1732 555 c 2
 1732 212 l 2
 1732 90.7196 1663.24 1 1583 1 c 2
 1152 1 l 2
 1081.25 1 1019.25 51.1719 1009 105 c 1
 1002.58 51.0512 932.465 1 848 1 c 2
 496 1 l 2
 393.336 1 311 83.586 311 174 c 2
 311 543 l 1
 708 781 l 1
 708 1047 l 2
 708 1106.68 655.419 1135 614 1135 c 2
 522 1135 l 1
 522 1047 l 2
 522 1008.85 548 978 587 978 c 2
 654 978 l 1
 654 794 l 1
 481 794 l 2
 387.53 794 313 868.372 313 953 c 2
 313 1321 l 1
 735 1321 l 2
 844.2 1321 917 1223.28 917 1111 c 2
 917 679 l 1
 521 426 l 1
 521 270 l 2
 521 220.915 566.512 190 601 190 c 2
 795 190 l 2
 859.912 190 915 222.4 915 271 c 2
 915 454 l 1
 1126 454 l 1
 1126 293 l 2
 1126 237.771 1161.74 191 1204 191 c 2
 1451 191 l 2
 1490.35 191 1520 226.69 1520 271 c 2
 1520 548 l 2
 1520 592.151 1493.14 648.062 1425 662 c 1
 1152 662 l 1
 1152 848 l 1
 1441 848 l 1
 1493.67 876 1520 911.333 1520 954 c 2
 1520 1297 l 2
 1520 1313.67 1496.67 1322 1450 1322 c 2
 1373 1322 l 1
 1365 1320.67 1361 1300.67 1361 1262 c 2
 1361 1218 l 2
 1361 1193.69 1393.4 1168 1423 1168 c 2
 1493 1168 l 1
 1493 982 l 1
 1306 982 l 2
 1226.19 982 1152 1050.21 1152 1139 c 2
 1152 1350 l 2
 1152 1443.41 1225.26 1509 1307 1509 c 2
 1557 1509 l 2
EndSplineSet
LCarets2: 1 0
EndChar

StartChar: ca.sub
Encoding: 147 -1 141
Width: 359
Flags: HW
AnchorPoint: "Sub" -708 371 mark 0
AnchorPoint: "Sub" 630 -773 basemark 0
LayerCount: 2
Fore
SplineSet
454 -388 m 2
 454 -327.357 406.171 -283 350 -283 c 2
 113 -283 l 1
 113 -128 l 1
 272 -128 l 1
 358.667 -42.6667 402 33 402 99 c 2
 402 453 l 1
 589 453 l 1
 589 99 l 2
 589 23 553.667 -52.6667 483 -128 c 1
 720 -128 l 1
 719 -288 l 1
 570 -288 l 1
 615.333 -316.667 638 -362.667 638 -426 c 2
 638 -612 l 2
 638 -705.904 570.868 -784 482 -784 c 2
 218 -784 l 2
 109.852 -784 24.8158 -720.351 9 -636 c 1
 -21.345 -720.966 -96.9091 -784 -201 -784 c 2
 -506 -784 l 1
 -506 -789 l 1
 -612.426 -789 -703 -730.465 -703 -656 c 2
 -703 -484 l 2
 -703 -400.282 -633.645 -340 -561 -340 c 2
 -429 -340 l 2
 -385.3 -340 -363 -315.4 -363 -299 c 2
 -363 -264 l 2
 -363 -245.333 -380 -236 -414 -236 c 2
 -678 -236 l 1
 -678 -78 l 1
 -352 -78 l 2
 -253.767 -78 -176 -127.988 -176 -193 c 2
 -176 -368 l 2
 -176 -450.831 -252.577 -524 -352 -524 c 2
 -468 -524 l 2
 -492.814 -524 -517 -538.91 -517 -561 c 2
 -517 -587 l 2
 -517 -608.902 -492.859 -626 -468 -626 c 2
 -229 -626 l 2
 -154.17 -626 -87 -563.901 -87 -481 c 2
 -87 -389 l 1
 97 -389 l 1
 97 -496 l 2
 97 -565.459 176.062 -625 218 -625 c 2
 387 -625 l 2
 425.011 -625 454 -589.876 454 -547 c 2
 454 -388 l 2
EndSplineSet
LCarets2: 1 0
EndChar

StartChar: cha.base
Encoding: 149 -1 143
Width: 1341
Flags: HW
LayerCount: 2
Fore
SplineSet
1418 1311 m 1
 1589.95 1288.81 1710 1160.8 1710 1028 c 2
 1712 226 l 2
 1712 99.9466 1613.73 -3.45084e-18 1501 0 c 2
 1237 0 l 2
 1149.01 0 1072.36 57.1537 1053 132 c 1
 1030.05 48.813 954.946 1.63093e-18 886 0 c 2
 597 0 l 2
 474.914 0 372 94.6992 372 210 c 2
 372 1069 l 2
 372 1212.84 489.638 1317 598 1317 c 2
 976 1317 l 1
 976 975 l 2
 976 841.929 892.653 764 810 764 c 2
 662 764 l 1
 662 950 l 1
 715 950 l 2
 747.863 950 766 989.456 766 1027 c 2
 766 1132 l 1
 677 1132 l 2
 624.119 1132 582 1094.04 582 1045 c 2
 582 280 l 2
 582 227.267 617.945 185 660 185 c 2
 835 185 l 2
 898.901 185 949 232.299 949 287 c 2
 949 421 l 1
 1160 421 l 1
 1160 287 l 2
 1160 232.235 1204.22 184 1264 184 c 2
 1420 184 l 2
 1472.35 184 1500 240.044 1500 287 c 2
 1500 1028 l 2
 1500 1077.33 1465 1110.33 1395 1127 c 1
 1129 1127 l 1
 1129 1311 l 1
 1418 1311 l 1
1156 -318 m 1
 945 -318 l 1
 945 -57 l 1
 1156 -57 l 1
 1156 -318 l 1
EndSplineSet
EndChar

StartChar: cha.imathra
Encoding: 150 -1 144
Width: 1657
Flags: HW
LayerCount: 2
Fore
SplineSet
1518 1529 m 2
 1622.56 1529 1713 1425.31 1713 1284 c 2
 1712 226 l 2
 1712 104.401 1634.27 -3.56612e-18 1526 0 c 2
 1238 0 l 2
 1150.01 0 1073.36 57.1537 1054 132 c 1
 1029.48 61.9496 971.483 0 886 0 c 2
 597 0 l 2
 474.914 0 372 94.6992 372 210 c 2
 372 1069 l 2
 372 1212.84 489.638 1317 598 1317 c 2
 976 1317 l 1
 976 975 l 2
 976 841.929 892.653 764 810 764 c 2
 662 764 l 1
 662 950 l 1
 715 950 l 2
 748.267 950 766 977.609 766 1001 c 2
 766 1132 l 1
 677 1132 l 2
 624.119 1132 582 1094.04 582 1045 c 2
 582 280 l 2
 582 224.94 626.073 184 677 184 c 2
 836 184 l 2
 899.901 184 950 231.299 950 286 c 2
 950 420 l 1
 1161 420 l 1
 1161 286 l 2
 1161 231.235 1205.22 183 1265 183 c 2
 1421 183 l 2
 1473.35 183 1501 239.044 1501 286 c 2
 1501 1256 l 2
 1501 1303.2 1475.4 1344 1437 1344 c 2
 1358 1344 l 2
 1319.85 1344 1291 1315.57 1291 1282 c 2
 1291 1203 l 2
 1291 1162.2 1326.1 1135 1358 1135 c 2
 1421 1135 l 1
 1421 952 l 1
 1291 952 l 2
 1175.6 952 1078 1043.44 1078 1152 c 2
 1078 1335 l 2
 1078 1446.08 1161.9 1529 1265 1529 c 2
 1518 1529 l 2
1159 -316 m 1
 948 -316 l 1
 948 -55 l 1
 1159 -55 l 1
 1159 -316 l 1
EndSplineSet
LCarets2: 1 0
EndChar

StartChar: cha.sub
Encoding: 151 -1 145
Width: 288
Flags: HW
AnchorPoint: "Sub" -594 372 mark 0
AnchorPoint: "Sub" 590 -810 basemark 0
LayerCount: 2
Fore
SplineSet
296 388 m 1
 481.692 350.017 593 160.435 593 -46 c 2
 592 -453 l 2
 592 -605.941 527.614 -728 445 -728 c 2
 213 -728 l 2
 117.227 -728 50.1012 -671.858 31 -598 c 1
 9.37006 -671.302 -47.3605 -729 -135 -729 c 2
 -396 -729 l 1
 -407 -725 l 1
 -494.594 -725 -577 -638.784 -577 -529 c 2
 -577 -318 l 2
 -577 -211.68 -504.6 -119 -396 -119 c 2
 -174 -119 l 1
 -174 -303 l 1
 -344 -303 l 2
 -374.6 -303 -395 -334.425 -395 -372 c 2
 -395 -488 l 2
 -395 -528.556 -365.225 -554 -344 -554 c 2
 -156 -554 l 2
 -96.0149 -554 -64 -489.897 -64 -423 c 2
 -64 -356 l 1
 108 -356 l 1
 108 -433 l 2
 108 -504.758 155.644 -554 202 -554 c 2
 335 -554 l 2
 387.345 -554 428 -511.637 428 -450 c 2
 428 -39 l 2
 428 94.0039 355.735 206.538 235 229 c 1
 296 388 l 1
120 -856 m 1
 -67 -856 l 1
 -67 -767 l 1
 28 -651 l 1
 120 -767 l 1
 120 -856 l 1
EndSplineSet
LCarets2: 1 0
EndChar

StartChar: ja
Encoding: 152 3228 146
Width: 1706
Flags: HW
LayerCount: 2
Fore
SplineSet
1595 741 m 2
 1686.66 741 1762 642.368 1762 521 c 2
 1764 211 l 2
 1764 105.109 1689.38 2 1580 2 c 2
 1174 2 l 2
 1100.95 2 1045.75 59.2547 1027 123 c 1
 1016.75 55.0835 965.055 2 895 2 c 2
 491 2 l 2
 374.312 2 288 88.1414 288 186 c 2
 288 517 l 1
 702 738 l 1
 742.667 776.667 763 812.333 763 845 c 2
 763 1029 l 2
 763 1091.36 707.806 1133 648 1133 c 2
 527 1133 l 1
 527 1017 l 2
 527 999.667 554 991 608 991 c 2
 659 991 l 1
 659 791 l 1
 501 791 l 2
 404.212 791 317 864.307 317 975 c 2
 317 1317 l 1
 729 1317 l 2
 843.834 1317 972 1248.57 972 1123 c 1
 1020 1061 1069.67 1030 1121 1030 c 2
 1385 1030 l 2
 1422.82 1030 1446 1059.4 1446 1079 c 2
 1446 1122 l 2
 1446 1148 1433.67 1161 1409 1161 c 2
 1370 1161 l 1
 1370 1344 l 1
 1463 1344 l 2
 1579.83 1344 1656 1255.22 1656 1152 c 2
 1656 1031 l 2
 1656 921.2 1570.22 848 1473 848 c 2
 1147 848 l 2
 1087.67 848 1029.33 874.333 972 927 c 1
 972 783 l 2
 972 719 946 666 894 624 c 1
 500 415 l 1
 500 285 l 2
 500 224.516 546.772 189 593 189 c 2
 831 189 l 2
 879.968 189 920 236.061 920 292 c 2
 920 374 l 1
 1130 374 l 1
 1130 310 l 2
 1130 256.969 1176.17 190 1251 190 c 2
 1445 190 l 2
 1504.89 190 1551 249.741 1551 311 c 2
 1551 480 l 2
 1551 528.086 1514.1 558 1462 558 c 2
 1341 558 l 1
 1341 741 l 1
 1595 741 l 2
EndSplineSet
LCarets2: 1 0
EndChar

StartChar: ja.base
Encoding: 153 -1 147
Width: 1390
Flags: HW
LayerCount: 2
Fore
SplineSet
1581 734 m 2
 1691.4 734 1765 652.519 1765 540 c 1
 1768 237 l 1
 1768 106.02 1673.44 -3.50323e-18 1559 0 c 2
 1174 0 l 2
 1104.38 0 1051.81 61.0506 1033 121 c 1
 1023.15 59.4085 963.662 -1.96641e-18 876 0 c 2
 493 0 l 2
 384.769 0 295 85.7117 295 184 c 2
 295 515 l 1
 677 736 l 1
 740.333 792 772 845 772 895 c 2
 772 1027 l 2
 772 1082.35 734.4 1131 678 1131 c 2
 536 1131 l 1
 536 1067 l 2
 536 1016.1 567.8 991 589 991 c 2
 639 991 l 1
 639 791 l 1
 509 791 l 2
 399.494 791 324 878.561 324 975 c 2
 324 1317 l 1
 732 1317 l 2
 867.331 1317 982 1215.47 982 1095 c 1
 1024 1050.33 1062.67 1028 1098 1028 c 2
 1351 1028 l 2
 1382.2 1028 1403 1055.7 1403 1094 c 2
 1403 1131 l 1
 1112 1131 l 1
 1112 1315 l 1
 1408 1315 l 2
 1523.8 1315 1613 1235.97 1613 1131 c 2
 1613 1026 l 2
 1613 923.228 1525.2 842 1427 842 c 2
 1149 842 l 2
 1094.33 842 1038.33 868.333 981 921 c 1
 981 805 l 2
 981 758.333 945.667 705.333 875 646 c 1
 507 409 l 1
 507 279 l 2
 507 225.066 546.049 183 595 183 c 2
 833 183 l 2
 882.63 183 927 231.617 927 286 c 2
 927 368 l 1
 1136 368 l 1
 1136 304 l 2
 1136 234.317 1180.54 183 1225 183 c 2
 1451 183 l 2
 1514 183 1556 237.151 1556 286 c 2
 1556 490 l 2
 1556 524.819 1515.95 551 1461 551 c 2
 1345 551 l 1
 1345 734 l 1
 1581 734 l 2
EndSplineSet
EndChar

StartChar: ja.imathra
Encoding: 154 -1 148
Width: 1727
Flags: HW
LayerCount: 2
Fore
SplineSet
1573 736 m 2
 1697.88 736 1783 642.385 1783 543 c 2
 1785 211 l 2
 1785 95.0488 1690.91 1 1575 1 c 2
 1165 1 l 2
 1093.32 1 1041.08 61.1846 1022 122 c 1
 1011.26 50.8266 952.641 1 891 1 c 2
 507 1 l 2
 388.762 1 287 93.3594 287 211 c 2
 287 492 l 1
 719 765 l 1
 745.667 794.333 759 829 759 869 c 2
 759 1045 l 2
 759 1096.69 729.778 1133 681 1133 c 2
 522 1133 l 1
 522 1045 l 1
 524.43 1014.63 543.867 991 574 991 c 2
 625 991 l 1
 625 791 l 1
 497 791 l 2
 389.477 791 312 879.507 312 974 c 2
 312 1316 l 1
 719 1316 l 2
 861.116 1316 969 1238.41 969 1149 c 1
 1043.67 1113 1115 1095 1183 1095 c 2
 1262 1095 l 1
 1262 1344 l 2
 1262 1453.2 1344.44 1526 1445 1526 c 2
 1576 1526 l 2
 1686.26 1526 1758 1435.06 1758 1317 c 2
 1758 1106 l 2
 1758 985.188 1661.02 896 1549 896 c 2
 1216 896 l 2
 1122.67 896 1039.67 914 967 950 c 1
 967 791 l 2
 967 736.333 950 698 916 676 c 2
 496 412 l 1
 496 267 l 2
 496 216.5 534.5 186 572 186 c 2
 822 186 l 2
 870.788 186 913 224.808 913 282 c 2
 913 371 l 1
 1124 371 l 1
 1124 307 l 2
 1124 243.265 1167 186 1213 186 c 2
 1479 186 l 2
 1527.95 186 1572 233.921 1572 289 c 2
 1572 466 l 2
 1572 515.503 1522.55 553 1466 553 c 2
 1335 553 l 1
 1335 736 l 1
 1573 736 l 2
1521 1080 m 2
 1541.4 1080 1572 1099.15 1572 1163 c 2
 1572 1294 l 2
 1572 1328 1557.67 1345 1529 1345 c 2
 1494 1345 l 2
 1465.35 1345 1442 1324.6 1442 1294 c 2
 1442 1080 l 1
 1521 1080 l 2
EndSplineSet
LCarets2: 1 0
EndChar

StartChar: ja.sub
Encoding: 155 -1 149
Width: 348
Flags: HW
AnchorPoint: "Sub" -656 54 mark 0
AnchorPoint: "Sub" 714 -782 basemark 0
LayerCount: 2
Fore
SplineSet
434 -237 m 2
 473.132 -237 503 -207.984 503 -184 c 2
 503 -105 l 2
 503 -79 485.333 -53.6667 450 -29 c 1
 555 78 l 1
 642.333 18.6667 686 -42.6667 686 -106 c 2
 686 -221 l 2
 686 -327.919 615.11 -394 530 -394 c 2
 136 -394 l 2
 42.6667 -394 -54.6667 -345.667 -156 -249 c 1
 -77 -133 l 1
 29 -202.333 94 -237 118 -237 c 2
 434 -237 l 2
472 -635 m 2
 499.5 -635 522 -615 522 -585 c 2
 522 -452 l 1
 708 -452 l 1
 708 -593 l 2
 708 -701.415 644.256 -793 549 -793 c 2
 233 -793 l 2
 147.801 -793 66.5545 -730.995 51 -661 c 1
 8.33333 -749.667 -52 -794 -130 -794 c 2
 -504 -794 l 2
 -607.674 -794 -688 -722.112 -688 -647 c 2
 -688 -506 l 2
 -688 -406.897 -615.151 -347 -545 -347 c 2
 -414 -347 l 2
 -381.35 -347 -363 -325.5 -363 -306 c 2
 -363 -271 l 2
 -363 -252.333 -374.667 -243 -398 -243 c 2
 -662 -243 l 1
 -662 -67 l 1
 -346 -67 l 2
 -251.294 -67 -177 -134.922 -177 -216 c 2
 -177 -385 l 2
 -177 -443.498 -237.599 -506 -320 -506 c 2
 -451 -506 l 2
 -487 -506 -505 -518 -505 -542 c 2
 -505 -595 l 2
 -505 -615.231 -475.942 -635 -451 -635 c 2
 -163 -635 l 2
 -93.7383 -635 -47 -576.489 -47 -514 c 2
 -47 -453 l 1
 140 -453 l 1
 140 -514 l 2
 140 -582.062 199.531 -635 261 -635 c 2
 472 -635 l 2
EndSplineSet
LCarets2: 1 0
EndChar

StartChar: jha.sub
Encoding: 160 -1 154
Width: 380
Flags: HW
AnchorPoint: "Sub" -752 -62 mark 0
AnchorPoint: "Sub" 726 -732 basemark 0
LayerCount: 2
Fore
SplineSet
547 -59 m 1
 688.574 -106.191 775 -198.8 775 -292 c 1
 771 -510 l 1
 771 -636.186 674.887 -736 561 -736 c 2
 378 -736 l 2
 336 -736 302.667 -713.667 278 -669 c 1
 250.667 -713.667 207.333 -736 148 -736 c 2
 -13 -736 l 2
 -49 -736 -83.6667 -719 -117 -685 c 1
 -144.333 -719 -184.333 -736 -237 -736 c 2
 -531 -736 l 2
 -651.628 -736 -751 -629.527 -751 -510 c 2
 -751 -266 l 2
 -751 -147.581 -645.125 -55 -513 -55 c 2
 -276 -55 l 2
 -142.339 -55 -42 -155.407 -42 -275 c 2
 -42 -501 l 2
 -42 -538.75 -5.99062 -580 40 -580 c 2
 117 -580 l 2
 151.61 -580 179 -547.152 179 -509 c 2
 179 -300 l 2
 179 -248.8 129.406 -194.29 50 -172 c 1
 171 -56 l 1
 289.833 -96.5111 365 -195.8 365 -289 c 2
 365 -528 l 2
 365 -557.85 391.55 -582 416 -582 c 2
 512 -582 l 2
 561.725 -582 590 -541.05 590 -504 c 2
 590 -318 l 2
 590 -259.962 528.604 -192.869 431 -164 c 1
 547 -59 l 1
369 -796 m 1
 182 -796 l 1
 182 -770 l 1
 279 -719 l 1
 368 -770 l 1
 369 -796 l 1
-317 -587 m 2
 -268.965 -587 -222.603 -546.464 -224 -492 c 1
 -224 -322 l 2
 -224 -267.633 -267.499 -217 -329 -217 c 2
 -477 -217 l 2
 -523.874 -217 -564 -251.996 -564 -306 c 2
 -564 -492 l 2
 -564 -545.642 -513.824 -587 -461 -587 c 2
 -317 -587 l 2
EndSplineSet
LCarets2: 1 0
EndChar

StartChar: jha.part
Encoding: 161 -1 155
Width: 792
Flags: HW
LayerCount: 2
Fore
SplineSet
592 1318 m 2
 737.094 1318 845 1182.29 845 1018 c 2
 845 254 l 2
 845 118.145 752.982 -3.54777e-18 633 0 c 2
 317 0 l 2
 219 0 123 66.6667 29 200 c 1
 29 502 l 1
 114.226 318.827 261.026 185 395 185 c 2
 511 185 l 2
 582.063 185 632 238.849 632 316 c 2
 632 1018 l 2
 632 1078.5 588.584 1134 528 1134 c 2
 289 1134 l 1
 289 1318 l 1
 592 1318 l 2
845 -372 m 1
 633 -372 l 1
 633 -106 l 1
 845 -106 l 1
 845 -372 l 1
EndSplineSet
EndChar

StartChar: nya
Encoding: 163 3230 157
Width: 2133
Flags: HW
LayerCount: 2
Fore
SplineSet
2019 1327 m 2
 2118.57 1327 2195 1242.46 2195 1132 c 1
 2198 940 l 1
 2198 828.957 2128.8 738 2039 738 c 2
 1908 738 l 1
 1908 925 l 1
 1934 925 l 2
 1967.33 925 1984 951 1984 1003 c 2
 1984 1080 l 2
 1984 1116 1958.33 1134 1907 1134 c 2
 1812 1134 l 2
 1747.59 1134 1697 1078.92 1697 1004 c 2
 1697 715 l 2
 1697 603 1652.67 502.333 1564 413 c 1
 1564 268 l 2
 1564 220 1607.8 188 1642 188 c 2
 1723 188 l 1
 1723 4 l 1
 1564 4 l 2
 1447.06 4 1355 100.454 1355 214 c 2
 1355 345 l 1
 1145 345 l 2
 1037.74 345 961 429.629 961 518 c 2
 961 660 l 2
 961 736.616 1039.87 793 1126 793 c 2
 1354 793 l 2
 1418.42 793 1465.26 726.074 1486 678 c 1
 1486 1049 l 2
 1486 1104.45 1426.63 1137 1364 1137 c 2
 1248 1137 l 2
 1172.25 1137 1117 1083.48 1117 1033 c 2
 1117 901 l 1
 906 901 l 1
 906 1022 l 2
 906 1078.15 857.914 1138 775 1138 c 2
 602 1138 l 2
 581.7 1138 539 1119.45 539 1061 c 2
 539 930 l 2
 539 889.727 565.962 852 602 852 c 2
 669 852 l 1
 669 640 l 1
 521 640 l 2
 418.445 640 327 739.887 327 867 c 2
 327 1114 l 2
 327 1230.36 417.361 1325 521 1325 c 2
 828 1325 l 2
 918.545 1325 1003.21 1270.36 1010 1193 c 1
 1039.79 1259.45 1105.58 1325 1192 1325 c 2
 1442 1325 l 2
 1536.8 1325 1585.85 1243.81 1600 1211 c 1
 1626.42 1277.67 1686.59 1327 1772 1327 c 2
 2019 1327 l 2
1142 577 m 2
 1142 554.084 1176.41 536 1202 536 c 2
 1281 536 l 2
 1295.67 536 1318.67 545 1350 563 c 1
 1350 595.963 1305.8 616 1257 616 c 2
 1178 616 l 2
 1154 616 1142 612.333 1142 605 c 2
 1142 577 l 2
EndSplineSet
LCarets2: 1 0
EndChar

StartChar: nya.sub
Encoding: 164 -1 158
Width: 432
Flags: HW
AnchorPoint: "Sub" -770 -30 mark 0
AnchorPoint: "Sub" 706 -798 basemark 0
LayerCount: 2
Fore
SplineSet
646 -23 m 2
 716.673 -23 786 -80.3422 786 -176 c 2
 788 -422 l 2
 788 -511.7 732 -589 648 -589 c 2
 531 -589 l 1
 531 -445 l 1
 585 -445 l 2
 615.4 -445 623 -415.6 623 -396 c 2
 623 -243 l 2
 623 -190.333 610 -164 584 -164 c 2
 444 -164 l 2
 436.084 -164 392.404 -160.445 362 -256 c 1
 362 -501 l 2
 362 -598.459 261.88 -683 128 -683 c 1
 128 -703.194 150.58 -728 173 -728 c 2
 245 -728 l 1
 245 -847 l 1
 126 -847 l 2
 58.2906 -847 -17 -799.8 -17 -729 c 2
 -17 -683 l 1
 -102 -683 l 2
 -173.666 -683 -230 -636.75 -230 -589 c 2
 -230 -480 l 2
 -230 -426.816 -185.8 -377 -112 -377 c 2
 7 -377 l 2
 98.3375 -377 126 -438.8 126 -480 c 2
 126 -541 l 1
 172.667 -541 196 -525 196 -493 c 2
 196 -218 l 2
 196 -199.709 174.205 -164 102 -164 c 2
 -88 -164 l 2
 -149.886 -164 -194 -204.581 -194 -256 c 2
 -194 -291 l 1
 -359 -291 l 1
 -359 -243 l 2
 -359 -191.606 -399.513 -164 -455 -164 c 2
 -558 -164 l 2
 -577.6 -164 -607 -178.825 -607 -232 c 2
 -607 -386 l 2
 -607 -409.789 -559.374 -431 -512 -431 c 1
 -512 -589 l 1
 -665.634 -589 -772 -481.634 -772 -387 c 2
 -772 -189 l 2
 -772 -83.7609 -693.082 -22 -622 -22 c 2
 -418 -22 l 2
 -339.503 -22 -276 -82.3516 -276 -142 c 1
 -248.712 -77.933 -201 -23 -151 -23 c 2
 173 -23 l 2
 242.333 -23 289.333 -46.6667 314 -94 c 1
 349.333 -46.6667 388.667 -23 432 -23 c 2
 646 -23 l 2
-21 -531 m 2
 -21 -506 l 2
 -21 -486 -33 -476 -57 -476 c 0
 -80.3333 -476 -92 -483.333 -92 -498 c 2
 -92 -546 l 2
 -92 -561.333 -76.6667 -569 -46 -569 c 0
 -29.3333 -569 -21 -556.333 -21 -531 c 2
EndSplineSet
LCarets2: 1 0
EndChar

